<svg width="73" height="73" fill="none" xmlns="http://www.w3.org/2000/svg"><path d="M23.747 14.905c5.234-.894 8.97-4.593 8.343-8.262-.626-3.669-5.377-5.918-10.612-5.025-5.235.894-8.97 4.593-8.344 8.262.627 3.67 5.378 5.919 10.613 5.025z" fill="#2196F3"/><path opacity=".3" d="M23.747 14.905c5.234-.894 8.97-4.593 8.343-8.262-.626-3.669-5.377-5.918-10.612-5.025-5.235.894-8.97 4.593-8.344 8.262.627 3.67 5.378 5.919 10.613 5.025z" fill="#fff"/><path d="M39.732 8.468c.58 1.197-.348 2.83-2.057 3.648-1.71.818-3.557.506-4.129-.69-.572-1.198.35-2.832 2.058-3.648 1.707-.816 3.548-.499 4.128.69z" fill="#2196F3"/><path opacity=".5" d="M39.732 8.468c.58 1.197-.348 2.83-2.057 3.648-1.71.818-3.557.506-4.129-.69-.572-1.198.35-2.832 2.058-3.648 1.707-.816 3.548-.499 4.128.69z" fill="#fff"/><path d="M42.79 13.204c.166.718-.532 1.491-1.557 1.727s-1.99-.154-2.154-.874c-.164-.72.532-1.49 1.547-1.727 1.015-.236 2.007.155 2.164.874z" fill="#2196F3"/><path opacity=".6" d="M42.79 13.204c.166.718-.532 1.491-1.557 1.727s-1.99-.154-2.154-.874c-.164-.72.532-1.49 1.547-1.727 1.015-.236 2.007.155 2.164.874z" fill="#fff"/><path d="M20.796 13.833c-.12 0-.24 0-.358-.018a1.637 1.637 0 01-.951-.338.936.936 0 01-.302-.537c-.218 0-.437-.016-.657-.028-.484-.029-.985-.083-1.337-.408a1.102 1.102 0 01-.344-.773 1.364 1.364 0 01-.901-.752 1.216 1.216 0 01.062-.996 2.98 2.98 0 01-.563-.563 2.576 2.576 0 01-.507-1.6.449.449 0 01-.218-.22c-.078-.193.021-.41.278-.62.053-.045.109-.09.163-.132a2.582 2.582 0 011.615-1.398c.58-.167 1.185-.12 1.773-.074h.029c.429-.08.862-.133 1.297-.16a2.41 2.41 0 01.745-.055c.252-.115.467-.297.623-.526.078-.123.147-.252.205-.386.06-.144.131-.282.214-.414.36-.54 1.058-.847 2.08-.915 1.21-.077 2.19.132 2.914.62.273.184.506.42.686.695.363.02.721.086 1.068.194.489.14 1.628.57 1.622 1.504a1.955 1.955 0 01-.26.841l-.405.832c.02.106.029.213.025.32.077.033.152.07.224.111.33.194.67.54.642.967-.017.279-.193.547-.512.816a4.4 4.4 0 01-1.354.747 5.73 5.73 0 01-.541.852c-.397.519-1.058 1.188-1.957 1.43a2.384 2.384 0 01-1.704-.165 6.706 6.706 0 01-.5.3c-1.045.565-2.01.849-2.894.849zm-1.439-.893c.036.158.12.3.242.408.246.187.545.291.855.3.943.084 2-.194 3.14-.811a6.26 6.26 0 00.418-.246 1.845 1.845 0 01-.42-.373.656.656 0 01-.14-.259 11.26 11.26 0 01-.765.089 5.027 5.027 0 01-1.249.387 2.883 2.883 0 01-.646.307c-.465.142-.95.208-1.435.197zm.302-.596a.58.58 0 00-.255.234.487.487 0 00-.058.193c.472.009.942-.057 1.394-.193.08-.027.16-.058.244-.095a3.693 3.693 0 01-1.325-.14zm-2.64-.56a.918.918 0 00.288.597c.31.286.774.334 1.23.361.215.012.428.023.638.027a.673.673 0 01.273-.497 2.812 2.812 0 01-.22-.094v.025a.387.387 0 01-.267.26.568.568 0 01-.513-.082 1.108 1.108 0 01-.35-.625 2.436 2.436 0 01-.7.075 2.218 2.218 0 01-.379-.048zm7.316.792a2.22 2.22 0 001.5.11c.854-.228 1.486-.87 1.867-1.367a5.73 5.73 0 00.44-.671c-.224.07-.452.13-.684.18a2.69 2.69 0 01-1.123.557 8.337 8.337 0 01-1.118.22 3.03 3.03 0 01-.203.317c-.192.252-.42.472-.679.654zm-.716-.646a.516.516 0 00.105.182c.124.15.274.277.443.375.27-.182.51-.407.71-.665.046-.062.088-.126.129-.194l-.366.035a6.334 6.334 0 01-1.02.267zm-5.352-.222a.967.967 0 00.291.54.406.406 0 00.356.055.228.228 0 00.167-.207 2.92 2.92 0 01-.633-.462c-.066.027-.127.05-.181.074zm1.717.533c.467.092.947.099 1.417.022.067-.045.132-.094.194-.145h-.06c-.422.02-.857.042-1.277.083a2.423 2.423 0 00-.282.04h.008zm1.876-.137l-.087.083c.114-.029.23-.06.342-.096l-.255.013zm-2.605-.112a2.9 2.9 0 00.412.166c.186-.07.381-.111.58-.125.421-.041.86-.062 1.284-.082l.26-.013c.072-.078.136-.162.194-.25a19.53 19.53 0 00-2.45.064.341.341 0 00-.25.093.281.281 0 00-.038.147h.008zm2.93-.3c-.05.081-.104.16-.163.234.209-.011.418-.025.625-.044.12-.054.234-.112.346-.176-.248 0-.493 0-.739-.012l-.07-.002zm-3.578-.141l.089.077c.12.104.25.196.387.277a.342.342 0 01.056-.155.47.47 0 01.369-.168 20.728 20.728 0 012.568-.062c.04-.076.075-.156.1-.238a2.31 2.31 0 01-.556.103 9.017 9.017 0 01-2.61-.147c-.125.12-.263.224-.41.313h.007zm4.709.157l-.03.019-.177.108c.118-.013.234-.03.35-.05a.416.416 0 01.027-.077h-.17zm.387 0a.216.216 0 00-.037.046l.247-.05-.21.004zm-6.67-.097a2.231 2.231 0 001.042-.018 12.05 12.05 0 01-.116-.593l-.035-.06a8.366 8.366 0 01-.557-.213 1.657 1.657 0 00-.332.851s-.02.02-.02.031l.018.002zm-.894-1.528a1.039 1.039 0 00-.044.832 1.183 1.183 0 00.756.646c.028-.327.146-.64.34-.903a5.819 5.819 0 01-.25-.117 5.466 5.466 0 01-.802-.458zm2.038 1.257c.014.068.03.134.043.194l.093-.037a1.1 1.1 0 01-.136-.157zm4.087.18c.329 0 .661.014.994.014.341-.228.661-.487.955-.774a3.821 3.821 0 01-.44-.108 3.234 3.234 0 01-.865-.406 1.178 1.178 0 01-.447.9l-.081.055a1.875 1.875 0 01-.116.333v-.014zm2.162-.729c-.27.27-.56.519-.868.743h.058c.115-.09.246-.155.386-.194.425-.13.858-.233 1.296-.307.048-.118.093-.242.137-.37-.318.134-.667.18-1.01.132v-.004zm.79.423c-.395.07-.785.165-1.17.283l-.078.029c.212 0 .423-.018.636-.033.21-.077.414-.17.61-.277l.003-.002zm-7.058-.193c.092.145.198.281.315.406.119-.066.23-.143.333-.232a8.25 8.25 0 01-.648-.176v.002zm7.19.32l-.038.08c.33-.044.656-.108.978-.193.27-.07.53-.174.774-.311-.314.058-.627.108-.94.158l-.462.074-.103.07c-.067.038-.135.08-.209.121zm-6.198-.248a8.836 8.836 0 002.454.123c.215-.009.427-.056.625-.139.04-.272.047-.548.021-.822 0-.093 0-.193-.013-.278-.146.133-.31.243-.49.327a2.206 2.206 0 01-1.794-.03 1.844 1.844 0 01-.207-.04l-.068.118a4.225 4.225 0 01-.528.74zm-1.063-.275c.285.093.575.17.868.234.226-.236.42-.5.58-.785l.046-.081a2.13 2.13 0 01-.541-.285c-.35.052-.691.152-1.013.298.007.215.03.422.06.62zm7.542-.215c-.01.024-.018.049-.027.074-.039.11-.076.216-.116.32l.106-.017c.13-.096.25-.208.354-.332l-.317-.045zm-3.224-.794v.06c0 .125 0 .25.014.386a4.43 4.43 0 010 .71 1.116 1.116 0 00.328-.837c-.12-.1-.225-.215-.313-.343l-.029.024zm3.742.858c-.067.093-.143.18-.226.26l.176-.028c.437-.07.864-.137 1.278-.226.012 0 .021-.021.033-.033a3.263 3.263 0 01-.625.054c-.213 0-.425-.008-.636-.027zm-8.683-.077l.335.13a4.011 4.011 0 01-.124-.318 1.59 1.59 0 00-.211.188zm7.117.048c.24.016.48-.018.705-.1l-.193-.043a6.017 6.017 0 01-.311-.083c-.064.076-.13.151-.201.226zm-1.673-.6a2.9 2.9 0 00.907.457c.176.056.358.097.541.122.085-.085.167-.174.248-.263a3.213 3.213 0 01-1.294-.774 2.501 2.501 0 01-.427-.597 2.7 2.7 0 01-.134.305c.058.163.103.33.134.5.014.082.023.166.025.25zm4.774.529l-.028.038c.207-.05.408-.108.603-.174.244-.479.421-.989.528-1.516a1.56 1.56 0 01-.242.137 1.278 1.278 0 01-.17 1.031 1.332 1.332 0 01-.69.484zM26.25 10.5c.175.013.353.021.531.021.267.004.534-.03.791-.1.016-.027.031-.055.045-.084a1.325 1.325 0 00-.012-1.106 4.91 4.91 0 01-.932-.12l-.166.304c-.053.095-.105.193-.159.286a1.023 1.023 0 01-.098.803V10.5zm-10.032-.58c.252.175.518.328.795.456.095.046.194.09.285.13.092-.106.197-.2.313-.279h.014a3.124 3.124 0 01-.088-1.112 2.412 2.412 0 00-.874.348c-.18.123-.331.283-.445.468V9.92zm9.546.52l.3.037a.944.944 0 00.153-.55v-.015a2.319 2.319 0 01-.453.54v-.012zm-7.929-.15l.039.117v-.135l-.039.017zm7.084-.032l.226.06c.126.03.252.056.387.08.129-.372.254-.746.375-1.124a1.773 1.773 0 00-.127-.118c-.285.39-.565.764-.867 1.114l.006-.012zm4.073-1.514a6.13 6.13 0 01-.5 1.594c.415-.157.8-.38 1.144-.66.288-.238.435-.466.448-.696.024-.35-.272-.648-.555-.81a1.59 1.59 0 00-.162-.082c0 .025-.012.053-.02.078a1.283 1.283 0 01-.361.588l.006-.012zm-1.2.476a1.5 1.5 0 01.018 1.106c.171-.077.32-.197.43-.348a1.105 1.105 0 00.15-.869 2.808 2.808 0 01-.218.062 2.284 2.284 0 01-.385.06l.006-.011zm-7.319 1.03a1.89 1.89 0 001.207-.114 1.83 1.83 0 00.563-.408c.003-.098.013-.195.029-.292-.01-.03-.022-.062-.03-.093a.812.812 0 01-.027-.114c-.175.06-.353.116-.531.167a1.934 1.934 0 01-1.064.82c-.05.018-.101.034-.153.046l.006-.012zm5.554-.827c-.085.267-.172.53-.263.793.158-.162.294-.343.404-.54a1.05 1.05 0 00-.147-.242l.006-.011zm-2.97-.515c.1.2.23.384.387.544a3.09 3.09 0 001.295.752c.318-.37.617-.758.894-1.16a3.292 3.292 0 00-.157-.1 2.63 2.63 0 01-.746-.32 3.433 3.433 0 00-.805-.135l-.097.05a7.02 7.02 0 01-.777.38l.006-.01zm-5.336.165c-.04.35-.016.704.068 1.046l.064-.035c-.02-.345-.01-.691.029-1.035-.06.018-.113.026-.167.035l.006-.011zm2.272 1.023c.195.024.392.01.58-.043.335-.1.63-.303.844-.58-.446.117-.898.209-1.354.275h-.072l-.14.276.142.072zM18.06 9.029a5.895 5.895 0 00-.037.967c.272-.117.557-.203.849-.255l-.08-.077a2.514 2.514 0 01-.471-.644l-.261.01zm1.436.791c.07.047.14.091.21.13.03-.056.06-.112.088-.168l-.096.013-.202.025zm3.06-.193c.055.086.12.166.193.238v-.053c-.02-.11-.047-.22-.08-.328l-.113.143zm-7.448-1.74a2.4 2.4 0 00.472 1.425c.147.193.32.367.513.514.124-.2.289-.373.483-.507a2.63 2.63 0 01.994-.386c.026-.154.064-.305.113-.453a11.658 11.658 0 01-2.584-.588l.01-.006zm3.528 1.104c.188.26.412.494.665.692.124-.02.25-.035.375-.05l.21-.03.163-.334.057-.114a1.607 1.607 0 01-.613-.257 8.053 8.053 0 01-.867.098l.01-.005zm1.651.18c-.029.055-.056.113-.085.172l-.114.234a12.123 12.123 0 001.493-.32 4.75 4.75 0 00.538-1.23l.067-.228c.103-.374.228-.742.374-1.102a1.503 1.503 0 00-.07-.12 4.554 4.554 0 00-.387.238c-.015.02-.03.04-.048.06 0 .318-.063.632-.184.926-.284.702-.874 1.37-1.582 1.37h-.002zm5.802.063c.075.08.14.17.193.265l.091-.166c.031-.056.087-.163.134-.244h-.356l-.062.145zm-3.641.194a.161.161 0 00.015.036c.04-.06.08-.123.116-.193-.015-.046-.033-.09-.048-.137-.041.095-.07.195-.09.297l.007-.003zm-.194-1.267a5.176 5.176 0 01-.433 1.027c.126-.039.25-.08.373-.122a1.432 1.432 0 01.099-.611.931.931 0 01-.047-.29l.008-.004zm3.643.886l.06.052.014-.043-.073-.01zm1.741-.134c.031.048.06.098.085.15a2.32 2.32 0 00.406-.043c.073-.016.144-.037.213-.062a2.242 2.242 0 00-.149-.37c-.168.143-.36.254-.567.33l.012-.005zm-.427.118c.105.015.21.025.317.03a1.4 1.4 0 00-.056-.092 2.57 2.57 0 01-.273.066l.012-.004zm-4.82-.28a1.15 1.15 0 00-.023.257l.049-.02.036-.069-.062-.168zm-1.684-.387a12.23 12.23 0 00-.333.628c.592-.052 1.09-.642 1.339-1.258a2.45 2.45 0 00.164-.648 5.026 5.026 0 01-.795.789 1.498 1.498 0 01-.387.499l.012-.01zm-.967.478c.132.074.276.123.426.145h.025c.065-.136.133-.27.193-.403a1.937 1.937 0 01-.245.12c-.134.06-.273.11-.414.147l.015-.01zm6.473-.016c.13.039.257.07.377.097.093-.158.2-.307.32-.445l.028-.03a3.067 3.067 0 00-.493-.289l-.056.087c-.058.193-.116.387-.176.58zm.86-.274l-.036.038a3.02 3.02 0 00-.242.323c.19-.01.377-.04.56-.087a2.19 2.19 0 00-.282-.273v-.001zm-9.226-.047a2.647 2.647 0 00-.107.404c.053 0 .107-.015.16-.023.018-.124.042-.245.069-.37l-.122-.01zm4.939.26a.867.867 0 00-.124.129l.095-.037.029-.093zm5.537-.302c.072.136.132.28.177.427.12-.058.231-.131.331-.219.018-.114.033-.23.045-.344a.387.387 0 01-.124.037.218.218 0 01-.203-.1l-.023-.033.05-.157a1.437 1.437 0 01-.224.354l-.03.035zm-10.184.077a4.718 4.718 0 00-.064.329l.174-.016a3.71 3.71 0 01-.112-.313h.002zm7.403.267c.077.02.154.037.232.052a1.652 1.652 0 01-.888-.806 1.407 1.407 0 01-.081-.24 2.068 2.068 0 01-.364.36c.101.122.22.228.354.315.245.074.482.174.706.298l.04.02zm-7.19-.261c.05.099.106.195.166.288h.015a9.01 9.01 0 00.75-.07l-.144-.106-.145-.108c-.205.005-.42.005-.644-.004h.002zm7.689.224h.013l.014-.044-.03.044h.003zm1.16-.334c.12.1.23.214.327.338a1.68 1.68 0 00.58-.34 2.907 2.907 0 00-.226-.335l-.033-.043c-.24.085-.461.215-.652.383l.004-.003zm-4.23.307l.012.025c.194-.081.377-.166.561-.257-.188.008-.372.05-.545.124-.014.036-.022.071-.031.108h.004zm-.5-.267c.027.093.06.194.093.277a.79.79 0 01.121-.12l.049-.04a2.44 2.44 0 01-.091-.424c-.07.095-.13.198-.176.307h.004zm-3.216.052c.089.068.178.136.267.194a2.84 2.84 0 00.549-.163 1.86 1.86 0 00.497-.298l.058-.1a3.796 3.796 0 01-1.375.367h.004zm5.709-.814c.015.093.043.183.08.269a1.5 1.5 0 00.836.723c.12-.176.238-.354.356-.532l.029-.096-.099-.04a5.293 5.293 0 00-1.206-.324h.003zm4.095.46c0 .091-.013.182-.025.273a.978.978 0 00.169-.408l-.045-.013a.697.697 0 01-.102.148h.003zm-6.012-.411c0 .056.01.11.012.166.006.17-.004.34-.03.508.19-.063.39-.097.59-.1h.262c.112-.059.22-.123.326-.193-.075-.12-.13-.25-.164-.387 0-.031-.015-.062-.021-.091a5.334 5.334 0 00-.975.097zm-.253.212c.008.15.03.3.067.445a2.69 2.69 0 00.027-.485v-.056c-.034.03-.065.063-.094.096zm1.382.387c.08 0 .159.021.238.035a1.278 1.278 0 01-.108-.122l-.13.087zm-5.91.01c.167.009.327.013.482.011a1.398 1.398 0 00-.495-.193h-.017v.027c0 .048.02.097.032.143-.002-.004-.002.004-.002.012zm.028-.356c.272.062.527.184.746.358a3.535 3.535 0 001.775-.515c.053-.077.109-.153.167-.226.072-.292.105-.593.098-.893.003-.274.032-.547.087-.815a1.888 1.888 0 00-.57-.019 4.815 4.815 0 00-.607.265c-.377.19-.718.442-1.01.746-.298.318-.53.691-.683 1.099h-.003zm-.387.327h.096l.035-.12a.25.25 0 010-.037.097.097 0 00-.03.017.315.315 0 00-.095.14h-.006zm8.627-.325c.183.087.358.191.522.311a2.09 2.09 0 01.667-.406c-.193-.193-.503-.425-.806-.298a.984.984 0 00-.377.393h-.006zm-11.43-.306l.045.018a11.53 11.53 0 002.586.595.538.538 0 01.162-.238.427.427 0 01.097-.052 2.615 2.615 0 01-.018-.168 1.671 1.671 0 01.014-.277 2.664 2.664 0 01.133-.899 2.2 2.2 0 01.888-1.104c-.14 0-.28-.017-.418-.027a7.858 7.858 0 00-3.305 1.398 2.345 2.345 0 00-.184.754zm12.92.292c.076.097.145.197.208.302.092-.11.165-.234.216-.367a2.1 2.1 0 00-.423.065zm.691.194a.04.04 0 00.021 0 .275.275 0 00.155-.091v-.14l-.102-.013-.074.244zm-6.095-.3a.362.362 0 00-.178.174.342.342 0 00-.027.126c.06-.1.128-.195.205-.283v-.017zm1.576-.24a1.18 1.18 0 00.147.379c.13-.102.246-.22.346-.352a4.692 4.692 0 00-.493-.033v.006zm-1.547-.744c-.122.303-.217.626-.312.945l-.027.093a.617.617 0 01.312-.244c0-.044 0-.087.013-.131a2.14 2.14 0 01.099-.447c-.02-.08-.053-.153-.083-.222l-.002.006zm2.32.636c.43.062.853.174 1.257.334l.082.035.034-.116a.415.415 0 00.018-.26c-.047-.101-.194-.134-.33-.154-.179-.023-.363-.05-.55-.071l-.052.021-.01-.027a7.47 7.47 0 00-.364-.031c-.017.09-.046.179-.085.263v.006zm2.127-.126c.333 0 .631.26.801.445a2.32 2.32 0 01.598-.095 1.907 1.907 0 00-.279-1.44 4.315 4.315 0 00-.748-.418l-.064-.012a2.25 2.25 0 01-.538.665 4.02 4.02 0 01-1.057.613l.243.033a.539.539 0 01.46.257c.036.086.043.18.02.27a.837.837 0 01.325-.27.606.606 0 01.247-.054l-.008.006zm-8.94.174c0 .085 0 .17.016.26.156-.387.383-.74.667-1.045.305-.315.66-.576 1.052-.774-.36.08-.702.23-1.006.44a1.76 1.76 0 00-.721 1.113l-.008.006zm10.882-.371v.097c.014.164.018.326.018.489l.108-.225a1.526 1.526 0 00-.118-.367l-.008.006zm-.193.565h.052v-.165l-.052.165zm-.3-1.198c.16.37.204.78.128 1.174l.193-.58a1.936 1.936 0 00-.058-.307 2.07 2.07 0 00-.089-.105c-.03-.035-.11-.131-.17-.187l-.004.005zm-5.722.863c0 .046-.016.093-.022.141v.052l.055-.013a1.737 1.737 0 00-.03-.186l-.003.006zm-7.792-.29c-.102.099-.215.242-.162.37.015.036.04.067.073.09a2.4 2.4 0 01.09-.46zm8.975.157c-.152.029-.301.07-.447.123a1.746 1.746 0 00-.193.09c.213-.03.427-.047.642-.053a1.103 1.103 0 01-.002-.16zm.166.158c.194 0 .399.014.596.035-.001-.085.003-.17.014-.253a4.179 4.179 0 00-.604.032 1.494 1.494 0 00-.006.186zm-1.264-.356c.038.114.068.23.09.348l.047-.061a.968.968 0 00.128-.815 2.44 2.44 0 00-.265.528zm6.188-.135c.075.115.136.238.182.367l.321-.657c.136-.237.22-.501.244-.774 0-.818-1.05-1.21-1.503-1.342a4.363 4.363 0 00-.92-.18c.109.214.169.45.175.689.005.13-.009.26-.04.387.102.057.2.122.294.193l.358.023c.352.023.837.1.984.486a.997.997 0 01-.054.682l-.04.126zm-7.774-1.013a3.98 3.98 0 00-.064.758c-.002.205-.015.41-.038.615.197-.215.414-.409.65-.58a.916.916 0 00-.341-.68.865.865 0 00-.207-.113zm1.973.452c.105.279.105.586 0 .865a4.6 4.6 0 00.814-.403 1.84 1.84 0 01.386-.58 2.01 2.01 0 00-.456-.296c-.14.031-.284.07-.43.112a2.27 2.27 0 00-.314.302zm.73.704l-.032.02h.03l.003-.02zm1.037-.029c.132 0 .261.021.387.035.472-.16.913-.398 1.305-.706.188-.16.347-.352.468-.567a3.9 3.9 0 00-1.84.06c-.05.11-.096.225-.142.339-.075.193-.15.386-.207.58.016.068.025.137.027.207l.002.052zm-.822-.106c-.015.04-.027.08-.038.121.198-.022.397-.031.597-.027a3.55 3.55 0 01.06-.253 1.001 1.001 0 00-.14-.29 2.196 2.196 0 01-.471.449h-.008zm-4.914-1.412a2.08 2.08 0 00-1.104 1.354 2.08 2.08 0 01.565-.61 3.514 3.514 0 011.647-.58l.109-.011c.24-.084.488-.148.738-.194l.012-.021a2.04 2.04 0 00-.476-.153h-.23c-.4.15-.825.223-1.253.215h-.008zm3.412 1.112c.03.062.06.124.087.193.076-.174.172-.339.286-.49-.014-.032-.03-.06-.045-.092l-.156.066a3.026 3.026 0 00-.172.323zm6.229.089c.006.01.013.018.02.027a.873.873 0 00.057-.565c-.112-.296-.532-.358-.837-.387h-.136l.058.062c.28.103.522.289.693.534.062.103.111.213.145.329zm-7.602-.967a.996.996 0 01.657.824c.089-.109.18-.219.273-.327a2.653 2.653 0 00-.7-.64c-.062 0-.126.017-.194.029-.01.025-.023.068-.04.106l.004.008zm-3.653-.31a3.241 3.241 0 00-.898.109 2.41 2.41 0 00-1.342 1.002 7.794 7.794 0 012.5-1.105 2.511 2.511 0 00-.26-.013v.008zm6.905.91a1.59 1.59 0 00-.154.193c.056-.06.108-.125.154-.194zm.211-.012c.045.06.084.126.118.193.046-.13.095-.257.147-.387l.076-.193a1.942 1.942 0 00-.223.124 1.34 1.34 0 01-.118.255v.008zm-2.197.097v.011l.01-.021-.01.01zm-.11-.194c.01.014.02.027.027.04.085-.042.168-.082.252-.12a2.33 2.33 0 01.12-.175 1.565 1.565 0 00-.074-.085 3.78 3.78 0 00-.325.34zm.712-.075l.011-.014-.011.014zm-1.366-.598c.207.153.392.333.55.536.098-.11.193-.217.305-.32a1.816 1.816 0 00-.37-.238c-.165 0-.33.01-.494.028l.01-.006zm2.437.3c.115.068.223.146.323.234.058-.052.12-.1.184-.145.015-.058.029-.116.038-.174-.118.015-.234.03-.35.05l-.195.035zm-1.174.122l.018.027c.131-.049.259-.093.386-.132.047-.038.095-.075.145-.11h-.017a4.98 4.98 0 00-.242-.07 2.11 2.11 0 00-.3.29l.01-.005zm-.158-.194l.054.064c.06-.07.124-.134.193-.193l-.064-.014c-.07.043-.135.09-.193.14l.01.003zm2.051-.023v.068c.042-.023.084-.044.128-.062l.047-.021-.175.015zm-1.425-.193l.114.035c.122.037.24.082.356.135a9.83 9.83 0 01.791-.133 1.084 1.084 0 00-.052-.366 2.301 2.301 0 00-1.218.329h.01zm-2.454.102l.068.014v-.031l-.068.017zm1.59-.096l.03.023.084.066.077-.066c-.073-.008-.137-.018-.2-.023h.009zm2.255-.335a1.334 1.334 0 01.044.346l.31-.025c.046-.097.092-.193.143-.28a4.64 4.64 0 00-.507-.041h.01zm2.537.336h.02l-.018-.011-.002.011zm-.244-.013h.064l.031-.085a3.996 3.996 0 00-1.568-.408l-.05.075a8.726 8.726 0 011.514.418h.01zm-1.616-.255a4.109 4.109 0 00-.128.241c.375-.019.752-.02 1.127-.011a9.874 9.874 0 00-1.01-.23h.01zm-2.321.193h.035c.08-.06.165-.113.253-.16l-.193.092a1.75 1.75 0 01-.105.072l.01-.004zm-.954-.124c.239.01.476.036.71.08.084-.06.171-.115.261-.165a3.389 3.389 0 011.257-.367.716.716 0 00-.172-.134 1.512 1.512 0 00-.675-.137c-.694-.029-1.56.05-2.065.528.232.038.459.105.675.2l.01-.005zm-.837-.011l.085.048c.081-.009.163-.017.244-.023a3.3 3.3 0 00-.306-.058l-.023.033zm4.38-.449a4.071 4.071 0 011.484.396 1.43 1.43 0 00.027-.292 1.518 1.518 0 00-.203-.7 1.74 1.74 0 00-.786.174A1.648 1.648 0 0025.93 5h.005zm-5.028.193c.201.003.402.016.602.04.532-.602 1.506-.701 2.28-.67.258-.005.514.05.748.159a.892.892 0 01.294.263c.149-.01.286-.014.412-.016.169 0 .331.004.487.012a1.91 1.91 0 01.652-.56c.235-.116.492-.182.754-.193a2.26 2.26 0 00-.58-.555c-.692-.47-1.636-.669-2.81-.591-.967.062-1.619.344-1.947.839a2.95 2.95 0 00-.203.387c-.06.143-.132.282-.215.414a1.603 1.603 0 01-.482.475l.008-.004zm4.061-.046c.207.004.413.022.617.054a.979.979 0 01.037-.058h-.371c-.1.01-.196.01-.296.01l.013-.006z" fill="#fff"/><path d="M42.014 28.399a2.435 2.435 0 00-3.249 1.147l-.063.135-.091.193-.11.223-.233.454c-.16.302-.319.606-.49.896.133-.447.278-.896.427-1.342.148-.447.309-.938.473-1.406.32-.934.666-1.884.989-2.807l.011-.03a1.216 1.216 0 00-2.137-1.112c-.62.866-1.16 1.74-1.7 2.634-.54.893-1.023 1.82-1.489 2.769a28.061 28.061 0 00-1.251 2.978 19.106 19.106 0 00-.485 1.644 9.57 9.57 0 00-.271 1.899 2.098 2.098 0 001.717 2.146l.159.03c.67.12 1.356.111 2.023-.026a6.175 6.175 0 001.74-.66 9.236 9.236 0 002.406-1.99c.313-.349.606-.716.878-1.1.265-.373.518-.746.744-1.13.227-.386.447-.774.642-1.161.099-.194.194-.397.288-.602l.134-.31.145-.353a2.441 2.441 0 00-1.207-3.12z" fill="#263238"/><path d="M37.49 22.292l-.053.966c-.016.386.05.77.194 1.128l.386.992a1.283 1.283 0 002.015.512c.253-.212.413-.515.447-.843a5.005 5.005 0 00-.133-1.477l-.108-1.228a.853.853 0 00-.788-.774l-1.046-.079a.857.857 0 00-.915.803z" fill="#FFB573"/><path opacity=".2" d="M40.348 23.568l-.108-1.226a.855.855 0 00-.785-.774l-1.014-.077c-.114 1.582.696 3.342 1.584 4.41a1.236 1.236 0 00.455-.854 4.956 4.956 0 00-.132-1.479z" fill="#000"/><path d="M49.052 26.258c-2.793.209-6.29.437-8.797 1.63-1.238.59-1.57 1.83-1.387 3.19.292 2.157.543 3.88 1.081 5.702 1.245 4.202-1.251 7.212 1.547 10.466 1.228 1.396 8.757 2.708 14.088.956.774-3.182-.226-11.093-1.295-18.295-.373-2.543-2.67-3.84-5.237-3.649z" fill="#2196F3"/><path d="M45.586 22.876c.135 1.183.721 2.92 1.723 3.461a.775.775 0 01.141 1.257c-.59.517-1.5.967-2.723 1.22-1.593.326-1.933-.156-1.91-.651a1.16 1.16 0 01.278-.646c.515-.634 0-1.127-.319-1.499l2.81-3.142z" fill="#FFB573"/><path opacity=".2" d="M44.871 24.66a1.936 1.936 0 00-.104-.193l-1.988 1.557c.193.242.495.537.532.887 1.027-.616 1.862-1.609 1.56-2.25z" fill="#000"/><path d="M32.482 65.471c.387-.397 2.847-1.16 2.847-1.16a48.739 48.739 0 011.594 5.654l-3.186.325s-.527-3.227-1.255-4.819z" fill="#FFB573"/><path d="M46.569 45.69c-9.211.13-21.333-.362-18.478 8.033 1.222 3.593 1.123 4.914 2.552 9.267.616 1.874.824 2.425 1.271 3.723.49 1.16 3.421.947 4.504.493 1.301-.693.193-2.563.048-3.615-.74-5.136.797-7.099-.82-10.466 2.94.426 11.203.128 12.433-4.923 0 0 1.694-2.014-1.51-2.513z" fill="#263238"/><path d="M32.664 67.332l.387.773a.242.242 0 00.257.13c.523-.091 2.077-.34 2.982-.23a.243.243 0 00.27-.227c.017-.305.013-.702.009-.951a.245.245 0 00-.244-.238 17.701 17.701 0 00-3.504.387.244.244 0 00-.157.356z" fill="#2196F3"/><path d="M37.606 71.988l-.333-2.245a.224.224 0 00-.236-.172l-3.266.013a1.205 1.205 0 00-.743.194c-.735.607-1.874 1.189-3.53 1.51-.523.103-.3 1.143.927 1.137 2.03-.01 1.946-.073 3.674-.08 1.482 0 1.853.069 3.029.08a.445.445 0 00.478-.437z" fill="#263238"/><path d="M44.452 19.77c.864 1.98 1.471 3.094 1.009 4.641-.692 2.338-3.5 2.864-4.937 1.228-1.292-1.473-2.49-4.467-1.01-6.34 1.458-1.84 4.073-1.511 4.938.47z" fill="#FFB573"/><path d="M42.861 24.531a2.05 2.05 0 01.32.018.055.055 0 01.036.021.055.055 0 01.01.042.052.052 0 01-.02.037.053.053 0 01-.042.01 1.502 1.502 0 00-1.306.412.056.056 0 01-.09-.018.055.055 0 010-.042.054.054 0 01.011-.018 1.563 1.563 0 011.081-.462zm-.891-2.361c-.098.056-.106.224-.02.375l.357-.207c-.087-.15-.238-.226-.337-.168zm-1.85 1.05c-.1.056-.109.224-.02.375l.356-.207c-.099-.15-.248-.226-.337-.168zm1.366-1.99a.103.103 0 01.107-.037.807.807 0 00.723-.145.102.102 0 01.112-.022.101.101 0 01.056.055.103.103 0 01-.023.112 1.014 1.014 0 01-.913.194.103.103 0 01-.073-.124.11.11 0 01.011-.033zm-1.609.909a.092.092 0 01.068-.017.102.102 0 01.093.11 1.012 1.012 0 01-.48.8.103.103 0 01-.127-.154.102.102 0 01.03-.026.81.81 0 00.372-.638.104.104 0 01.044-.075z" fill="#263238"/><path opacity=".2" d="M40.524 23.33a.896.896 0 01-.374.774c.902-.147.374-.774.374-.774zm1.203-.669a.892.892 0 00.849.02c-.491.62-.85-.02-.85-.02z" fill="#000"/><path d="M46.086 19.835c-.097-.893-.333-1.56-.646-2.013.136.044.277.075.42.093-.797-1.209-2.097-.982-2.515-.493-.508-1.112-1.228-.37-2.046-.228-.818.14-2.34-.45-2.34-.45s.335.58.88.668c-1.058.478-1.448 1.3-1.729 1.934-.28.634-1.131 1.394-1.131 1.394a1.45 1.45 0 00.967-.355c-.106.645-.553 1.85-.774 2.127.58-.194 1.124-.903 1.124-.903s.104 1.16.65 1.945c-.112-1.003 1.495-3.013 1.495-3.013-.072.431-.072.87 0 1.302.725-.613 1.906-2.62 1.906-2.62.015.583.098 1.162.246 1.726a2.39 2.39 0 01.414-.934c-.213.72.329 2.383.329 2.383-.028-.435 0-.87.083-1.298.153.495 1.09 1.04 1.475 1.097-.003.004 1.464.118 1.192-2.362z" fill="#263238"/><path d="M46.066 21.638a2 2 0 01-.66 1.373c-.527.462-1.091.066-1.198-.58-.097-.59.06-1.547.708-1.75.648-.203 1.181.311 1.15.957z" fill="#FFB573"/><path d="M41.036 23.115s.292 1.043.236 1.693c.423.044.773-.376.773-.376l-1.01-1.317z" fill="#ED893E"/><path opacity=".2" d="M39.972 53.152a46.972 46.972 0 00-.49-3.821 5.63 5.63 0 00-.554-1.657c-6.188-.824-6.735 4.32-2.645 14.1-.217-3.841.773-5.711-.635-8.649a18.88 18.88 0 004.324.027zM45.34 21.33l.413.857c.16.325.242.684.24 1.046l-.022.967a1.006 1.006 0 01-.804.942 1.63 1.63 0 01-1.783-.756 4.398 4.398 0 01-.42-1.354l-.35-1.121a.656.656 0 01.495-.851l1.015-.275a1.091 1.091 0 011.217.546z" fill="#000"/><path d="M45.577 21.445l.317.914c.127.363.174.749.137 1.131l-.102 1.064a1.279 1.279 0 01-.84 1.083 1.274 1.274 0 01-1.622-.717 4.95 4.95 0 01-.282-1.457l-.236-1.21a.855.855 0 01.54-.967l.984-.366a.855.855 0 011.104.524z" fill="#FFB573"/><path d="M52.096 27.366a2.43 2.43 0 00-2.95 1.766l-.047.193-.09.364-.11.41c-.079.28-.156.562-.247.84a17.197 17.197 0 01-.592 1.604l-.012.027a31.638 31.638 0 01-.591-2.01 44.253 44.253 0 01-.373-1.473c-.117-.495-.24-.994-.35-1.497-.229-.997-.442-2.022-.658-3.017v-.029a1.216 1.216 0 00-2.402.194 37.83 37.83 0 00-.037 3.241c.027 1.083.103 2.158.22 3.247.059.545.138 1.093.227 1.644.089.551.193 1.11.338 1.675.143.59.324 1.172.542 1.74.123.323.268.637.433.94.2.37.439.715.714 1.033a2.127 2.127 0 002.727.4l.131-.083a8.55 8.55 0 002.06-1.82c.27-.33.524-.674.76-1.03.226-.355.427-.71.617-1.07.187-.354.357-.717.508-1.087a15.327 15.327 0 00.745-2.222c.046-.193.094-.387.133-.58l.058-.28.058-.341a2.44 2.44 0 00-1.812-2.779z" fill="#263238"/><path d="M41.682 65.295c.338-.433 2.707-1.437 2.707-1.437a48.777 48.777 0 012.157 5.465l-3.137.64s-.841-3.154-1.727-4.668z" fill="#FFB573"/><path d="M47.75 45.073c-9.052.617-16.05.636-12.06 8.553 1.71 3.388 2.049 5.204 3.911 9.39.8 1.801 1.066 2.33 1.64 3.577.605 1.108 3.5.595 4.531.035 1.224-.822-.06-2.57-.317-3.601-1.255-5.028.025-6.825-1.893-10.03 2.964.154 10.796.256 12.026-4.795.002 0-1.473-3.13-7.838-3.13z" fill="#263238"/><path d="M42.053 67.13l.47.735a.243.243 0 00.27.103c.51-.143 2.031-.548 2.944-.532a.242.242 0 00.244-.252 13.36 13.36 0 00-.087-.945.242.242 0 00-.267-.213c-1.171.131-2.326.38-3.446.743a.242.242 0 00-.128.361z" fill="#2196F3"/><path d="M47.444 71.12l-.651-2.269a.22.22 0 00-.26-.135l-3.229.487c-.263.022-.51.13-.706.306a5.386 5.386 0 01-3.187 1.793c-.522.102-.3 1.143.926 1.137 2.033-.01 1.944-.269 3.657-.518 1.296-.194 1.845-.194 3.017-.306a.445.445 0 00.433-.495z" fill="#263238"/></svg>