<svg width="73" height="73" fill="none" xmlns="http://www.w3.org/2000/svg"><path d="M31.944 2.75c.846-2.534 5.172-2.019 7.34-.336 2.169 1.683 5.448 2.678 6.416 2.003-2.139 2.657-6.102 3.581-8.69 2.95-2.589-.632-6.001-1.846-5.066-4.617zm13.113 3.259a.073.073 0 01-.074-.072.072.072 0 01.02-.051.07.07 0 01.024-.016c.496-.222 1.158-.208 1.857-.195.884.02 1.8.035 2.358-.45a.073.073 0 01.095.111c-.602.523-1.545.504-2.458.485-.683-.013-1.329-.027-1.792.182l-.03.006zm-.483-2.451a.073.073 0 010-.143 1.879 1.879 0 00.972-.372.068.068 0 01.077.017.071.071 0 01.016.077.071.071 0 01-.016.023 1.952 1.952 0 01-1.027.39l-.022.008z" fill="#263238"/><path d="M29.94 2.743c1.982-.616 3.435-.328 3.679.558.254.93-1.006 1.545-1.442 1.515-.437-.03-2.237-2.073-2.237-2.073z" fill="#2196F3"/><path d="M24.132 9.345c-1.155-.542-1.605-2.49-1.125-3.253-1.247-.21-.035-5.044 5.83-4.204 5.866.84 4.557 6.403 2.83 6.97.632.837-1.42 3.447-3.862 2.233-2.443-1.215-3.673-1.746-3.673-1.746z" fill="#263238"/><path d="M17.786 26.617l-1.448-.795-.089 2.687s1.475.13 2.415-.437l-.054-.3a1.627 1.627 0 00-.824-1.155z" fill="#FFB573"/><path d="M15.003 27.018l.092.86a.715.715 0 00.732.642h.423l.09-2.687-.947.478a.724.724 0 00-.39.707zm13.035-8.801v1.111c0 .352-.03.702-.057 1.052-.054.7-.144 1.396-.27 2.087-.127.699-.297 1.39-.508 2.068-.208.693-.466 1.37-.772 2.025l-.247.493a3.73 3.73 0 01-.2.369 2.39 2.39 0 01-.415.471 3.307 3.307 0 01-1.464.705 8.763 8.763 0 01-2.268.187 19.54 19.54 0 01-4.066-.585.814.814 0 01.151-1.602h.03c1.266-.068 2.567-.146 3.768-.312a7.777 7.777 0 001.613-.363c.203-.07.358-.203.27-.163a.374.374 0 00-.097.1c-.07.12 0-.021 0-.073l.16-.4c.4-1.119.68-2.275.84-3.451a26.678 26.678 0 00.252-2.716v-.944a1.626 1.626 0 113.253-.048l.027-.011z" fill="#FFB573"/><path d="M29.775 27.235s-3.047 11.278-5.009 18.84c-1.976 6.907-5.093 23.634-5.093 23.634l1.759.43s5.841-10.3 7.728-21.955c7.35-10.346 8.213-18.388 8.213-18.388l-7.598-2.561z" fill="#2196F3"/><path opacity=".2" d="M35.255 32.656c-.393.187-1.25 2.502-.374 5.421a41.06 41.06 0 001.814-5.128l-1.44-.293z" fill="#000"/><path d="M41.525 46.154c3.811-16.857-2.567-19.337-2.567-19.337l-.447.07c-2.55 1.627-4.567 6.235-3.212 9.084-.04 2.31-.179 7.302.271 10.525.244 1.778.358 3.282 2.594 4.022 2.236.74 9.663 1.247 15.776 4.093l.292-2.111s-8.064-6.386-12.707-6.346z" fill="#2196F3"/><path d="M56.723 52.857c-.623.052-1.06.182-2.897-.913 0 0-.984 1.851-.881 2.588 1.266.543 3.938 2.624 3.559 4.202-.214.9.83.664 1.084.027.615-1.586-.111-2.613.038-3.559.127-.813.35-.973.374-1.626.008-.556-.65-.77-1.277-.719z" fill="#263238"/><path d="M38.959 26.817c-.51-2.564-2.589-6.201-3.64-12.05a2.324 2.324 0 00-2.936-1.822c-.355.103-.726.22-1.103.35-1.327.427-2.621.95-3.873 1.56-.402.21-.814.434-1.201.66a3.153 3.153 0 00-1.296 4.035c.374.813-.168 3.296 1.92 3.763.875 1.626 2.317.975 2.943 3.946 0 4.14 4.39 8.945 5.527 8.723-.67-6.462 3.659-9.165 3.659-9.165z" fill="#2196F3"/><path opacity=".4" d="M38.959 26.817c-.51-2.564-2.589-6.201-3.64-12.05a2.324 2.324 0 00-2.936-1.822c-.355.103-.726.22-1.103.35-1.327.427-2.621.95-3.873 1.56-.402.21-.814.434-1.201.66a3.153 3.153 0 00-1.296 4.035c.374.813-.168 3.296 1.92 3.763.875 1.626 2.317.975 2.943 3.946 0 4.14 4.39 8.945 5.527 8.723-.67-6.462 3.659-9.165 3.659-9.165z" fill="#fff"/><path d="M34.605 25.681l-1.626.272 1.602 2.168s1.233-.813 1.626-1.846l-.227-.203a1.649 1.649 0 00-1.375-.39zm-1.93 2.044l.605.616a.716.716 0 00.973.049l.325-.272-1.602-2.168-.441.962a.718.718 0 00.14.813z" fill="#FFB573"/><path opacity=".3" d="M35.538 15.878l-2.78-.673c.484 1.207 2.184 3.012 3.653 4.036a38.633 38.633 0 01-.873-3.363z" fill="#2196F3"/><path d="M34.383 13.273c.201.106.345.187.507.271.163.084.307.187.459.285a22 22 0 01.883.596c.577.416 1.13.863 1.659 1.339a15.943 15.943 0 012.814 3.282l.149.23.038.06c.035.06.07.12.1.18.06.116.11.239.146.365.109.393.116.807.022 1.204-.124.472-.33.918-.607 1.32-.421.613-.904 1.18-1.442 1.694a22.012 22.012 0 01-3.223 2.564.813.813 0 01-1.065-1.204l.019-.021c.829-.973 1.675-1.976 2.41-2.982.35-.459.66-.947.929-1.458.088-.15.144-.318.163-.49 0-.017-.038.04 0 .224a.883.883 0 00.09.209l-.033-.04-.136-.174-.271-.344-.29-.331c-.187-.228-.404-.434-.605-.65a21.802 21.802 0 00-1.33-1.212 26.106 26.106 0 00-1.445-1.106c-.25-.176-.499-.35-.754-.512l-.376-.239-.35-.214-.079-.049a1.626 1.626 0 011.613-2.819l.005.022z" fill="#FFB573"/><path d="M22.105 71.02c0-.633-.209-.71.813-2.905 0 0-2.675-.78-3.196-.412-.216 1.377-1.298 3.025-3.304 2.602-.892-.187-.954.542-.339.813 1.537.659 2.668.507 3.6.664.794.136 1.046.38 1.697.418.54.03.737-.545.729-1.18z" fill="#263238"/><path d="M27.406 14.845s-1.217 1.662 1.014 3.716c.412-2.04 2.854-5.264 2.854-5.264l-3.868 1.548z" fill="#fff"/><path opacity=".3" d="M29.178 21.814c2.11.653 4.56-.461 4.56-.461s-2.608 1.865-4.56.46z" fill="#2196F3"/><path d="M29.138 9.074c.257 1.355.935 3.724 2.141 4.204 0 0-2.41 2.426-3.017 4.37-1.718-1.703-.856-2.809-.856-2.809 1.258-.891.813-1.897.173-2.778l1.559-2.987z" fill="#FFB573"/><path opacity=".2" d="M28.504 10.296l-.924 1.76c.151.2.284.414.396.64.501-.29.995-1.166.813-1.746a2.033 2.033 0 00-.285-.653z" fill="#000"/><path d="M29.531 6.263c.33 2.223.518 3.155-.33 4.51-1.28 2.042-3.912 1.884-4.88-.197-.878-1.876-1.393-5.131.529-6.449 1.922-1.317 4.35-.086 4.681 2.136z" fill="#FFB573"/><path d="M23.318 4.664c1.97.992 4.156.052 5.066 1.098.911 1.046 2.556 2.9 3.906 2.28-.924-2.96-5.537-6.845-8.972-3.378zm4.83 4.952a19.12 19.12 0 01-2.287.643c-.128-.299-.068-.664.864-.973 1.263-.426 1.423.33 1.423.33z" fill="#263238"/><path d="M26.734 9.277a1.602 1.602 0 00-.813.483 2.11 2.11 0 00.61-.1 3.794 3.794 0 001.084-.494 1.825 1.825 0 00-.881.111z" fill="#fff"/><path d="M28.051 9.646c-.09-.07-.206-.068-.474-.046a9.487 9.487 0 00-1.404.404c-.157.068-.271.135-.25.236.72-.162 1.43-.36 2.128-.594z" fill="#630F0F"/><path d="M26.988 7.228c.038.179-.027.344-.143.369-.117.024-.242-.1-.271-.271-.03-.171.027-.342.143-.366.117-.025.233.09.271.268zm-2.309.651c.038.179-.027.344-.144.368-.117.025-.241-.1-.271-.27-.03-.171.027-.345.144-.37.116-.024.233.093.27.272z" fill="#263238"/><path d="M24.454 7.6L24 7.566s.29.287.455.032z" fill="#263238"/><path d="M25.189 7.99c-.074.441-.208.87-.399 1.274a.786.786 0 00.664-.016L25.19 7.99z" fill="#ED893E"/><path d="M30.542 7.719a1.553 1.553 0 01-.718 1.046c-.485.27-.878-.236-.873-.849 0-.542.271-1.355.813-1.355.543 0 .892.594.778 1.158z" fill="#FFB573"/><path d="M26.685 5.94a.117.117 0 01-.084-.013.846.846 0 00-.77-.076.108.108 0 01-.155-.089.105.105 0 01.06-.103 1.06 1.06 0 01.976.087.103.103 0 01.035.146.111.111 0 01-.062.049zm-3.453 1.098a.111.111 0 01-.149-.132 1.065 1.065 0 01.686-.7.109.109 0 01.054.209.848.848 0 00-.542.558.109.109 0 01-.049.065zm3.532-.089l-.455-.032s.29.287.455.032z" fill="#263238"/><path d="M24.083 4.675c0 1.022 1.86 1.705 2.822 1.67-1 .227-3.028.064-3.31-1.42.062-.248.488-.25.488-.25zM40.959 3.58c.938.946 3.692.764 4.833.233-1.084.783-3.424 1.561-5.055.447-.16-.298.222-.68.222-.68z" fill="#263238"/></svg>