<svg width="73" height="73" fill="none" xmlns="http://www.w3.org/2000/svg"><g clip-path="url(#clip0_74_8665)"><path d="M26.445 70.306h-2.396l.382 2.334a.437.437 0 00.232.288 1.286 1.286 0 001.159 0 .432.432 0 00.235-.288l.388-2.334z" fill="#455A64"/><path d="M25.248 70.936c.664 0 1.203-.31 1.203-.694 0-.383-.539-.693-1.203-.693-.665 0-1.204.31-1.204.693 0 .383.539.694 1.204.694z" fill="#FAFAFA"/><path d="M14.255 63.215H11.86l.384 2.347a.425.425 0 00.232.288 1.274 1.274 0 001.16 0 .424.424 0 00.23-.288l.389-2.347z" fill="#455A64"/><path d="M12.208 62.661c-.47.273-.47.708 0 .982a1.87 1.87 0 001.7 0c.472-.27.472-.708 0-.982a1.88 1.88 0 00-1.7 0z" fill="#FAFAFA"/><path d="M61.19 52.724h-2.396l.384 2.338a.428.428 0 00.231.288 1.286 1.286 0 001.16 0 .426.426 0 00.231-.288l.39-2.338z" fill="#455A64"/><path d="M59.142 52.17c-.47.273-.47.709 0 .983a1.871 1.871 0 001.7 0c.47-.271.47-.708 0-.982a1.88 1.88 0 00-1.7 0zm-10.14-6.535h-2.396l.387 2.338a.44.44 0 00.234.288 1.28 1.28 0 001.157 0 .435.435 0 00.234-.288l.384-2.338z" fill="#FAFAFA"/><path d="M46.953 45.081c-.47.271-.47.708 0 .983a1.884 1.884 0 001.702 0c.469-.271.469-.708 0-.983a1.886 1.886 0 00-1.702 0z" fill="#FAFAFA"/><path d="M63.096 40.443v11.16a2.575 2.575 0 01-1.162 2.012l-.947.548h-.016a2.62 2.62 0 01-1.451.25L30.712 70.39a2.6 2.6 0 01-1.149 1.933h-.01l-.945.545a.527.527 0 01-.089.046.295.295 0 01-.048.023h-.014a2.654 2.654 0 01-2.005.009l-.032-.015a1.404 1.404 0 01-.136-.069l-15.12-8.717a2.57 2.57 0 01-1.157-2.01V43.42a2.579 2.579 0 011.162-2.012L44.5 22.15a2.571 2.571 0 012.324 0l.946.545a3.087 3.087 0 011.347 2.002l.912 6.85 11.918 6.884a2.575 2.575 0 011.15 2.012z" fill="#2196F3"/><path opacity=".35" d="M63.096 40.443v11.16a2.575 2.575 0 01-1.162 2.012l-.947.548h-.016a2.62 2.62 0 01-1.451.25L30.712 70.39a2.6 2.6 0 01-1.149 1.933h-.01l-.945.545a.527.527 0 01-.089.046.295.295 0 01-.048.023h-.014a2.654 2.654 0 01-2.005.009l-.032-.015a1.404 1.404 0 01-.136-.069l-15.12-8.717a2.57 2.57 0 01-1.157-2.01V43.42a2.579 2.579 0 011.162-2.012L44.5 22.15a2.571 2.571 0 012.324 0l.946.545a3.087 3.087 0 011.347 2.002l.912 6.85 11.918 6.884a2.575 2.575 0 011.15 2.012z" fill="#000"/><path d="M47.77 22.697l-.954-.547a2.572 2.572 0 00-2.324 0l-33.33 19.26c-.069.038-.143.092-.12.074a2.669 2.669 0 00-1.035 1.741c.086-.593.568-.807 1.148-.474l.947.547a2.575 2.575 0 002.325 0l33.342-19.26c.64-.37.64-.971 0-1.341z" fill="#2196F3"/><path opacity=".1" d="M47.77 22.697l-.954-.547a2.572 2.572 0 00-2.324 0l-33.33 19.26c-.069.038-.143.092-.12.074a2.669 2.669 0 00-1.035 1.741c.086-.593.568-.807 1.148-.474l.947.547a2.575 2.575 0 002.325 0l33.342-19.26c.64-.37.64-.971 0-1.341z" fill="#000"/><path d="M63.097 40.443v11.16a2.575 2.575 0 01-1.162 2.011l-.947.55h-.016c-.42.212-.892.302-1.36.257a2.285 2.285 0 01-.948-.265L47.91 47.943a2.576 2.576 0 01-1.162-2.012V34.778a2.562 2.562 0 011.162-2.012l2.106-1.22 11.919 6.885a2.573 2.573 0 011.162 2.012z" fill="#2196F3"/><path opacity=".45" d="M63.097 40.443v11.16a2.575 2.575 0 01-1.162 2.011l-.947.55h-.016c-.42.212-.892.302-1.36.257a2.285 2.285 0 01-.948-.265L47.91 47.943a2.576 2.576 0 01-1.162-2.012V34.778a2.562 2.562 0 011.162-2.012l2.106-1.22 11.919 6.885a2.573 2.573 0 011.162 2.012z" fill="#000"/><path d="M50.021 31.549l-2.107 1.215c-.64.37-.64.974 0 1.343l10.76 6.21a2.576 2.576 0 011.162 2.012v11.162c0 .738.522 1.04 1.16.67l.948-.547a2.577 2.577 0 001.153-2.012v-11.16a2.577 2.577 0 00-1.162-2.013L50.02 31.55z" fill="#2196F3"/><path opacity=".25" d="M50.021 31.549l-2.107 1.215c-.64.37-.64.974 0 1.343l10.76 6.21a2.576 2.576 0 011.162 2.012v11.162c0 .738.522 1.04 1.16.67l.948-.547a2.577 2.577 0 001.153-2.012v-11.16a2.577 2.577 0 00-1.162-2.013L50.02 31.55z" fill="#000"/><path d="M59.832 42.33v11.16c0 .739.523 1.041 1.161.671l.947-.546a2.576 2.576 0 001.157-2.012V40.44a2.381 2.381 0 00-.341-1.145l-3.27 1.889c.211.346.33.74.346 1.145z" fill="#2196F3"/><path opacity=".35" d="M59.832 42.33v11.16c0 .739.523 1.041 1.161.671l.947-.546a2.576 2.576 0 001.157-2.012V40.44a2.381 2.381 0 00-.341-1.145l-3.27 1.889c.211.346.33.74.346 1.145z" fill="#000"/><path d="M59.348 54.429a2.849 2.849 0 01-.424.639c-.246.276-.774.578-1.094.764L32.11 70.694a1.29 1.29 0 01-1.16 0l-3.779-2.184-7.56-4.364c-.64-.37-1.16-1.239-1.16-1.929s.52-1.56 1.16-1.929l4.288-2.477 3.272-1.885 18.15-10.492a2.581 2.581 0 012.323 0L58.4 51.645c.642.372 1.162 1.239 1.162 1.93-.01.297-.082.588-.214.854z" fill="#2196F3"/><path opacity=".55" d="M59.348 54.429a2.849 2.849 0 01-.424.639c-.246.276-.774.578-1.094.764L32.11 70.694a1.29 1.29 0 01-1.16 0l-3.779-2.184-7.56-4.364c-.64-.37-1.16-1.239-1.16-1.929s.52-1.56 1.16-1.929l4.288-2.477 3.272-1.885 18.15-10.492a2.581 2.581 0 012.323 0L58.4 51.645c.642.372 1.162 1.239 1.162 1.93-.01.297-.082.588-.214.854z" fill="#000"/><path d="M32.114 68.175l26.869-15.532c.32-.186.58-.035.58.336v1.175a1.283 1.283 0 01-.58 1.005l-26.87 15.535c-.321.177-.581.033-.581-.337v-1.175a1.291 1.291 0 01.582-1.007z" fill="#2196F3"/><path opacity=".35" d="M32.114 68.175l26.869-15.532c.32-.186.58-.035.58.336v1.175a1.283 1.283 0 01-.58 1.005l-26.87 15.535c-.321.177-.581.033-.581-.337v-1.175a1.291 1.291 0 01.582-1.007z" fill="#000"/><path d="M45.32 39.679L19.612 54.533a2.568 2.568 0 00-1.16 2.012v2.352a2.573 2.573 0 001.16 2.012l10.756 6.21a2.575 2.575 0 002.326 0L58.4 52.264a2.564 2.564 0 001.157-2.012v-2.351a2.563 2.563 0 00-1.163-2.013l-10.755-6.21a2.572 2.572 0 00-2.319 0z" fill="#2196F3"/><path opacity=".35" d="M45.32 39.679L19.612 54.533a2.568 2.568 0 00-1.16 2.012v2.352a2.573 2.573 0 001.16 2.012l10.756 6.21a2.575 2.575 0 002.326 0L58.4 52.264a2.564 2.564 0 001.157-2.012v-2.351a2.563 2.563 0 00-1.163-2.013l-10.755-6.21a2.572 2.572 0 00-2.319 0z" fill="#000"/><path opacity=".15" d="M31.533 62.36v5.037a2.378 2.378 0 01-1.163-.278l-10.758-6.21a2.57 2.57 0 01-1.16-2.012v-2.35a2.601 2.601 0 011.042-1.938c-.52.373-.48.92.118 1.265l10.758 6.21c.358.19.758.285 1.163.276z" fill="#000"/><path d="M32.694 62.084L58.4 47.23c.643-.37.643-.971 0-1.34l-10.755-6.21a2.571 2.571 0 00-2.324 0L19.613 54.532c-.64.37-.64.971 0 1.341l10.756 6.21a2.575 2.575 0 002.325 0z" fill="#2196F3"/><path opacity=".2" d="M32.694 62.084L58.4 47.23c.643-.37.643-.971 0-1.34l-10.755-6.21a2.571 2.571 0 00-2.324 0L19.613 54.532c-.64.37-.64.971 0 1.341l10.756 6.21a2.575 2.575 0 002.325 0z" fill="#000"/><path opacity=".2" d="M50.784 41.494a9.23 9.23 0 00-.578.237c-.837.401-1.636.875-2.39 1.416-.667.458-1.707.297-2.477.354-1.962.165-3.968.55-5.649 1.632-1.334.858-2.37 2.093-3.475 3.23a31.721 31.721 0 01-4.504 3.841c-1.706 1.195-3.476 2.032-5.389 2.842-.417.177-.893.427-.96.874-.057.377.205.717.449 1.007.59.692 1.22 1.505 1.996 1.996.814.515 2.028.777 2.973.885 1.039.126 2.124 0 3.047-.49.731-.396 1.331-1.016 2.085-1.368.72-.336 1.549-.41 2.248-.79.845-.461 1.398-1.309 1.916-2.124l1.77-2.788c.226-.395.511-.753.846-1.061.695-.576 1.663-.668 2.564-.684 1.593-.031 3.044-.426 4.56-.865 1.443-.416 2.872-.998 4.007-2.008a6.819 6.819 0 002-3.232l-5.039-2.904z" fill="#000"/><path d="M31.937 53.882c.53-.223 1.507-.26 1.89-.964.293-.544.056-1.002-.13-1.528-.286-.817.156-1.612.285-2.435.01-.051-2.431-.771-2.458-.695-.26.779-.616 2.003-.92 2.477a7.326 7.326 0 01-1.564 1.717c-.836.708-1.846 1.166-2.786 1.727-.157.094-.33.218-.345.4a.53.53 0 00.234.412c.591.47 1.34.697 2.091.634 1.549-.073 1.974-.61 2.377-.858.455-.276.839-.676 1.326-.887z" fill="#FFB573"/><path d="M44.024 40.079s-2.338-1.694-3.56-2.414c-.917-.544-1.714-1.035-2.363-1.27-2.738-.994-3.807.721-4.18 1.693-.345.895-2.722 10.743-2.722 10.743a6.33 6.33 0 002.778.8c.501-1.297 1.416-2.594 2.573-4.875.45-.947.771-1.95.958-2.98l4.424 4.045c4.247 3.902 10.372.428 10.924-2.115l-8.832-3.627z" fill="#37474F"/><path d="M44.492 31.139c-.53 1.09-1.338 6.21-1.338 7.046l2.832-1.707 1.447-7.194c-1.486.07-2.413.765-2.94 1.855z" fill="#FFB573"/><path d="M47.664 29.264c-.978-.102-1.9-.125-2.615.498-.384.334-.754 1.082-1.136 2.902-.337 1.601-.613 3.086-.613 3.086s.797.58 2.437.543l1.927-7.029z" fill="#455A64"/><path d="M52.767 29.432s1.71 1.098 2.05 7.364c.136 2.506-.424 5.84-1.54 7.985-1.296.456-7.585-.735-9.18-4.141 2.234-2.623 1.388-4.681 1.198-7.916-.125-2.124.572-3.43 2.368-3.46l3.563.012 1.541.156z" fill="#F5F5F5"/><path d="M52.768 29.432c1.699.227 2.012 1.19 2.5 2.816.489 1.626.428 6.62.221 7.8-.22 1.26-.787 1.936-3.008 1.37-1.695-.432-4.628-1.994-6.498-2.918l-.161-.563L52.684 39l-.493-5.408s.017-3.138.577-4.159z" fill="#FFB573"/><path d="M55.642 36.54v-.788c-.379.29-2.947 3.254-2.947 3.254l-3.431-.53-1.104-.178-2.327-.354.16.563c.8.395 1.793.906 2.8 1.396 1.593-.026 3.148-.092 3.771-.177 1.29-.166 2.393-.506 3.055-1.03a33.453 33.453 0 00.03-1.038v-.369c-.005-.244-.005-.492-.007-.75z" fill="#F28F8F"/><path d="M52.768 29.432s-.773.579-.65 3.087c.1 2.01.5 5.726.5 5.726a4.19 4.19 0 003.402-.53s-.164-3.271-.493-5.1c-.33-1.83-.409-3.057-2.76-3.183z" fill="#455A64"/><path d="M54.183 36.138c-.028.06-.064.132-.027.185a.177.177 0 00.138.055c.549.03 1.21-.6 1.567-.968l-.046-.516c.707-.057.653 1.923.205 2.815-.448.892-1.683 1.366-3.403 1.593-1.253.163-6.334.371-7.803.212-1.468-.16-1.71-.59-1.658-1.387l2.455-1.517c1.033.089 2.72.283 3.757.331.828.037 1.946.177 2.654-.016.3-.078.483-.34.708-.56.195-.197.393-.397.65-.611a9.07 9.07 0 01.971-.754.138.138 0 01.177.118.89.89 0 01-.081.591c-.126.213-.232.356-.264.429z" fill="#FFB573"/><path d="M49.182 25.069a2.908 2.908 0 10-4.732-3.38 2.908 2.908 0 004.732 3.38zm2.555-.473s-.217 2.123-.354 2.493a.943.943 0 01-.497.498l-.127-1.47.978-1.521z" fill="#263238"/><path d="M50.857 21.674a1.03 1.03 0 01.885.207c.405.333.329 1.524 0 2.717l-.825.186-.06-3.11z" fill="#263238"/><path d="M50.662 24.81c.177.081.382-.265.566-.504.184-.24.825-.607 1.239.065.414.673-.12 1.699-.629 1.933a.708.708 0 01-.847-.213l.231 3.11a.885.885 0 01-.159.587c-1.239 1.683-3.973 1.265-3.008-.103l-.112-1.028c-.4.11-.811.175-1.226.197-.685-.03-1.166-.515-1.448-1.221-.454-1.135-.683-2.066-.653-4.396.03-2.554 2.961-2.899 4.653-2.074 1.692.824 1.393 3.647 1.393 3.647z" fill="#FFB573"/><path d="M48.887 22.639a1.521 1.521 0 00.885.543.272.272 0 01.177.074.23.23 0 01.037.14c.022.335.063.67.124 1 .043.221.096.626.373.681a.355.355 0 00.308-.122c.177-.19.264-.45.437-.644.04-.06.06-.133.059-.205.055-.542-.124-1.145-.243-1.67a32.49 32.49 0 00-.159-.652c-.067-.273.035-.549.014-.832a1.041 1.041 0 00-.25-.634 1.218 1.218 0 00-.412-.27c-.638-.283-1.355-.322-2.042-.462-.39-.078-.77-.19-1.155-.285a1.398 1.398 0 00-.79-.032c-.25.089-.45.377-.354.623a1.001 1.001 0 00-1.102-.01.864.864 0 00-.407.925.607.607 0 00-.45.04.762.762 0 00-.353.43c-.135.422.148.776.445 1.04.321.285.692.509 1.094.66.288.107.592.166.9.177.46.003.916-.087 1.34-.264.218-.086.43-.187.634-.301.205-.113.396-.26.603-.368.088.144.184.284.287.418z" fill="#263238"/><path d="M50.876 21.851l.954-.653a.562.562 0 00-.794-.177.605.605 0 00-.16.83z" fill="#263238"/><path d="M47.951 28.657s1.283-.453 1.77-.79c.33-.224.513-.757.575-.972.055.381-.04.77-.267 1.08-.354.516-2.044 1.082-2.044 1.082l-.034-.4z" fill="#F28F8F"/><path d="M47.439 25.102a.305.305 0 00.334.28.316.316 0 10-.334-.28zm1.024-1.019l-.708-.205a.388.388 0 00.262.468.353.353 0 00.446-.263zm-3.09-.131l-.614.42a.355.355 0 00.508.107.388.388 0 00.106-.527zm-.24 1.306a.303.303 0 10.267-.354.306.306 0 00-.262.23.31.31 0 00-.005.124z" fill="#263238"/><path d="M46.52 24.91l.367 1.797-1.111.005.745-1.803z" fill="#F28F8F"/><path d="M48.026 26.909a.601.601 0 00-.53.07.646.646 0 00-.194.186c-.046.071-.1.177-.056.266.009.017.033.042.055.028a.42.42 0 00.07-.108.62.62 0 01.42-.318.336.336 0 01.094-.01.14.14 0 01.039 0h.019c.037.017.092.017.111-.026a.083.083 0 00-.028-.088z" fill="#B16668"/><path d="M25.874 55.093c-.002.157.03.312.093.456.092.126.873.623 2.243.593 1.37-.03 2.036-.388 2.654-.885.384-.314.8-.588 1.239-.817.18-.097.37-.17.568-.22.502-.097 1.178-.191 1.431-.669.063-.33.021-.672-.118-.979l-8.11 2.52z" fill="#263238"/><path d="M29.986 51.376c.338-.465.306-.929.522-1.037.216-.108 1.037.177 1.459.354.42.177.242.736.097 1.073-.145.336.354.132.518-.206.165-.338.218-.62.496-.669.183-.033.36-.087.53-.162a2.72 2.72 0 01.045-.392.19.19 0 01.175.122.2.2 0 01.013.073c.012.198-.06.632.072 1.028.15.413.21.853.177 1.29 0 0-.177.58-1.157.885-.98.306-1.47.556-2.398 1.328-.927.771-2.53.83-3.555.601-1.416-.313-1.365-1.032-.983-1.357.383-.326.958-.602 1.935-1.195.977-.593 1.718-1.267 2.054-1.736z" fill="#37474F"/><path d="M32.041 51.852a.295.295 0 01.023-.08c.145-.336.326-.884-.097-1.072-.423-.188-1.239-.469-1.458-.354-.22.115-.177.572-.523 1.037-.345.466-1.079 1.145-2.056 1.738l-.478.283c-.33.191.905.8 1.828.478a5.391 5.391 0 002.761-2.03z" fill="#455A64"/><path d="M35.596 56.289c.531-.223 1.51-.262 1.89-.967.294-.543.057-1-.127-1.527-.287-.817.154-1.612.285-2.435 0-.05-2.433-.77-2.458-.695-.262.778-.618 2.003-.92 2.477A7.329 7.329 0 0132.7 54.86c-.837.708-1.847 1.166-2.787 1.727-.158.094-.33.218-.354.4a.53.53 0 00.234.414 2.971 2.971 0 002.091.633c1.549-.07 1.972-.61 2.377-.856.46-.27.848-.669 1.334-.888z" fill="#FFB573"/><path d="M47.685 42.485s-2.338-1.699-3.559-2.406c-.92-.544-1.717-1.034-2.364-1.27-2.738-.994-3.809.723-4.182 1.693-.343.895-2.654 10.49-2.654 10.49.86.48 1.811.77 2.792.853.844-1.851 1.573-2.654 2.663-4.819a7.962 7.962 0 00.832-2.863 23.638 23.638 0 003.741 3.472c3.088 2.232 7.776-.3 8.328-2.846a20.531 20.531 0 01-5.597-2.304z" fill="#455A64"/><path d="M29.532 57.506a1.1 1.1 0 00.096.459c.09.123.872.623 2.24.59 1.368-.031 2.037-.387 2.655-.884.384-.315.8-.59 1.239-.82.18-.096.371-.17.57-.219.5-.097 1.178-.191 1.431-.669.061-.33.02-.672-.118-.978l-8.113 2.521z" fill="#263238"/><path d="M33.646 53.79c.34-.465.306-.929.531-1.037.225-.108 1.037.177 1.458.354.422.177.241.736.096 1.074-.145.338.354.131.518-.205.165-.336.22-.621.496-.669.183-.035.36-.09.53-.165.006-.13.02-.26.043-.389a.19.19 0 01.19.193c.01.198-.062.632.07 1.03.15.412.21.852.177 1.29 0 0-.177.577-1.157.885-.98.308-1.47.554-2.4 1.325-.929.772-2.53.83-3.555.602-1.416-.313-1.362-1.032-.98-1.357.382-.326.957-.602 1.932-1.195.975-.593 1.71-1.267 2.051-1.736z" fill="#37474F"/><path d="M35.701 54.266a.358.358 0 01.023-.078c.145-.338.326-.885-.095-1.074-.421-.19-1.24-.469-1.459-.354-.219.115-.177.572-.53 1.037-.354.466-1.073 1.147-2.043 1.73l-.476.286c-.33.191.903.8 1.828.478a5.387 5.387 0 002.752-2.025z" fill="#455A64"/><path d="M27.44 72.203V61.042a2.575 2.575 0 00-1.163-2.012L14.36 52.15l-.913-6.851a3.082 3.082 0 00-1.34-2.002l-.944-.546c-.64-.368-1.163-.068-1.163.67v18.715a2.58 2.58 0 001.163 2.01l15.114 8.726c.641.372 1.163.07 1.163-.669z" fill="#2196F3"/><path opacity=".45" d="M27.44 72.203V61.042a2.575 2.575 0 00-1.163-2.012L14.36 52.15l-.913-6.851a3.082 3.082 0 00-1.34-2.002l-.944-.546c-.64-.368-1.163-.068-1.163.67v18.715a2.58 2.58 0 001.163 2.01l15.114 8.726c.641.372 1.163.07 1.163-.669z" fill="#000"/><path d="M30.712 59.154V70.39a2.6 2.6 0 01-1.148 1.932h-.01l-.946.546a.527.527 0 01-.088.046.292.292 0 01-.048.022h-.014a2.69 2.69 0 01-1.803.083 1.632 1.632 0 01-.202-.074c.56.23.991-.083.993-.752v-11.15a2.578 2.578 0 00-1.158-2.014l-2.123-1.218-9.811-5.663 2.11-1.219a2.582 2.582 0 012.323 0l8.648 4.994 2.108 1.216a2.572 2.572 0 011.17 2.014z" fill="#2196F3"/><path opacity=".25" d="M30.712 59.154V70.39a2.6 2.6 0 01-1.148 1.932h-.01l-.946.546a.527.527 0 01-.088.046.292.292 0 01-.048.022h-.014a2.69 2.69 0 01-1.803.083 1.632 1.632 0 01-.202-.074c.56.23.991-.083.993-.752v-11.15a2.578 2.578 0 00-1.158-2.014l-2.123-1.218-9.811-5.663 2.11-1.219a2.582 2.582 0 012.323 0l8.648 4.994 2.108 1.216a2.572 2.572 0 011.17 2.014z" fill="#000"/><path d="M27.44 61.044v11.16c0 .668-.434.981-.993.751.065.03.133.054.201.075a2.69 2.69 0 001.804-.084h.014a.3.3 0 00.048-.023.527.527 0 00.088-.046l.945-.545h.01a2.6 2.6 0 001.155-1.94V59.153a2.372 2.372 0 00-.34-1.144L27.098 59.9c.21.346.327.74.342 1.145z" fill="#2196F3"/><path opacity=".35" d="M27.44 61.044v11.16c0 .668-.434.981-.993.751.065.03.133.054.201.075a2.69 2.69 0 001.804-.084h.014a.3.3 0 00.048-.023.527.527 0 00.088-.046l.945-.545h.01a2.6 2.6 0 001.155-1.94V59.153a2.372 2.372 0 00-.34-1.144L27.098 59.9c.21.346.327.74.342 1.145z" fill="#000"/><path d="M38.803 6.92l.873.504v-.369c0-.45.317-.632.708-.407.167.102.309.24.416.405.063-.566.508-.779 1.047-.467a2.338 2.338 0 011.062 1.83v.378c.004.151-.026.301-.088.44l.725.418a.867.867 0 01.391.678c0 .252-.177.354-.39.227l-4.743-2.733a.864.864 0 01-.393-.68c0-.249.175-.35.392-.224zm25.061 6.817l-.481-.37v-1.062c0-.842-.671-1.82-1.4-2.24-.73-.42-1.32-.08-1.32.763v.153a1.872 1.872 0 00-.613-.612c-.53-.303-.95-.058-.95.549v.069l-.67-.388c-.346-.2-.627-.037-.627.354a1.386 1.386 0 00.626 1.083l5.435 3.138c.345.2.626.039.626-.354a1.386 1.386 0 00-.626-1.083zM49.105 9.721c.152.095.282.22.384.367a3.36 3.36 0 01-.142-.938c0-.984.519-1.483 1.158-1.113.21.128.39.3.53.502a2.653 2.653 0 01-.05-.497c0-.788.415-1.188.928-.885.24.156.435.371.567.625.276-1.165 1.083-1.658 2.035-1.108 1.18.681 2.138 2.708 2.138 4.525a3.384 3.384 0 01-.314 1.534c.083.024.162.057.236.1.68.394 1.239 1.562 1.239 2.61 0 1.047-.553 1.58-1.24 1.187l-7.469-4.318c-.465-.267-.842-1.062-.842-1.78 0-.719.377-1.08.842-.81z" fill="#455A64"/><path d="M43.1 4.795c0 1.047.552 2.215 1.239 2.61l3.506 2.024c.146-.589.55-.853 1.03-.62v-.225c0-1.255.663-1.894 1.479-1.416.056.032.11.068.163.106.033-.455.177-.795.4-.975a1.75 1.75 0 00-.506-.47.731.731 0 00-.531-.107 1.74 1.74 0 00.051-.437c0-.643-.218-1.122-.722-1.432a.591.591 0 00-.788.177c-.106-1.387-.661-2.28-1.614-2.831-1.18-.682-2.24.541-2.334 1.373-.06.41-.024.827.103 1.221a1.567 1.567 0 00-.234-.177c-.697-.402-1.242.13-1.242 1.179z" fill="#455A64"/><path opacity=".5" d="M63.098 16.138a.088.088 0 01-.088-.089v-.265a.088.088 0 01.176 0v.265a.088.088 0 01-.088.089zm0 20.719a.089.089 0 01-.088-.088v-.519a.088.088 0 11.177 0v.519a.088.088 0 01-.089.088zm0-1.035a.088.088 0 01-.088-.088v-.519a.088.088 0 01.15-.062.086.086 0 01.027.062v.519a.089.089 0 01-.089.097v-.009zm0-1.037a.088.088 0 01-.088-.088v-.517a.088.088 0 11.177 0v.517a.088.088 0 01-.089.088zm0-1.035a.088.088 0 01-.088-.089v-.518a.088.088 0 01.177 0v.518a.088.088 0 01-.089.089zm0-1.037a.088.088 0 01-.088-.089v-.51a.088.088 0 11.177 0v.517a.089.089 0 01-.089.082zm0-1.035a.089.089 0 01-.088-.089v-.518a.088.088 0 11.177 0v.513a.088.088 0 01-.054.086.09.09 0 01-.035.008zm0-1.036a.088.088 0 01-.088-.088v-.519a.088.088 0 01.15-.062.086.086 0 01.027.062v.519a.088.088 0 01-.089.088zm0-1.037a.088.088 0 01-.088-.088V29a.088.088 0 11.177 0v.517a.088.088 0 01-.089.088zm0-1.035a.088.088 0 01-.088-.088v-.519a.088.088 0 01.177 0v.519a.087.087 0 01-.024.066.087.087 0 01-.065.027v-.005zm0-1.037a.088.088 0 01-.088-.088v-.517a.088.088 0 11.177 0v.517a.09.09 0 01-.055.081.09.09 0 01-.034.007zm0-1.035a.089.089 0 01-.088-.089v-.518a.088.088 0 11.177 0v.518a.088.088 0 01-.089.089zm0-1.036a.088.088 0 01-.088-.088v-.515a.088.088 0 11.177 0v.519a.089.089 0 01-.089.084zm0-1.037a.088.088 0 01-.088-.088v-.518a.088.088 0 11.177 0v.518a.09.09 0 01-.026.063.09.09 0 01-.063.026zm0-1.035a.088.088 0 01-.088-.088v-.519a.088.088 0 01.177 0v.519a.088.088 0 01-.089.088zm0-1.037a.088.088 0 01-.088-.088v-.517a.088.088 0 11.177 0v.517a.088.088 0 01-.089.088zm0-1.035a.089.089 0 01-.088-.088v-.519a.088.088 0 11.177 0v.519a.09.09 0 01-.026.063.088.088 0 01-.063.027v-.002zm0-1.037a.088.088 0 01-.088-.088v-.517a.088.088 0 11.177 0v.517a.089.089 0 01-.055.081.088.088 0 01-.034.007zm0-1.035a.088.088 0 01-.088-.089v-.518a.088.088 0 11.177 0v.518a.088.088 0 01-.089.089zm0-1.036a.088.088 0 01-.088-.088v-.519a.088.088 0 01.177 0v.519a.088.088 0 01-.089.088zm0-1.037a.088.088 0 01-.088-.088v-.519a.088.088 0 01.15-.062.086.086 0 01.027.062v.519a.09.09 0 01-.026.063.09.09 0 01-.063.025zm0 20.468a.088.088 0 01-.088-.088v-.266a.088.088 0 01.176 0v.266a.088.088 0 01-.088.088zM60.88 14.892a.088.088 0 01-.088-.088v-.266a.089.089 0 01.089-.088.09.09 0 01.088.088v.266a.089.089 0 01-.088.088zm0 20.721a.088.088 0 01-.088-.088v-.519a.089.089 0 01.177 0v.519a.09.09 0 01-.088.088zm0-1.037a.089.089 0 01-.088-.088v-.519a.089.089 0 01.089-.088.09.09 0 01.088.088v.519a.088.088 0 01-.088.088zm0-1.035a.088.088 0 01-.088-.089v-.518a.089.089 0 01.177 0v.518a.09.09 0 01-.088.089zm0-1.037a.088.088 0 01-.088-.089V31.9a.089.089 0 01.177 0v.516a.088.088 0 01-.088.089zm0-1.035a.088.088 0 01-.088-.089v-.518a.089.089 0 01.089-.089.09.09 0 01.088.089v.518a.088.088 0 01-.088.089zm0-1.037a.088.088 0 01-.088-.089v-.517a.089.089 0 01.177 0v.519a.089.089 0 01-.088.087zm0-1.036a.089.089 0 01-.088-.088v-.519a.089.089 0 01.089-.088.09.09 0 01.088.088v.519a.088.088 0 01-.088.088zm0-1.035a.088.088 0 01-.088-.088v-.519a.088.088 0 01.177 0v.519a.09.09 0 01-.088.088zm0-1.037a.088.088 0 01-.088-.088v-.517a.089.089 0 01.177 0v.517a.09.09 0 01-.026.062.09.09 0 01-.062.026zm0-1.035a.088.088 0 01-.088-.089v-.518a.089.089 0 01.177 0v.518a.09.09 0 01-.088.089zm0-1.037a.088.088 0 01-.088-.089v-.516a.089.089 0 01.177 0v.516a.088.088 0 01-.088.089zm0-1.035a.089.089 0 01-.088-.089v-.518a.089.089 0 01.089-.089.09.09 0 01.088.089v.518a.089.089 0 01-.088.089zm0-1.036a.088.088 0 01-.088-.088v-.519a.089.089 0 01.177 0v.515a.092.092 0 01-.025.065.09.09 0 01-.063.027zm0-1.037a.088.088 0 01-.088-.088v-.519a.089.089 0 01.089-.088.09.09 0 01.088.088v.519a.088.088 0 01-.088.088zm0-1.035a.088.088 0 01-.088-.088v-.519a.089.089 0 01.177 0v.519a.09.09 0 01-.088.088zm0-1.037a.088.088 0 01-.088-.088v-.517a.089.089 0 01.177 0v.517a.089.089 0 01-.088.097v-.009zm0-1.035a.089.089 0 01-.088-.089v-.518a.089.089 0 01.089-.089.09.09 0 01.088.089v.518a.088.088 0 01-.088.089zm0-1.037a.088.088 0 01-.088-.089v-.517a.088.088 0 01.177 0v.517a.089.089 0 01-.054.082.088.088 0 01-.034.007zm0-1.035a.088.088 0 01-.088-.089v-.511a.089.089 0 01.089-.089.09.09 0 01.088.089v.518a.089.089 0 01-.088.082zm0-1.036a.088.088 0 01-.088-.088v-.519a.089.089 0 01.177 0v.512a.09.09 0 01-.088.095zm0 20.466a.088.088 0 01-.088-.088v-.266a.089.089 0 01.089-.088.09.09 0 01.088.088v.266a.089.089 0 01-.088.088zm-2.225-21.88a.089.089 0 01-.088-.088v-.266a.088.088 0 01.088-.088.089.089 0 01.089.088v.266a.088.088 0 01-.089.088zm0 19.782a.088.088 0 01-.088-.089v-.52a.088.088 0 11.177 0v.52a.089.089 0 01-.089.089zm0-1.04a.09.09 0 01-.088-.09v-.522a.09.09 0 01.088-.088.089.089 0 01.089.088v.531a.088.088 0 01-.089.08zm0-1.043a.088.088 0 01-.088-.089v-.52a.088.088 0 11.177 0v.52a.089.089 0 01-.089.089zm0-1.04a.089.089 0 01-.088-.09v-.52a.088.088 0 11.177 0v.52a.088.088 0 01-.089.09zm0-1.041a.09.09 0 01-.088-.089v-.52a.088.088 0 01.177 0v.52a.089.089 0 01-.089.089zm0-1.043a.089.089 0 01-.088-.088v-.52a.09.09 0 01.088-.089.088.088 0 01.089.088v.52a.089.089 0 01-.089.09zm0-1.04a.088.088 0 01-.088-.089v-.52a.088.088 0 01.177 0v.52a.089.089 0 01-.089.083v.006zm0-1.04a.09.09 0 01-.088-.09v-.52a.088.088 0 11.177 0v.52a.089.089 0 01-.089.09zm0-1.043a.088.088 0 01-.088-.089v-.52a.09.09 0 01.088-.088.088.088 0 01.089.088v.52a.089.089 0 01-.089.089zm0-1.04a.089.089 0 01-.088-.09v-.52a.088.088 0 11.177 0v.52a.089.089 0 01-.089.09zm0-1.041a.09.09 0 01-.088-.089v-.52a.088.088 0 01.177 0v.52a.089.089 0 01-.089.089zm0-1.043a.089.089 0 01-.088-.088v-.52a.09.09 0 01.088-.089.088.088 0 01.089.089v.52a.089.089 0 01-.089.088zm0-1.04a.088.088 0 01-.088-.089v-.52a.088.088 0 01.177 0v.52a.089.089 0 01-.089.089zm0-1.04a.088.088 0 01-.088-.09v-.52a.088.088 0 11.177 0v.52a.089.089 0 01-.089.09zm0-1.041a.09.09 0 01-.088-.089v-.522a.09.09 0 01.088-.088.088.088 0 01.089.088v.522a.09.09 0 01-.053.087.088.088 0 01-.036.007v-.005zm0-1.043a.088.088 0 01-.088-.088v-.52a.088.088 0 11.177 0v.52a.089.089 0 01-.089.088zm0-1.04a.088.088 0 01-.088-.089v-.52a.088.088 0 01.15-.063.09.09 0 01.027.063v.52a.089.089 0 01-.089.089zm0-1.04a.09.09 0 01-.088-.09v-.521a.09.09 0 01.088-.089.088.088 0 01.089.089v.522a.089.089 0 01-.089.088zm0-1.043a.088.088 0 01-.088-.089v-.518a.09.09 0 01.088-.089.088.088 0 01.089.089v.52a.088.088 0 01-.089.087zm0 19.526a.088.088 0 01-.088-.088v-.266a.088.088 0 11.177 0v.266a.088.088 0 01-.089.088zm-2.222-17.178a.088.088 0 01-.088-.088v-.266a.088.088 0 11.177 0v.266a.089.089 0 01-.089.088zm0 15.096a.088.088 0 01-.088-.09v-.53a.089.089 0 01.088-.089.088.088 0 01.089.089v.53a.088.088 0 01-.089.09zm0-1.078a.088.088 0 01-.088-.089v-.53a.089.089 0 01.177 0v.53a.089.089 0 01-.089.083v.006zm0-1.078a.088.088 0 01-.088-.089v-.53a.089.089 0 01.088-.09.088.088 0 01.089.09v.53a.09.09 0 01-.089.084v.005zm0-1.078a.089.089 0 01-.088-.088v-.531a.089.089 0 01.088-.089.088.088 0 01.089.089v.53a.089.089 0 01-.089.084v.005zm0-1.078a.088.088 0 01-.088-.088v-.54a.089.089 0 01.088-.088.088.088 0 01.089.088v.54a.089.089 0 01-.089.083v.005zm0-1.077a.088.088 0 01-.088-.089v-.54a.089.089 0 01.088-.088.088.088 0 01.089.088v.531a.088.088 0 01-.089.092v.006zm0-1.078a.088.088 0 01-.088-.089v-.54a.089.089 0 01.088-.088.088.088 0 01.089.089v.54a.09.09 0 01-.089.083v.005zm0-1.078a.089.089 0 01-.088-.088v-.54a.089.089 0 01.088-.089.089.089 0 01.089.089v.54a.089.089 0 01-.089.083v.005zm0-1.078a.088.088 0 01-.088-.088v-.545a.089.089 0 01.088-.089.088.088 0 01.089.089v.54a.088.088 0 01-.089.088v.005zm0-1.077a.088.088 0 01-.088-.089v-.53a.089.089 0 01.177 0v.53a.089.089 0 01-.089.083v.006zm0-1.078a.088.088 0 01-.088-.088v-.531a.089.089 0 01.088-.089.088.088 0 01.089.089v.53a.09.09 0 01-.089.084v.005zm0-1.08a.088.088 0 01-.088-.088v-.53a.089.089 0 01.088-.09.088.088 0 01.089.09v.53a.09.09 0 01-.026.063.09.09 0 01-.063.025zm0-1.077a.089.089 0 01-.088-.089v-.53a.089.089 0 01.088-.09.088.088 0 01.089.09v.53a.089.089 0 01-.089.084v.005zm0-1.078a.088.088 0 01-.088-.088v-.531a.089.089 0 01.088-.089.088.088 0 01.089.089v.53a.089.089 0 01-.089.084v.005zm0 14.813a.088.088 0 01-.088-.09v-.265a.088.088 0 01.177 0v.262a.09.09 0 01-.025.065.086.086 0 01-.064.027zM54.21 16.697a.088.088 0 01-.088-.088v-.266a.088.088 0 01.088-.088.09.09 0 01.089.088v.266a.089.089 0 01-.089.088zm0 11.085a.089.089 0 01-.088-.088v-.556a.088.088 0 01.088-.088.09.09 0 01.089.088v.552a.091.091 0 01-.054.085.09.09 0 01-.035.007zm0-1.11a.088.088 0 01-.088-.088v-.554a.088.088 0 01.088-.088.09.09 0 01.089.088v.554a.088.088 0 01-.089.089zm0-1.107a.089.089 0 01-.088-.088v-.554a.088.088 0 11.177 0v.554a.09.09 0 01-.026.063.088.088 0 01-.063.027v-.002zm0-1.108a.089.089 0 01-.088-.088v-.554a.088.088 0 11.177 0v.554a.09.09 0 01-.089.088zm0-1.11a.088.088 0 01-.088-.088v-.554a.088.088 0 01.088-.088.09.09 0 01.089.088v.561a.089.089 0 01-.089.082zm0-1.107a.088.088 0 01-.088-.089v-.554a.088.088 0 11.177 0v.554a.088.088 0 01-.089.089zm0-1.108a.089.089 0 01-.088-.088v-.554a.088.088 0 11.177 0v.554a.09.09 0 01-.089.088zm0-1.11a.088.088 0 01-.088-.088v-.561a.088.088 0 01.15-.062.09.09 0 01.027.062v.554a.089.089 0 01-.089.095zm0-1.107a.088.088 0 01-.088-.089v-.554a.088.088 0 11.177 0v.554a.088.088 0 01-.089.089zm0-1.108a.089.089 0 01-.088-.089v-.554a.088.088 0 11.177 0v.554a.09.09 0 01-.089.089zm0 10.795a.088.088 0 01-.088-.089v-.265a.088.088 0 01.177 0v.265a.09.09 0 01-.089.089zm-2.224-13.225a.09.09 0 01-.088-.088v-.266a.088.088 0 01.177 0v.266a.088.088 0 01-.089.088zm0 4.247a.09.09 0 01-.088-.088v-.531a.088.088 0 11.177 0v.53a.088.088 0 01-.089.09zm0-1.062a.09.09 0 01-.088-.088v-.531a.088.088 0 11.177 0v.53a.088.088 0 01-.089.09zm0-1.061a.09.09 0 01-.088-.089v-.53a.088.088 0 11.177 0v.53a.088.088 0 01-.089.089zm0-1.062a.09.09 0 01-.088-.089v-.53a.088.088 0 11.177 0v.53a.088.088 0 01-.089.089zm0 3.981a.09.09 0 01-.088-.088v-.265a.088.088 0 01.177 0v.265a.088.088 0 01-.089.089zm-2.224-6.356a.088.088 0 01-.088-.089v-.265a.088.088 0 01.177 0v.265a.089.089 0 01-.089.089zm0 3.426a.088.088 0 01-.088-.088v-.572a.089.089 0 01.088-.088.088.088 0 01.089.088v.572a.088.088 0 01-.089.088zm0-1.141a.088.088 0 01-.088-.089v-.571a.089.089 0 01.088-.089.088.088 0 01.089.089v.571a.088.088 0 01-.089.089zm0-1.143a.088.088 0 01-.088-.089v-.571a.089.089 0 01.088-.089.088.088 0 01.089.089v.58a.088.088 0 01-.089.08zm0 3.121a.089.089 0 01-.088-.089v-.265a.088.088 0 01.088-.088.088.088 0 01.089.088v.265a.089.089 0 01-.089.089zm-2.222-6.831a.088.088 0 01-.089-.088v-.266a.088.088 0 01.089-.088.09.09 0 01.088.088v.267a.088.088 0 01-.088.087zm0 5.92a.088.088 0 01-.089-.089v-.493a.088.088 0 01.089-.089.09.09 0 01.088.089v.493a.088.088 0 01-.088.089zm0-.986a.088.088 0 01-.089-.088v-.494a.088.088 0 11.177 0v.494a.09.09 0 01-.088.088zm0-.987a.089.089 0 01-.089-.089v-.492a.088.088 0 11.177 0v.492a.088.088 0 01-.088.089zm0-.986a.089.089 0 01-.089-.089v-.493a.088.088 0 01.177 0v.493a.09.09 0 01-.088.089zm0-.988a.088.088 0 01-.089-.088v-.492a.088.088 0 01.177 0v.492a.088.088 0 01-.088.088zm0-.985a.088.088 0 01-.089-.089v-.493a.088.088 0 11.177 0v.493a.09.09 0 01-.088.089zm0 5.691a.089.089 0 01-.089-.089v-.265a.088.088 0 01.089-.088.089.089 0 01.088.088v.265a.088.088 0 01-.088.089zm-2.224-8.794a.089.089 0 01-.089-.088v-.266a.088.088 0 11.177 0v.259a.088.088 0 01-.088.095zm0 8.026a.088.088 0 01-.089-.088v-.501a.088.088 0 11.177 0v.5a.089.089 0 01-.088.089zm0-1.002a.09.09 0 01-.089-.088v-.503a.088.088 0 01.151-.062.085.085 0 01.026.062v.503a.089.089 0 01-.088.088zm0-1.003a.09.09 0 01-.089-.088v-.503a.09.09 0 01.089-.089.088.088 0 01.088.089v.502a.088.088 0 01-.054.082.089.089 0 01-.034.007zm0-1.003a.09.09 0 01-.089-.089v-.503a.09.09 0 01.089-.088.088.088 0 01.088.088v.503a.089.089 0 01-.088.089zm0-1.004a.09.09 0 01-.089-.088v-.503a.09.09 0 01.089-.088.088.088 0 01.088.088v.503a.088.088 0 01-.054.082.089.089 0 01-.034.006zm0-1.003a.09.09 0 01-.089-.089v-.502a.09.09 0 01.089-.089.088.088 0 01.088.089v.502a.089.089 0 01-.088.089zm0-1.004a.088.088 0 01-.089-.088v-.503a.09.09 0 01.089-.088.088.088 0 01.088.088v.503a.089.089 0 01-.088.088zm0-1.003a.088.088 0 01-.089-.088v-.501a.088.088 0 11.177 0v.5a.089.089 0 01-.088.089zm0 7.79a.089.089 0 01-.089-.089v-.265a.088.088 0 01.089-.088.089.089 0 01.088.088v.265a.088.088 0 01-.088.089zM43.1 11.65a.088.088 0 01-.088-.089v-.265a.088.088 0 01.177 0v.265a.088.088 0 01-.089.089zm0 6.755a.088.088 0 01-.088-.088v-.563a.088.088 0 11.177 0v.557a.088.088 0 01-.053.087.089.089 0 01-.036.007zm0-1.125a.088.088 0 01-.088-.089v-.563a.088.088 0 01.177 0v.563a.088.088 0 01-.089.089zm0-1.126a.088.088 0 01-.088-.088v-.563a.088.088 0 01.177 0v.563a.09.09 0 01-.026.062.088.088 0 01-.063.026zm0-1.127a.088.088 0 01-.088-.089v-.562a.088.088 0 11.177 0v.562a.09.09 0 01-.026.063.09.09 0 01-.063.026zm0-1.126a.088.088 0 01-.088-.088v-.563a.088.088 0 11.177 0v.563a.088.088 0 01-.089.088zm0-1.125a.088.088 0 01-.088-.089v-.57a.088.088 0 11.177 0v.563a.089.089 0 01-.089.096zm0 6.457a.089.089 0 01-.088-.088v-.266a.088.088 0 11.177 0v.266a.088.088 0 01-.089.088zm-2.23-8.867a.088.088 0 01-.087-.089v-.265a.088.088 0 01.088-.089.09.09 0 01.088.089v.265a.088.088 0 01-.088.089zm.001 11.099a.089.089 0 01-.089-.089v-.556a.088.088 0 01.089-.088.09.09 0 01.088.088v.556a.088.088 0 01-.088.089zm0-1.11a.088.088 0 01-.089-.088v-.556a.088.088 0 01.089-.089.09.09 0 01.088.089v.556a.09.09 0 01-.088.088zm0-1.11a.088.088 0 01-.089-.088v-.556a.088.088 0 11.177 0v.556a.09.09 0 01-.088.088zm0-1.11a.089.089 0 01-.089-.09v-.553a.088.088 0 11.177 0v.554a.089.089 0 01-.088.088zm0-1.11a.088.088 0 01-.089-.089v-.554a.088.088 0 11.177 0v.554a.088.088 0 01-.088.089zm0-1.11a.088.088 0 01-.089-.088v-.556a.088.088 0 01.089-.089.09.09 0 01.088.089v.563a.088.088 0 01-.088.081zm0-1.11a.088.088 0 01-.089-.088v-.556a.088.088 0 01.089-.088.09.09 0 01.088.088v.556a.09.09 0 01-.054.082.089.089 0 01-.034.006zm0-1.11a.088.088 0 01-.089-.088v-.555a.088.088 0 01.089-.089.09.09 0 01.088.089v.555a.09.09 0 01-.088.089zm0-1.109a.089.089 0 01-.089-.088v-.558a.088.088 0 01.177 0v.556a.09.09 0 01-.088.09zm0-1.111a.088.088 0 01-.089-.089v-.553a.088.088 0 01.177 0v.553a.09.09 0 01-.054.082.089.089 0 01-.034.007zm-.001 10.811a.088.088 0 01-.087-.089v-.265a.088.088 0 01.176 0v.272a.09.09 0 01-.088.082zM38.646 9.082a.089.089 0 01-.088-.088v-.266a.088.088 0 11.176 0v.266a.088.088 0 01-.088.088zm0 13.608a.088.088 0 01-.088-.089v-.53a.09.09 0 01.088-.09.088.088 0 01.089.09v.53a.088.088 0 01-.089.088zm0-1.048a.089.089 0 01-.088-.089v-.522a.088.088 0 01.088-.088.089.089 0 01.089.088v.522a.088.088 0 01-.089.089zm0-1.046a.088.088 0 01-.088-.088v-.531a.09.09 0 01.088-.089.088.088 0 01.089.089v.53a.088.088 0 01-.089.089zm0-1.046a.09.09 0 01-.088-.088v-.531a.088.088 0 01.177 0v.53a.088.088 0 01-.089.09zm0-1.047a.089.089 0 01-.088-.089v-.53a.09.09 0 01.088-.09.088.088 0 01.089.09v.53a.088.088 0 01-.089.088zm0-1.046a.09.09 0 01-.088-.089v-.53a.088.088 0 01.15-.063.086.086 0 01.027.062v.531a.088.088 0 01-.089.089zm0-1.048a.089.089 0 01-.088-.088v-.531a.09.09 0 01.088-.089.088.088 0 01.089.089v.53a.088.088 0 01-.089.089zm0-1.046a.09.09 0 01-.088-.088v-.531a.088.088 0 11.177 0v.53a.088.088 0 01-.089.09zm0-1.048a.088.088 0 01-.088-.088v-.53a.09.09 0 01.088-.09.088.088 0 01.089.09v.53a.088.088 0 01-.089.088zm0-1.045a.09.09 0 01-.088-.089v-.53a.088.088 0 11.177 0v.53a.088.088 0 01-.089.089zm0-1.048a.088.088 0 01-.088-.088v-.531a.09.09 0 01.088-.089.088.088 0 01.089.089v.53a.088.088 0 01-.089.089zm0-1.046a.09.09 0 01-.088-.088v-.531a.088.088 0 11.177 0v.53a.088.088 0 01-.089.09zm0-1.048a.088.088 0 01-.088-.088v-.53a.088.088 0 11.177 0v.53a.088.088 0 01-.089.088zm0 13.351a.09.09 0 01-.088-.089v-.265a.088.088 0 11.176 0v.265a.088.088 0 01-.088.089z" fill="#575757"/></g><defs><clipPath id="clip0_74_8665"><path fill="#fff" d="M0 0h73v73H0z"/></clipPath></defs></svg>