<svg width="73" height="73" fill="none" xmlns="http://www.w3.org/2000/svg"><path d="M9.716 51.62c.07 6.798 0 16.48 0 16.48h29.188l-6.822-17.83-22.366 1.35z" fill="#263238"/><path d="M47.176 48.091c1.3.433 4.022.786 5.129.972.706.275 1.876.917 2.277 1.146.401.23-.3.863-1.181.553-.88-.31-4.356-1.011-4.356-1.011l-1.869-1.66z" fill="#F28F8F"/><path d="M55.79 53.38c-.333-.605-.658-1.24-1.002-1.813-.142-.23-1.504-1.346-2.162-1.77-.16-.11-.33-.205-.51-.282a18.635 18.635 0 00-2.127-.569 39.369 39.369 0 01-2.293-.667 2.774 2.774 0 01-1.552-1.009c-.727-.816-1.605-1.692-2.316-2.522-1.146-1.375-4.815-5.52-5.55-6.42l-5.366 2.706c0 .573 0 1.554 1.514 2.85 3.528 3.022 5.245 4.274 7.08 5.796 1.559 1.293 1.506 1.898 2.368 2.26.55.214 1.123.368 1.706.46.26.05.519.113.773.19.256.075 1.834.637 2.045.717.654.226 1.293.494 1.912.803.09.045.175.099.255.16.073.06.14.128.2.202.187.218.322.484.508.701.079.09.163.175.252.255.321.275.782.5 1.21.36.148-.048.264-.121.23-.293a1.345 1.345 0 00-.17-.397c-.18-.355-.295-.562-.57-1.066a3.877 3.877 0 00-.37-.626c-.263-.26-.323-.349-.543-.569.23.115 1.362.878 1.435.956.14.152.408.704.578.963a1.361 1.361 0 00.823.647c.514.092.688-.133.688-.16a7.49 7.49 0 00-.511-1.186c-.19-.433-.353-.805-.5-1.062a5.12 5.12 0 00-.734-.892c.213.11.823.503.901.562.13.115.244.247.34.392.229.356.387.612.706.773a.84.84 0 00.649.085.422.422 0 00.218-.179.867.867 0 00-.115-.355z" fill="#FFB573"/><path d="M33.259 21.9c1.634.42 2.574.658 3.347 2.119.511.967 1.094 3.918 1.376 7.66.369 4.815.371 6.401.371 6.401l1.823 2.357s-3.141.867-4.691 4.483c0 0-1.039-.844-2.126-1.853-1.086-1.009-1.3-1.676-1.648-3.776-.431-2.598-.704-9.94-.704-9.94l2.252-7.45z" fill="#37474F"/><path d="M35.492 44.93c1.55-3.616 4.684-4.492 4.684-4.492l1.605 1.917s-3.173.853-4.356 4.035l-1.933-1.46z" fill="#263238"/><path d="M41.58 49.742c.276.247.53.518.76.81.512.72.606 1.675 1.147 2.374.459.599 1.183.918 1.807 1.353a6.06 6.06 0 011.408 1.35c.135.18.229.384.36.563a.427.427 0 00.284.185.434.434 0 00.399-.21 1.47 1.47 0 00.16-.33c.027-.092.042-.186.044-.28.032-.76-.333-1.275-.727-1.872a5.41 5.41 0 01-.796-1.974" fill="#FFB573"/><path d="M52.03 55.533c-.427-.298-.75-.917-1.007-1.29-.257-.374-1.112-.688-1.72-.968-.607-.28-1.973-1.146-2.375-1.33-.4-.183-.36.36-.217.766.557.19 1.524.536 1.687.598a16.05 16.05 0 011.912.803c.09.045.176.1.257.16.072.061.138.129.197.202.188.218.323.484.51.702.078.09.162.175.251.254.32.275.782.5 1.211.36a.478.478 0 00.149-.075 1.103 1.103 0 01-.855-.182zm1.903-.422c-.445-.325-.562-.944-.752-1.288-.19-.344-.459-.63-1.075-1.018a25.4 25.4 0 00-2.362-1.124s1.254.918 1.573 1.167c.23.115 1.362.879 1.435.956.14.152.408.704.578.963a1.359 1.359 0 00.823.647.78.78 0 00.63-.092 1.058 1.058 0 01-.85-.21zm1.215-1.446c-.298-.23-.722-1.335-1.146-1.56-.23-.123-1.346-.878-2.497-1.205.582.43 1.208.894 1.605 1.206.213.11.823.502.901.561.13.115.244.247.34.392.229.356.387.613.706.773a.84.84 0 00.648.085.431.431 0 00.115-.064c-.087.064-.378.041-.672-.188z" fill="#F28F8F"/><path d="M22.14 21.9c-2.235.599-5.887 1.864-5.887 1.864s-2.789 2.802-4.416 8.344c-1.147 3.872-2.383 12.52-2.121 19.511 3.21 4.153 15.644 4.962 22.366-1.35 0 0-.605-4.586 1.273-10.859 2.363-7.892 2.292-11.922 1.483-14.341-.484-1.431-.99-2.708-1.58-3.169-.369-.264-6.69-1.18-11.118 0z" fill="#455A64"/><path d="M19.944 61.965c1.92-.014 2.894-.276 3.573-.156.678.119 1.868-.026 2.19.018.24.31 0 .917-.886 1.243-1.011.369-2.488.754-2.488.754l-2.389-1.86z" fill="#F28F8F"/><path d="M14.683 46.218l2.827-12.659s1.474-5.415-1.247-9.171c-4.024 1.19-5.434 2.063-6.384 6.878-.554 2.827-1.327 5.647-2.522 12.98-.201 1.24-.543 1.217.58 4.523.303.89 1.064 3.373 2.064 5.932 1.146 2.96 2.396 6.255 2.98 8.052.172.523.296.917.443 1.486.319 1.245.764 1.958 1.463 2.472 1.096.809 2.786 1.006 4.395 1.907 1.197.672 1.977 2.064 2.561 2.275.899.314 1.247-.055 1.247-.055s-1.075-2.247-1.779-2.981a14.1 14.1 0 00-1.197-1.052c.608.14 1.206.32 1.789.54.61.267 1.779 2.09 2.838 2.621.665.335 1.605 0 1.562-.229a2.255 2.255 0 00-.48-.71.9.9 0 00.42.26c.35.095.688.12.993-.135.156-.135-.291-.807-.853-1.712-.77-1.25-.688-1.35-1.701-2.135-.101-.078-.459-.307-.459-.307s.544.135 1 .277c.456.142 1.146 1.16 1.779 1.527a.98.98 0 001.218-.137s-1.656-2.497-2.037-2.765c-.38-.269-1.375-.633-2.214-.917-.84-.285-4.045-.996-4.698-1.225-.961-.337-1.007-.688-1.11-.979-.936-2.538-3.478-14.561-3.478-14.561z" fill="#FFB573"/><path d="M24.234 69.162c-.576-.56-1.704-1.956-2.025-2.165-.32-.208-1.29-.426-2.063-.53-.773-.103-.028.34-.028.34a13.8 13.8 0 011.789.541c.61.266 1.779 2.089 2.838 2.62a1.672 1.672 0 001.305.02c-.803.132-1.236-.267-1.816-.826zm1.589-.124a9.743 9.743 0 01-.917-1.112c-.284-.388-.548-.793-.81-1.188l-.047-.069c-.016-.018-.025-.022-.041-.038a1.45 1.45 0 00-.138-.094c-.099-.062-.202-.12-.305-.18l-.624-.352a34.3 34.3 0 01-1.247-.723c.459.16.901.342 1.337.546.23.099.435.209.65.319.109.055.214.114.32.178.052.03.107.07.16.106a.529.529 0 01.09.085l.057.078c.518.811 1 1.63 1.515 2.444zm.532-3.318c-.482-.552-.562-.614-1.25-.846-.688-.231-2.008-.575-2.008-.575l1.146.71s.544.136 1 .278c.456.142 1.146 1.16 1.779 1.527a.97.97 0 001.05 0c-.93.078-1.236-.541-1.717-1.094z" fill="#F28F8F"/><path d="M16.253 23.764c-1.834.624-3.492 1.147-4.627 2.782-1.208 1.749-1.76 3.549-2.616 7.985-.855 4.437-1.797 9.103-1.958 10.302-.16 1.199.067 1.846.44 3.001a210.78 210.78 0 001.323 3.824s1.108-1.146 3.506-1.834c2.398-.688 3.244-.263 3.244-.263l-.733-3.38s2.37-10.359 2.78-12.072c.411-1.712 1.294-6.754-1.359-10.345z" fill="#37474F"/><path d="M15.566 49.565s-.84-.415-3.245.273c-2.405.688-3.505 1.834-3.505 1.834l.949 2.665s2.352-1.605 6.344-1.887l-.543-2.885zm20.604-38.56c1.055-1.905.459-4.62-.458-5.961-1.328-1.93-3.582-2.923-7.108-3.038-2.685-.087-5.416.77-6.174 3.462-2.704.592-2.81 3.767-2.43 5.37.781 3.258 2.613 5.943 3.067 7.992l13.103-7.825z" fill="#263238"/><path d="M35.464 18.427c-.566 1.483-1.554 2.522-2.98 2.602-.853.053-2.4-.21-2.4-.21l-.645 2.521c.85 2.133.154 3.526-.96 5.38-2.365-4.078-5.393-3.573-6.677-5.94l1.284-6.912s-.814.95-2.149-.11c-.917-.731-1.456-2.44-.603-3.898.853-1.458 2.197-.67 2.589-.179.392.491.814 1.39 1.188 1.305a1.315 1.315 0 00.958-.807c.312-.615.57-1.42.731-2.836.413-.163.885-.351 1.183-.746.383-.504.445-1.228 1.406-2.033 1.46-1.22 6.511-.871 7.522 1.146.608 1.35.351 4.334.308 6.062-.048 1.864-.28 3.412-.755 4.655z" fill="#FFB573"/><path d="M30.157 16.097c-.59.099-1.543.784-1.321 1.193.222.408.899.114 1.678.442.78.328.9.773 1.442.578.438-.158.23-1.344-.16-1.724a2.03 2.03 0 00-1.64-.489z" fill="#B16668"/><path d="M31.951 16.799a.87.87 0 00-.155-.213 2.029 2.029 0 00-1.64-.489 1.63 1.63 0 00-.367.115c.666.36 1.406.56 2.162.587z" fill="#FAFAFA"/><path d="M30.546 17.74a1.342 1.342 0 00-1.305-1.216c-.317.245-.532.539-.413.757.23.405.899.114 1.679.442l.038.016zm-1.332-4.85c0 .355-.459.635-.99.626-.533-.01-.973-.305-.966-.66.007-.356.459-.634.988-.624.53.009.975.305.968.658zm7.255.286c0 .355-.459.635-.99.626-.533-.01-.973-.305-.966-.66.007-.356.459-.635.988-.624.53.011.975.305.968.658zm-6.382 7.638c-1.547-.23-4.434-1.25-5.186-2.2-.752-.948-.938-2.75-.938-2.75s-.089 2.258.459 3.31c.548 1.053 2.14 1.64 3.104 1.979.966.34 2.28.757 2.28.757l.281-1.096z" fill="#F28F8F"/><path d="M30.181 12.403a.61.61 0 01-.72.486.71.71 0 01-.596-.72c0-.458.385-.706.89-.492.4.172.497.399.426.726zm-.915-2.193l1.495 1.063a1.046 1.046 0 01-1.121-.053.855.855 0 01-.374-1.01zm4.43 2.255a.61.61 0 00.688.512.71.71 0 00.623-.688c.012-.459-.36-.72-.87-.523-.397.147-.5.371-.44.7zm1.206-2.145l-1.538.999c.094.14.63.303 1.119-.03a.867.867 0 00.42-.97z" fill="#263238"/><path d="M31.658 10.957l.318 4.51 2.378-.805-2.696-3.705z" fill="#F28F8F"/><path d="M22.258 20.3c-.177.945.087 1.809 1.206 2.873 1.119 1.064 2.957 2.105 3.384 2.559.426.454 1.628 2.98 1.628 2.98s-1.282-1.747-1.605-1.935c-.323-.188-1.892 2.185-2.185 2.772-.294.587-.241.587-1.039 0-1.547-1.146-3.017-3.412-3.44-4.73-.474-1.492-.306-2.277-.306-2.277a3.824 3.824 0 001.474-1.73c.39-.872.688-1.058.963-.97l-.08.458zm6.224 8.405c.367-.754.989-2.2 1.147-2.838.158-.638-.179-2.54-.179-2.54l.608-2.367c.22.18.395.406.515.663.445.894 1.168 2.522 1.291 3.556.195 1.64 0 2.859-.064 2.98-.151.33-.722-2.063-1.259-2.038-.362.02-2.059 2.584-2.059 2.584z" fill="#37474F"/><path d="M20.93 5.129a1.68 1.68 0 00-.388-.282.574.574 0 00-.458-.09.097.097 0 00-.014.14c.14.106.31.15.458.23.127.075.24.17.337.282a1.099 1.099 0 01.28.866c-.117.768-.995.883-1.628.865-.025 0-.057 0-.057.032s0 .023.023.032c.227.143.497.203.763.167.32-.041.814-.17 1.041-.562.317-.554.065-1.277-.357-1.68zm2.845-1.319a.076.076 0 00-.048.019.197.197 0 00-.053.128 1.855 1.855 0 01-.348.917 1.038 1.038 0 01-.853.42.834.834 0 01-.401-.133.612.612 0 01-.2-.317 3.103 3.103 0 01-.181-1.146c0-.08-.094-.168-.135-.057a1.865 1.865 0 00-.078.25 1.388 1.388 0 00-.014.323c.005.177.03.353.073.525.09.337.255.688.597.839a1.195 1.195 0 00.917-.062c.286-.132.52-.354.667-.633.098-.188.156-.395.17-.607.009-.053.009-.466-.113-.466zm1.227 2.043c-.637-.284-1.543-.186-1.944.438s-.05 1.39.504 1.743a1.578 1.578 0 00.915.231.069.069 0 00.053-.02c.023-.03-.02-.067-.06-.083-.513-.197-1.32-.642-1.222-1.305a.97.97 0 01.582-.687 1.47 1.47 0 01.498-.131c.216-.019.431 0 .647 0 .068.007.096-.156.027-.186zm-1.983 3.024a1.626 1.626 0 00-.268-1.061.86.86 0 00-.436-.36 1.19 1.19 0 00-1.268.296 2.236 2.236 0 00-.387.662 1.57 1.57 0 00-.076.197.942.942 0 00-.037.23c.065 0 .108-.062.136-.12a2.32 2.32 0 01.727-.869.862.862 0 01.268-.142.81.81 0 01.504.035.992.992 0 01.518.795c.026.156.04.312.05.459.001.132.009.265.024.396a.052.052 0 00.043.044c.026 0 .044-.02.058-.041a.674.674 0 00.087-.209 1.66 1.66 0 00.057-.312zM10.63 14.926l3.272-.292.3 1.012 1.65-.851.164.915 2.135-.626-2.868 2.123-.152-1.023-1.926 1.399-.366-1.417-1.83 1.178-.378-2.418z" fill="#2196F3"/><path opacity=".3" d="M10.63 14.926l3.272-.292.3 1.012 1.65-.851.164.915 2.135-.626-2.868 2.123-.152-1.023-1.926 1.399-.366-1.417-1.83 1.178-.378-2.418z" fill="#fff"/><path d="M16.65 12.032l-.23 1.108 1.97 1.036-3.057-.406.122-.903-2.357-.335.747-1.701 2.804 1.201z" fill="#2196F3"/><path opacity=".3" d="M16.65 12.032l-.23 1.108 1.97 1.036-3.057-.406.122-.903-2.357-.335.747-1.701 2.804 1.201z" fill="#fff"/><path d="M15.148 18.032l1.064.388 2.18-2.378-1.57 3.581-.984-.32-1.002 2.113-1.463-1.288 1.775-2.096z" fill="#2196F3"/><path opacity=".3" d="M15.148 18.032l1.064.388 2.18-2.378-1.57 3.581-.984-.32-1.002 2.113-1.463-1.288 1.775-2.096z" fill="#fff"/><path d="M38.407 18.287c.324-.04.647-.062.973-.092l.972-.067a55.59 55.59 0 011.946-.093c.65-.023 1.3-.037 1.95-.037h.974c.325 0 .648 0 .974.03-.323.039-.646.062-.972.091l-.972.07c-.65.043-1.298.068-1.947.09-.649.024-1.3.038-1.949.038h-.974c-.323-.012-.649-.012-.974-.03zm-1.547-.663c.371-.11.747-.202 1.119-.302l1.126-.278a94.9 94.9 0 014.53-.972l1.147-.209c.382-.06.76-.128 1.146-.183-.372.11-.748.202-1.121.303l-1.126.277a94.676 94.676 0 01-4.528.972l-1.147.209c-.383.069-.763.128-1.146.183zm.97-1.518c.286-.128.58-.243.871-.364l.878-.337c.587-.23 1.181-.431 1.775-.64.594-.209 1.19-.401 1.79-.582l.904-.273c.302-.083.603-.172.917-.248-.289.128-.58.243-.871.362l-.88.34c-.588.229-1.18.43-1.773.637-.594.207-1.19.401-1.793.585l-.901.27c-.312.083-.612.175-.917.25zm10.714 4.806c.118.489.306.957.56 1.392a4.707 4.707 0 003.63 2.263c.486.031.974-.008 1.448-.117a4.523 4.523 0 003.132-2.708l.566.245a5.067 5.067 0 01-2.137 2.305c-.461.255-.96.435-1.479.534a5.406 5.406 0 01-1.561.048 4.916 4.916 0 01-2.752-1.32 4.65 4.65 0 01-.917-1.214 5.123 5.123 0 01-.49-1.428z" fill="#2196F3"/><path d="M56.257 21.093c.57.355 1.198.607 1.855.743a5.12 5.12 0 001.935.02 4.992 4.992 0 004.065-5.585 5.374 5.374 0 00-1.893-3.37 4.66 4.66 0 011.563 1.348 5.083 5.083 0 01.867 4.072 5.205 5.205 0 01-2.488 3.414l-.229.13c-.08.044-.165.074-.248.113l-.247.106c-.083.036-.172.057-.257.087-.34.118-.692.195-1.05.229a4.998 4.998 0 01-2.1-.23 4.767 4.767 0 01-1.773-1.077z" fill="#2196F3"/><path d="M64.073 14.987l-.433-.55a4.72 4.72 0 00-4.222-8.254 4.817 4.817 0 00-.873.346l-.321-.621c.32-.166.655-.3 1.002-.397a5.42 5.42 0 014.847 9.476zM50.158 6.192a4.84 4.84 0 00-4.102 1.649 4.937 4.937 0 00-1.064 2.08 5.121 5.121 0 000 2.38 5.211 5.211 0 012.722-6.27 5.317 5.317 0 012.485-.536l-.041.697z" fill="#2196F3"/><path d="M57.795 9.778a4.533 4.533 0 00.553-2.063 4.356 4.356 0 00-.436-2.011 4.182 4.182 0 00-1.304-1.538 4.28 4.28 0 00-.878-.491 4.455 4.455 0 00-1.979-.27 4.251 4.251 0 00-.977.229 4.195 4.195 0 00-1.667 1.132 4.412 4.412 0 00-.96 1.82 4.548 4.548 0 00-.016 2.13 4.052 4.052 0 01-.321-2.191 4.46 4.46 0 01.875-2.084 4.514 4.514 0 012.981-1.702 4.66 4.66 0 011.18 0c.394.056.78.159 1.147.308.181.078.357.166.528.266l.252.15c.082.058.158.12.23.177a4.477 4.477 0 011.402 1.835c.292.716.388 1.497.28 2.263a4.07 4.07 0 01-.89 2.04zm-12.512 9.367a2.29 2.29 0 00.147 1.421c.184.437.481.817.862 1.1.368.276.81.436 1.27.46.454.014.906-.064 1.328-.23l.197.582a3.827 3.827 0 01-1.58.113 2.717 2.717 0 01-1.41-.688 2.859 2.859 0 01-.812-1.287 2.383 2.383 0 01-.002-1.471zm2.201-3.408a.183.183 0 01.037-.14.194.194 0 01.126-.073l.883-.112a.193.193 0 01.213.165l.09.706a.177.177 0 01-.04.14.187.187 0 01-.123.073l-.883.113a.175.175 0 01-.14-.04.184.184 0 01-.073-.123l-.09-.709zm-.493-3.81a.184.184 0 01.04-.14.176.176 0 01.123-.074l.883-.114a.185.185 0 01.14.039.19.19 0 01.073.126l.39 3.015a.184.184 0 01-.039.14.19.19 0 01-.126.073l-.88.112a.172.172 0 01-.14-.039.17.17 0 01-.074-.123l-.39-3.015zm2.667 4.329a.184.184 0 01.06-.134.178.178 0 01.133-.055l.89.014a.183.183 0 01.132.058.193.193 0 01.055.135v.713a.18.18 0 01-.057.133.193.193 0 01-.135.055l-.89-.014a.187.187 0 01-.133-.06.186.186 0 01-.055-.135v-.71zm.06-3.843a.189.189 0 01.192-.188l.89.014a.185.185 0 01.133.057.19.19 0 01.055.135l-.048 3.04a.188.188 0 01-.193.186l-.89-.014a.18.18 0 01-.133-.057.177.177 0 01-.052-.135l.046-3.038z" fill="#2196F3"/><path opacity=".2" d="M49.658 16.256a.184.184 0 01.06-.133.178.178 0 01.132-.055l.89.013a.182.182 0 01.133.058.193.193 0 01.055.135v.713a.183.183 0 01-.057.133.193.193 0 01-.136.055l-.89-.014a.188.188 0 01-.132-.06.184.184 0 01-.055-.135v-.71zm.06-3.843a.19.19 0 01.119-.176.181.181 0 01.073-.012l.89.014a.186.186 0 01.133.057.187.187 0 01.055.135l-.049 3.04a.184.184 0 01-.057.133.178.178 0 01-.135.053l-.89-.014a.18.18 0 01-.133-.057.18.18 0 01-.052-.135l.045-3.038z" fill="#fff"/><path d="M55.685 16.512c-.642.374-1.35.663-2.084.367a1.588 1.588 0 01-.995-1.532c.023-.404.204-.784.504-1.056.311-.252.704-.38 1.103-.363a1.145 1.145 0 011.098 1.429c-.117.426-.742.509-1.073.302a.562.562 0 01-.208-.573.355.355 0 01.4-.23c.109.035.088-.164.038-.206a.459.459 0 00-.562.033.7.7 0 00-.287.545c0 .436.31.894 1.046.883a.984.984 0 001.013-.83 1.537 1.537 0 00-.447-1.247 1.605 1.605 0 00-1.348-.484A1.856 1.856 0 0053 16.911c.4.336.91.51 1.43.49a1.793 1.793 0 001.402-.648c.062-.094-.025-.312-.147-.24zm4.153.009a28.38 28.38 0 01-1.41-3.276 7.622 7.622 0 00-.5-1.217c-.048-.083-.128-.042-.135.04a3.5 3.5 0 00.254 1.246 18.506 18.506 0 00.942 2.41c.088.19.18.38.273.57.094.19.16.392.374.491a.11.11 0 00.13 0l.051-.043a.19.19 0 00.02-.22zm1.696-.616a29.225 29.225 0 01-1.41-3.277 7.419 7.419 0 00-.5-1.217c-.048-.083-.128-.041-.135.043.008.427.095.848.255 1.243.136.42.282.836.44 1.247.153.392.323.78.502 1.163.09.19.179.38.273.57.094.191.162.393.373.491a.11.11 0 00.131 0l.05-.043a.19.19 0 00.021-.22z" fill="#2196F3"/><path d="M61.892 13.52c-.662.459-1.345.864-2.042 1.261-.34.193-.688.374-1.03.55-.4.183-.784.4-1.146.65-.076.057-.023.132.06.128.421-.062.829-.2 1.2-.408a18.966 18.966 0 002.272-1.238c.18-.113.356-.23.533-.344.176-.115.369-.21.44-.431a.112.112 0 00-.027-.131l-.046-.041a.19.19 0 00-.214.004zm-.827-1.605c-.662.459-1.346.865-2.043 1.259-.339.192-.682.377-1.029.552a7.22 7.22 0 00-1.146.65c-.076.057-.023.13.06.128a3.524 3.524 0 001.2-.41c.402-.186.794-.386 1.181-.595.388-.208.734-.417 1.092-.642.179-.112.355-.229.532-.343.176-.115.369-.21.44-.434a.108.108 0 00-.028-.128l-.045-.044a.195.195 0 00-.214.007z" fill="#2196F3"/></svg>