<svg width="73" height="73" fill="none" xmlns="http://www.w3.org/2000/svg"><path d="M22.967 65.556s1.328-5.26-.506-10.664c-1.029-3.02-3.109-4.546-4.426-4.782-1.476-.263-3.047.862-1.84 2.896 1.146 1.933 3.52 2.868 4.665 7.76.754 3.225.491 5.297.491 5.297l1.616-.507z" fill="#2196F3"/><path opacity=".5" d="M22.967 65.556s1.328-5.26-.506-10.664c-1.029-3.02-3.109-4.546-4.426-4.782-1.476-.263-3.047.862-1.84 2.896 1.146 1.933 3.52 2.868 4.665 7.76.754 3.225.491 5.297.491 5.297l1.616-.507z" fill="#fff"/><path d="M22.123 64.131a.086.086 0 01-.059-.033.087.087 0 01-.018-.065c.971-5.794-1.925-10.94-4.286-12.739a.076.076 0 01-.031-.088c.003-.01.01-.02.017-.028a.099.099 0 01.132 0c2.398 1.828 5.337 7.037 4.353 12.896a.091.091 0 01-.108.057z" fill="#fff"/><path d="M21.346 66.068c-.141-1.362-.902-2.809-2.616-4.417-1.714-1.607-4.11-3.14-3.679-4.414.432-1.274 2.37-.854 3.711-.035 1.341.818 4.263 3.891 3.4 8.61l-.816.256z" fill="#2196F3"/><path opacity=".65" d="M21.346 66.068c-.141-1.362-.902-2.809-2.616-4.417-1.714-1.607-4.11-3.14-3.679-4.414.432-1.274 2.37-.854 3.711-.035 1.341.818 4.263 3.891 3.4 8.61l-.816.256z" fill="#fff"/><path d="M21.808 64.593a.09.09 0 01-.079-.08c-.106-2.868-3.61-6.708-5.287-7.383a.082.082 0 01-.056-.076c0-.011.002-.023.006-.033a.093.093 0 01.121-.04c1.758.708 5.292 4.554 5.398 7.531a.083.083 0 01-.09.083l-.013-.002z" fill="#fff"/><path d="M32.51 62.69l-.377-3.336 3.8-.337s-.16 2.572-.136 3.751c.01.557.403 1.603.403 1.603s-1.59.825-2.416.487c-.824-.337-1.373-1.64-1.349-1.877.024-.238.074-.29.074-.29z" fill="#FFB573"/><path d="M40.605 67.937c.052 0 .092.484-.198.722-.337.273-1.395.796-2.667.612-1.272-.184-1.957-.585-2.46-1.012-.502-.427-1.205-1.036-1.78-1.17-.517-.15-1-.398-1.42-.733-.17-.169-.132-.89-.132-.89l8.657 2.47z" fill="#263238"/><path d="M32.508 62.685a.203.203 0 00-.195.169c-.043.2-.097.78-.188 1.107-.124.453-.22 1.386-.157 1.759.064.373 1.073.843 1.627 1.058a7.049 7.049 0 011.788 1.155c.59.506 1.842 1.026 2.673 1.034.984.01 2.097-.285 2.362-.73.324-.55.565-1.191-.88-1.883-.276-.13-1.234-.712-1.561-.922-.884-.57-1.503-1.09-1.896-2.079a.56.56 0 00-.204-.303.476.476 0 00-.284-.029c-.244.029-1.216.143-1.438.243-.198.09-.478.192-.478.438a.83.83 0 00.05.252c.016.05.03.118-.016.147-.046.028-.098 0-.137-.04a3.686 3.686 0 01-.383-.472 4.695 4.695 0 00-.367-.426 2.241 2.241 0 01-.248-.169c-.088-.086-.064-.194-.068-.309z" fill="#455A64"/><path d="M35.382 67.936a9.937 9.937 0 00-.785-.598s1.697 1.049 2.394.599c.452-.292.246-.66.238-.778-.008-.118 1.582-.913 2.024-.955.12.068.218.125.283.152 1.13.469 1.27 1.05 1.068 1.773-.261.445-1.258.89-2.53.868-.833-.018-2.095-.57-2.692-1.06z" fill="#37474F"/><path d="M37.119 66.813c.9.373.506.533.256.564-.25.03-1.764-.872-2.682-1.615-.956-.772-1.687-1.801-2.051-2.086a5.96 5.96 0 01-.402-.356c.03-.196.051-.375.071-.47a.203.203 0 01.196-.168c0 .115-.02.223.066.31.079.062.161.119.248.17.13.134.254.276.367.426.115.168.243.326.383.472.775 1.01 2.649 2.38 3.548 2.753z" fill="#37474F"/><path d="M37.313 67.245a.099.099 0 01-.055-.022.086.086 0 01-.01-.125c.261-.303 1.488-1.012 2.154-.93a.088.088 0 11-.022.168c-.623-.078-1.788.629-1.996.87a.091.091 0 01-.07.039zm-.781-.489a.088.088 0 01-.068-.145c.262-.304 1.489-1.012 2.155-.931a.087.087 0 01.06.032.089.089 0 01-.047.141.09.09 0 01-.035.002c-.623-.076-1.788.63-1.996.87a.087.087 0 01-.069.03zm-.783-.472a.087.087 0 01-.083-.115.087.087 0 01.017-.03c.261-.306 1.488-1.013 2.154-.933a.09.09 0 01.044.159.085.085 0 01-.066.016c-.622-.076-1.788.63-1.995.872a.094.094 0 01-.071.03zm-.722-.532a.092.092 0 01-.058-.02.09.09 0 01-.03-.06.087.087 0 01.02-.065c.262-.305 1.492-1.012 2.154-.933a.09.09 0 01.068.133.087.087 0 01-.055.041.085.085 0 01-.034.002c-.623-.076-1.788.63-1.996.872a.092.092 0 01-.07.03zm-.711-.532a.083.083 0 01-.054-.02.089.089 0 01-.033-.058.086.086 0 01.02-.065c.36-.431 1.642-1.022 2.307-.938a.088.088 0 11-.022.17c-.599-.075-1.827.492-2.147.875a.083.083 0 01-.071.037z" fill="#263238"/><path d="M26.211 64.258l.904-4.008-3.955-.618-.064 3.958s-.302 1.062-.08 1.428c.223.367 2.598.751 2.816.507.217-.245.38-1.267.38-1.267z" fill="#FFB573"/><path d="M25.816 70.571c-.103.9-.292 1.481-.675 1.967-.383.486-1.081.57-1.768.338-.686-.233-1.564-.773-1.72-1.58-.157-.806-.093-1.335.104-2.157l4.059 1.432z" fill="#263238"/><path d="M23.098 63.59c-.287-.016-.21.691-.338 1.904-.147 1.31-.737 2.338-.948 3.389-.24 1.201-.194 1.756.253 2.556s2.126 1.734 3.021.777c.73-.78.805-1.732.803-2.962 0-1.27-.017-2.166.09-3.116.1-.909.48-1.749.238-1.88-.026.131-.27 1.052-.43 1.037a1.707 1.707 0 01.015-.337.397.397 0 00-.064-.306 1.365 1.365 0 00-.461-.234 15.57 15.57 0 00-1.063-.245 5.23 5.23 0 00-.426-.069 1.323 1.323 0 00-.365 0 .22.22 0 00-.168.106.337.337 0 00-.022.137.81.81 0 01-.05.246c-.011.036-.041.076-.082.063a.077.077 0 01-.042-.08c.006-.155.028-.909.039-.986z" fill="#455A64"/><path d="M21.889 68.544c-.037.169-.263 1.32.086 1.574.378.276.636-.616.636-.616s.924-.136 2.225.54c-.078.182.098.832.467.744.37-.088.577-1.409.58-1.426 0 1.181-.094 2.1-.803 2.856-.895.957-2.574.02-3.02-.777-.448-.798-.493-1.35-.254-2.556.024-.12.052-.233.083-.339z" fill="#37474F"/><path d="M22.71 69.593c-.026.44-.505.231-.505-.396 0-.628.337-2.15.462-3.173.082-1.476.141-2.45.428-2.434v.043l-.034.937c-.052.9-.064 2.652-.192 3.465a12.557 12.557 0 00-.158 1.558zm1.967.418a12.25 12.25 0 00.35-1.518c.138-.804.62-2.417.858-3.284.078-.142.32-.951.32-.951.2.055 0 .828-.092 1.189-.093.36-.206.749-.322 1.267-.297 1.022-.326 2.557-.516 3.146-.191.588-.707.575-.598.151z" fill="#37474F"/><path d="M24.863 70.082a.156.156 0 01-.04-.015 3.926 3.926 0 00-2.192-.472.115.115 0 01-.125-.081.086.086 0 01.08-.106 4.097 4.097 0 012.342.506.091.091 0 01.049.057.093.093 0 01-.01.074.102.102 0 01-.104.037zm.285-.931a.116.116 0 01-.034-.011 4.85 4.85 0 00-2.46-.528.116.116 0 01-.124-.087.088.088 0 01.084-.102 5.032 5.032 0 012.593.558.097.097 0 01.044.132.101.101 0 01-.103.038zm-2.374-1.442a.119.119 0 01-.087-.074.087.087 0 01.037-.1.087.087 0 01.035-.012c1.3-.227 2.53.506 2.59.537a.093.093 0 01.047.057.092.092 0 01-.009.074.111.111 0 01-.145.022c-.012 0-1.214-.717-2.422-.506a.101.101 0 01-.046.002zm.116-.85a.12.12 0 01-.086-.073.087.087 0 01.009-.073.086.086 0 01.062-.04c1.43-.275 2.593.506 2.642.535a.091.091 0 01.028.133.11.11 0 01-.147.014c-.01 0-1.13-.751-2.46-.496a.15.15 0 01-.048 0zm.134-.957a.114.114 0 01-.086-.07.084.084 0 01.007-.073.084.084 0 01.06-.04c1.35-.277 2.609.527 2.661.563a.093.093 0 01.032.133.11.11 0 01-.145.017c-.013-.008-1.235-.786-2.481-.528a.147.147 0 01-.047-.002z" fill="#263238"/><path d="M24.617 33.356c-1.257 3.08-.432 7.2-.56 10.556a486.81 486.81 0 00-.223 7.165c-.047.54-.356 1.295-.606 3.959-.266 2.81-.256 6.828-.256 6.828s2.375 1.012 3.851.49c0 0 1.587-6.018 2.362-9.326.722-3.14 1.255-8.033 1.255-8.033l.862 4.724s-.108 2.024-.058 3.444c.06 1.652.95 7.969.95 7.969s2.206 1.32 3.741.06c0 0 .75-9.277.798-11.256.098-3.893.21-11.55-.251-16.572l-11.865-.008z" fill="#37474F"/><path d="M30.44 44.995l.985-6.177s2.125-.354 3.036-1.238A3.907 3.907 0 0132.1 39.4l-1.033 5.715.235 4.604-.862-4.724z" fill="#263238"/><path d="M22.931 61.996c.663.52 2.595.963 3.917.484l.267-1.122c-.999.337-3.055.123-4.162-.56l-.022 1.198zm9.262-.743c.447.454 2.522.829 3.748.112l.09-1.12c-.93.516-3.063.428-3.974-.103l.136 1.111zm-8.205-16.789s-.206 5.003-.193 5.368c.014.364 2.738 1.084 2.806.853.118-.384.087-1.245.322-5.398-2.256-.283-2.935-.823-2.935-.823z" fill="#455A64"/><path d="M26.499 46.721a.874.874 0 00-.257-.022 4.403 4.403 0 01-.926-.111 5.187 5.187 0 01-.686-.208c-.182-.07-.354-.168-.538-.232-.017 0-.019.027 0 .033.179.121.372.22.575.294.184.074.374.135.567.182.206.05.415.088.625.111.105.012.211.019.316.022a.676.676 0 00.337-.023c.002-.007.004-.04-.013-.046zm-1.184-.698c-.025-.053-.045-.085-.104-.091a.197.197 0 00-.137.035.166.166 0 00-.067.113.193.193 0 00.291.186.134.134 0 00.048-.115.283.283 0 00-.03-.128zm-.05.151a.111.111 0 01-.137.028c-.07-.041-.056-.17.029-.184a.108.108 0 01.076.018.111.111 0 01.032.14v-.002z" fill="#37474F"/><path d="M33.138 20.325c1.37.247 2.034.596 3.063 2.247 1.03 1.652 3.121 6.366 3.121 6.366l2.512 5.127-1.947 1.12s-1.508-1.783-2.463-2.954c-.707-.865-1.18-1.498-2.105-3.114a66.054 66.054 0 01-1.74-3.284l-.441-5.508z" fill="#FFB573"/><path d="M25.68 30.021c0 .354-.903 2.136-1.394 4.057 2.954 3.809 11.707 1.73 12.348-.413-.139-2.547-.257-8.983-.815-10.147a8.602 8.602 0 00-2.68-3.193 16.209 16.209 0 00-1.868-.248 10.903 10.903 0 00-2.798.071c-.829.128-2.193.488-2.193.488-.52.438-1.957 2.285-1.625 4.512.155 1.022 1.034 2.356 1.024 4.873z" fill="#2196F3"/><path opacity=".2" d="M25.68 30.021c0 .354-.903 2.136-1.394 4.057 2.954 3.809 11.707 1.73 12.348-.413-.139-2.547-.257-8.983-.815-10.147a8.602 8.602 0 00-2.68-3.193 16.209 16.209 0 00-1.868-.248 10.903 10.903 0 00-2.798.071c-.829.128-2.193.488-2.193.488-.52.438-1.957 2.285-1.625 4.512.155 1.022 1.034 2.356 1.024 4.873z" fill="#fff"/><path d="M30.641 34.419c-.1-.218.938-.397 1.32-.869.188-.234.168-.688-.225-.533-.812.327-1.276.246-1.814.385" fill="#FFB573"/><path d="M29.922 33.402c-.536.138-.965.155-1.773-.056-.858-.224-3.79-2.64-3.79-2.64l2.016-5.06s.953-2.239-.093-5.009c-1.992.429-2.47 1.171-2.84 1.812-.372.641-.57 1.226-1.539 3.88-.842 2.304-1.275 3.654-1.466 4.595-.234 1.157.523 1.763 1.974 2.61 1.45.846 2.414 1.291 4.532 2.304 1.012.487 1.645.602 2.578.867.35.112.716.17 1.084.168.338.008.671-.068.972-.22a.62.62 0 01.169-.08c.06-.008.122-.012.184-.012.114 0 .227-.016.337-.049a1.8 1.8 0 00.316-.187 1.58 1.58 0 01.143-.09.972.972 0 01.169-.053c.151-.024.297-.075.431-.149a.233.233 0 00.105-.206s.197-.016.265-.026c.093-.014.185-.037.273-.07a.13.13 0 00.084-.065.125.125 0 000-.066c-.077-.338-.418-.444-.718-.506-.783-.169-1.31-.11-2.073-.365-.415-.138-.518-.178-.616-.3" fill="#FFB573"/><path d="M24.359 30.706a9.134 9.134 0 00-1.486-1.15s.578-.056 1.607.843l-.121.307zm9.031 5.134a5.87 5.87 0 01-.596.038c-.201 0-.4 0-.6.008h-.3a6.217 6.217 0 01-.892-.112l.299.016.298.017h.596c.199 0 .4 0 .599.009l.597.025zm-.642.384c-.148.05-.301.085-.457.104-.152.019-.305.03-.459.037-.153.007-.307 0-.462 0a3.474 3.474 0 01-.459-.038c.154 0 .305-.014.459-.02l.459-.02.457-.02c.15-.013.309-.03.462-.043z" fill="#F0997A"/><path d="M42.831 34.19c.47-.08.49-.136.523-.382a1.227 1.227 0 00-.337-1.066c-.25-.234-.49-.482-.675-.543-.186-.06-.346.309-.1.695.387.607.248.739.248.739a8.719 8.719 0 00-.53-.753c-.168-.194-.596-.44-.843-.617-.246-.177-.555.054-.292.506l-.445-.32c-.312-.227-.547-.17-.506.204.01.126.064.245.152.337 0 0-.287-.287-.388-.197-.289.256-.182.506.23 1.251.35.635.31.994.06 1.139l-.169.078s.351.092.687.153c.244.044.48.054.64-.238 0 0 .31.32.524.145a1.41 1.41 0 00.337-.494.485.485 0 00.496-.15.794.794 0 00.228-.459l.16-.029z" fill="#FFB573"/><path d="M41.39 32.764c.138.09.267.195.385.31.101.135.179.286.232.446.121.302.217.614.285.932a5.834 5.834 0 01-.419-.88 2.482 2.482 0 00-.185-.428c-.088-.125-.21-.245-.299-.38zm-.795.218c.158.087.292.213.39.364.096.15.179.308.246.472.138.326.241.665.307 1.013a10.14 10.14 0 01-.438-.954 2.768 2.768 0 00-.505-.895z" fill="#F0997A"/><path d="M53.947 17.048a.902.902 0 00-.392-.088 1.283 1.283 0 00-.639.2 2.529 2.529 0 00-.648.544 4.05 4.05 0 00-.516.758c-.145.28-.259.577-.337.884-.08.299-.122.607-.123.917-.007.266.035.532.123.783.065.19.181.359.337.486l.05.035c-.191-.108-1.561-.885-1.696-.987a1.083 1.083 0 01-.337-.485 2.229 2.229 0 01-.124-.783c.003-.31.044-.618.123-.918.08-.306.192-.603.338-.884a3.82 3.82 0 01.516-.757c.184-.216.402-.4.646-.545.192-.122.413-.19.64-.199a.878.878 0 01.453.12c.019.012 1.195.688 1.586.92zm.593-12.634a.956.956 0 00-.618-.096 1.795 1.795 0 00-.496.15c.01.1.015.202.015.303a4.62 4.62 0 01-.253 1.532 9.1 9.1 0 01-.63 1.412c-.25.454-.519.897-.806 1.326a19.34 19.34 0 00-.78 1.268c-.225.4-.412.82-.559 1.255a3.023 3.023 0 00-.147 1.267l.184 2.237 1.646.953-.18-2.235a3.02 3.02 0 01.143-1.267c.147-.435.335-.856.562-1.255.232-.417.491-.84.78-1.269.284-.428.554-.872.804-1.325.25-.452.462-.924.63-1.412.17-.492.255-1.01.252-1.53a2.064 2.064 0 00-.143-.844.948.948 0 00-.403-.47z" fill="#263238"/><path d="M54.603.171a2.088 2.088 0 00-1.167-.143c-.605.1-1.184.317-1.706.64a8.568 8.568 0 00-1.28.903c-.392.336-.759.699-1.098 1.087-.338.387-.652.793-.942 1.217-.29.426-.556.852-.8 1.28l.7 1.075c.03.072.084.131.153.169.103.054 1.498.869 1.643.95a.381.381 0 01-.15-.169l-.699-1.074c.243-.429.51-.856.802-1.28.288-.426.602-.832.94-1.219.34-.388.706-.75 1.097-1.086.399-.34.827-.642 1.28-.904a4.676 4.676 0 011.708-.64 2.087 2.087 0 011.21.17 93.44 93.44 0 00-1.691-.976z" fill="#37474F"/><path d="M48.463 6.397c.103.054 1.498.87 1.643.95a.38.38 0 01-.15-.168l-.699-1.075-1.646-.951.698 1.074a.356.356 0 00.154.17z" fill="#263238"/><path d="M49.257 6.107c.243-.428.51-.855.801-1.28.289-.425.603-.831.941-1.218.34-.388.706-.751 1.098-1.086a8.38 8.38 0 011.28-.904 4.67 4.67 0 011.706-.64c.452-.077.916 0 1.318.221.39.247.686.617.843 1.051a4.89 4.89 0 01.302 1.856 8.184 8.184 0 01-.238 2.024 10.511 10.511 0 01-.59 1.725c-.226.508-.487.999-.781 1.47l-.801 1.273c-.252.398-.47.772-.652 1.122a2.92 2.92 0 00-.328 1.012l-.247 2.239-1.818 1.049-.184-2.234a3.039 3.039 0 01.145-1.266c.147-.435.334-.856.56-1.255.233-.418.493-.84.781-1.269.288-.428.557-.87.806-1.327.25-.452.46-.924.63-1.41a4.62 4.62 0 00.252-1.53 2.09 2.09 0 00-.145-.844.894.894 0 00-1.022-.565 2.193 2.193 0 00-.78.293 5.045 5.045 0 00-1.038.778c-.26.256-.5.53-.722.818-.196.263-.363.493-.506.692a1.311 1.311 0 01-.366.39c-.258.15-.446.112-.56-.107l-.685-1.078zm2.032 14.156a3.64 3.64 0 01.125-.917 4 4 0 01.854-1.642 2.5 2.5 0 01.646-.544 1.27 1.27 0 01.64-.198.857.857 0 01.515.16c.161.126.283.295.35.488.092.246.136.508.13.77 0 .315-.045.627-.13.929-.083.306-.2.603-.35.883a3.89 3.89 0 01-.516.751 2.576 2.576 0 01-.64.535c-.194.12-.416.192-.645.207a.787.787 0 01-.516-.153 1.04 1.04 0 01-.338-.486 2.192 2.192 0 01-.125-.783z" fill="#B1DAFB"/><path d="M26.568 11.567a2.02 2.02 0 00-.088.423 1.164 1.164 0 000 .277.938.938 0 00.913.756 1.418 1.418 0 001.095-.584c.356-.454.887-1.518.195-1.904a1.408 1.408 0 00-1.467.121 1.81 1.81 0 00-.648.911z" fill="#2196F3"/><path opacity=".25" d="M26.568 11.567a2.02 2.02 0 00-.088.423 1.164 1.164 0 000 .277.938.938 0 00.913.756 1.418 1.418 0 001.095-.584c.356-.454.887-1.518.195-1.904a1.408 1.408 0 00-1.467.121 1.81 1.81 0 00-.648.911z" fill="#000"/><path d="M34.995 11.05c-.463-.674-1.284-.9-1.746-.674-.419-.565-1.265-.889-1.964-.931-2.667-.169-3.529 1.149-3.674 1.638-1.262.169-2.169 2.061-1.405 4.662.338 1.132 2.051 2.482 2.154 3.086l1.218-.409a3.003 3.003 0 011.932-2.484c1.832-.719 2.867-1.166 3.147-1.537 1.132-1.144.802-2.682.338-3.35z" fill="#263238"/><path d="M27.341 9.167c-.708.084-1.155.443-1.29 1.128-.633-.09-1.328.025-1.797.506a1.531 1.531 0 00-.41 1.237c.032.423.252.647.506.943a1.012 1.012 0 00-.567 1.23c.086.295 1.198 1.386.306 1.474.406.281 1.095.042 1.047-.506a1.234 1.234 0 001.203 1.278c.995.044 1.803-.506 2.041-1.47l.48-4.943c-.195-.631-.827-.962-1.519-.877z" fill="#263238"/><path d="M34.647 13.114c.06.29.102.582.125.877.055.588.072 1.18.05 1.77-.087 2.101-.674 2.882-1.227 3.147a3.084 3.084 0 01-1.756.182l.025 1.27s1.911 1.288.2 1.78c-.652.188-2.003-.09-2.76-.685-.755-.593-.957-.961-.957-.961l-.034-3.036s-.66.615-1.467-.247c-.577-.612-.71-1.914.05-2.317a1.038 1.038 0 011.473.413c.287.521.816.322.808-.279-.009-.6.03-.784.227-1.093.675-1.044.2-1.36.825-1.961.36-.338 1.333-.474 2.07.084.855-.757 2.02-.43 2.348 1.056z" fill="#FFB573"/><path d="M32.199 13.86l.445 2.37 1.18-.554-1.625-1.817zm-.361 5.222c-1.608-.337-2.53-.978-2.822-1.626.104.543.418 1.024.874 1.338.776.492 1.956.698 1.956.698l-.008-.41z" fill="#F0997A"/><path d="M33.53 13.242l.728.378a.394.394 0 01-.54.187.433.433 0 01-.189-.565zm-3.142.482l.806-.345a.419.419 0 01-.214.578.46.46 0 01-.592-.233zm3.642.761c.06.169-.056.223-.216.28-.16.057-.305.093-.364-.074a.308.308 0 11.58-.206z" fill="#263238"/><path d="M33.478 14.349c.073-.04.15-.07.232-.086a.754.754 0 01.484.054s.012.02 0 .02c-.066 0-.123-.017-.22-.02a1.278 1.278 0 00-.57.151l-.098.056s-.015-.017-.011-.025a.562.562 0 01.183-.15zm-2.562.248c-.037.168.087.212.253.247.168.036.314.053.351-.121a.31.31 0 10-.604-.127z" fill="#263238"/><path d="M31.446 14.387a.846.846 0 00-.48-.037.861.861 0 00-.234.101v.02c.064-.014.12-.033.214-.048.09-.011.18-.011.27 0 .109.009.215.034.316.074l.104.04c.01 0 .014-.018 0-.025a.55.55 0 00-.19-.125z" fill="#263238"/><path d="M32.312 16.994c.039-.04-.039-.145-.068-.169a.95.95 0 00-.354-.177.832.832 0 00-.528.025c-.032.012-.024.06 0 .08.01.014.022.025.037.033a.084.084 0 00.05 0c.026 0 .051-.012.077-.015a.792.792 0 01.547.101c.051.032.102.068.153.103.023.017.045.037.076.022a.03.03 0 00.01-.003z" fill="#B16668"/></svg>