<svg width="67" height="18" fill="none" xmlns="http://www.w3.org/2000/svg"><path d="M6.984 2.164h-5.35v13.653h1.951v-4.125h3.38c3.567 0 5.722-1.795 5.722-4.755 0-2.978-2.155-4.773-5.703-4.773zM6.928 9.99H3.585V3.866H6.91c2.508 0 3.808 1.11 3.808 3.053.018 1.96-1.3 3.07-3.79 3.07zm28.216-7.826h-1.95v13.653h1.95V2.164zM49.577 12.34l-8.23-10.176h-1.596v13.653h1.95V5.642l8.229 10.175h1.597V2.164h-1.95V12.34zm4.569-10.176v1.702h4.7v11.951h1.931V3.867h4.7V2.163h-11.33z" fill="#00325A"/><path d="M14.73 8.88c0 3.774 2.935 7.085 6.687 7.585v-1.813a5.942 5.942 0 01-4.662-4.2l-.075-.277.242.148c.279.185.613.296.947.296.948 0 1.746-.796 1.746-1.74 0-.943-.798-1.738-1.746-1.738-.334 0-.668.092-.947.296l-.242.148.075-.278c.631-2.164 2.452-3.81 4.662-4.2V1.296c-3.752.5-6.687 3.81-6.687 7.585zm8.693-7.585v1.813a5.916 5.916 0 014.662 4.2l.075.277-.242-.167a1.847 1.847 0 00-.966-.296c-.947 0-1.746.796-1.746 1.74 0 .943.799 1.738 1.746 1.738.335 0 .669-.11.966-.296l.242-.166-.075.277a5.942 5.942 0 01-4.662 4.2v1.85c3.752-.5 6.687-3.811 6.687-7.585s-2.916-7.086-6.687-7.585z" fill="#2F99EF"/></svg>