<svg width="73" height="73" fill="none" xmlns="http://www.w3.org/2000/svg"><path d="M38.903 20.032c-2.718.536-3.673 1.143-6.305 3.954-2.632 2.81-9.503 9.989-9.503 9.989s.565 1.55 4.066 1.278c3.5-.273 5.154-2.103 6.57-3.294 1.585-1.332 4.552-4.129 4.552-4.129l.62-7.798z" fill="#F28F8F"/><path d="M55.964 38.633c-.86 6.564-2.484 11.768-6.46 15.12L34.239 41.788l.427-7.8 21.298 4.646z" fill="#455A64"/><path d="M51.901 20.787a42.23 42.23 0 00-5.79-.871c-1.709-.13-3.221-.331-7.208.122 0 0-2.526 3.07-3.123 7.223-.472 3.278-.725 8.478-.725 8.478a53.798 53.798 0 00-.136 4.805c1.605 1.414 5.298 1.952 9.463 2.517 3.387.462 7.547 3.21 8.843 5.999 2.006-3.425 2.685-9.118 2.937-11.471.283-2.653.355-5.13-.2-8.111-1.18-6.254-2.352-8.272-4.06-8.691z" fill="#2196F3"/><path opacity=".1" d="M51.182 42.014A13.264 13.264 0 0046.79 37.8a13.442 13.442 0 00-5.866-1.724 10.308 10.308 0 00-3.507.3c-.263.076-.1.513.14.48 2.033-.262 4.039-.3 6.035.226a14.212 14.212 0 015.297 2.768c.828.663 1.57 1.428 2.206 2.277.048.068.12-.062.087-.114z" fill="#000"/><path d="M39.138 20.88c.62-.944.313-1.865-.68-2.607-1.655-1.256-2.006-4.109-2.034-6.075-.058-.704-.185-2.498-1.218-2.006-.12.058-.038.502-.022 1.278-.237-.219-.636-.2-.704 0-.066.297-.1.6-.102.905-.019.79-.354 2.463-.311 3.41.166.833.469 2.261.577 3.288a2.018 2.018 0 01-.672 1.74c-.915.802-1.9 1.472-3.47 2.608-1.952 1.404-3.375 2.207-5.393 3.852-1.65 1.344-2.087 2.644-2.273 4.987-.179 2.207 1.03 2.628 2.327 2.686 2.825.133 4.029-.684 5.634-2.927 2.642-3.705 4.54-6.125 5.587-7.342 1.264-1.47 2.473-3.431 2.754-3.796z" fill="#FFB573"/><path d="M39.407 19.527a2.371 2.371 0 00-.95-1.248c-1.654-1.256-2.005-4.109-2.033-6.075-.049-.57-.139-1.86-.725-2.058-.22 1.34-.118 4.187.225 5.91.363 1.806 1.342 2.97 2.078 3.28.454.143.93.208 1.405.19z" fill="#F28F8F"/><path d="M35.184 11.484c.401.2.447 2.115.447 2.115s.08-1.352.022-1.665c-.144-.773-.485-.883-.485-.883l.016.433z" fill="#F28F8F"/><path d="M47.49 16.965c.138-1.581 1.557-3.335 2.144-4.75.568-1.365.887-2.406.71-3.64-.104-.727-.643-1.677-1.203-1.842.401-2.762-1.731-3.856-2.833-4.026a11.615 11.615 0 01-1.529-.295c-.601-.2-.78-.66-1.286-1.023-.872-.628-2.247-.532-2.686.56-.602-.659-1.334-.58-2.166-.296a1.458 1.458 0 00-.981 1.732c-1.188-.544-2.167.345-2.207 1.02-.038.5.102.91-.185 1.377-.325.528-1.013.576-1.254.19-.06.71.257 1.222 1.013 1.122a1.603 1.603 0 00-.088 1.354 1.457 1.457 0 001.394.895c.113.377.157.728.426 1.041.256.318.585.57.959.735 1.203.455 2.483.53 3.743.686l1.497.184c.086.01.534 0 .592.074l3.94 4.902z" fill="#263238"/><path d="M49.215 14.794a1.643 1.643 0 01-1.663-.096l.433 6.018c-.92 2.345-4.265 3.01-5.785 2.757-1.967-.331-1.405-1.683-.685-2.707l-.156-1.775s-.9.066-1.641.05c-1.968-.046-2.723-1.256-3.108-2.257-.513-1.338-.72-3.517-.555-5.198.048-.43.035-.864-.038-1.29-.201-1.127.114-1.846.33-2.825 1.258-1.191 4.763-1.733 7.807-.2-.201 1.753.162 2.987 1.472 3.543-.02.471.016 1.653.78 1.569.552-.06.532-.757 1.05-1.405.517-.648 1.825-.927 2.407-.068.823 1.18.594 3.246-.648 3.884z" fill="#FFB573"/><path d="M40.377 15.819a.834.834 0 01.201-.329c.111-.113.24-.206.383-.275a.885.885 0 01.873 0 .092.092 0 01.048.058.07.07 0 01-.046.072 3.898 3.898 0 01-.445.057c-.134.03-.263.079-.384.144-.115.06-.218.142-.303.24-.066.085-.118.18-.182.264-.024.03-.058.082-.105.078a.086.086 0 01-.076-.074.576.576 0 01.036-.235z" fill="#B16668"/><path d="M41.359 18.985c1.92-.387 3.376-.716 4.271-2.207.562-.93.833-2.303.833-2.303s.09 1.643-.448 2.859c-.415.939-1.577 1.785-4.586 2.297l-.07-.646z" fill="#F28F8F"/><path d="M41.257 11.255a.582.582 0 00.628.538.602.602 0 10-.628-.538zm1.998-1.274l-.98-.91a.7.7 0 00.039.968.653.653 0 00.94-.058zm-5.951-.947l-1.037.859a.645.645 0 00.931.11.708.708 0 00.106-.969zm-.489 2.371a.575.575 0 10.296-.582.584.584 0 00-.296.582z" fill="#263238"/><path d="M37.818 13.373l1.883.911.374-3.611c-.632-.036-1.511 1.206-2.257 2.7z" fill="#F28F8F"/><path d="M21.636 51.53c.25-.745.902-2.563 1.352-3.885-1.17-.2-5.16-1.495-5.973-1.914-.258 1.766-.4 3.021-.565 3.896-.518 2.789-.73 4.927-2.628 6.783a23.598 23.598 0 01-3.268 2.57c-1.218.823-2.171 1.384-2.456 1.92-.506.949.869 3.192 5.918 2.006 1.918-.447 2.626-1.444 3.2-2.235.694-.96.92-1.544 2.119-1.944 2.375-.79 2.393-1.805 2.31-2.913-.108-1.432-.808-1.896-.01-4.285z" fill="#FFB573"/><path d="M42.322 51.26c-2.652 4.504-8.516 4.884-12.067 3.034-6.286-3.26-11.235-18.102-10.649-21.73.602-3.666 4.518-5.735 10.65-.097 3.293 3.025 5.102 6.154 7.504 10.271 1.067.45 4.676 2.72 5.58 5.297a9.41 9.41 0 01-1.018 3.225z" fill="#37474F"/><path d="M25.38 33.616c1.157 1.286 4.149 7.573 4.582 11.463.122 1.093 1.841 5.112 3.39 6.755 2.727 2.897 6.633 1.976 8.007.734-2.869 3.284-7.967 3.357-11.108 1.726-4.069-2.111-7.624-9.43-9.472-15.33l4.6-5.348z" fill="#263238"/><path d="M22.448 29.148c-1.992.45-4.036 2.696-5.03 9.75-.902 6.408-1.31 10.031-1.31 10.031a9.495 9.495 0 006.304 1.66s.931-2.324 2.069-5.734c1.137-3.411 2.054-6.906 1.23-10.278a11.235 11.235 0 00-3.263-5.429z" fill="#37474F"/><path d="M49.923 53.553c-4.614 4.013-9.265 4.414-12.812 2.582-6.283-3.26-9.228-24.561-6.847-24.985 2.646-.471 4.847 1.05 7.08 3.42 3.064 3.257 5.37 6.174 8.34 10.459 1.067.45 5.417 3.41 6.313 5.978-.696 1.104-1.067 1.45-2.074 2.546z" fill="#455A64"/><path d="M32.243 35.46c1.158 1.283 2.227 8.477 2.247 12.391.016 3.315 1.404 6.193 5.417 7.463 3.794 1.204 7.256.095 8.57-.616-3.838 2.947-8.221 3.068-11.365 1.445-4.066-2.11-7.623-9.43-9.469-15.33l4.6-5.354z" fill="#37474F"/><path d="M29.529 54.83c.23-.77.844-2.641 1.264-4.003-1.204-.175-5.148-2.65-5.989-3.054-.235 2.175-.48 4.372-.62 5.267-.447 2.858-.602 5.045-2.48 6.993a23.975 23.975 0 01-3.257 2.715c-1.216.874-2.171 1.474-2.446 2.03-.488.98.979 3.228 6.093 1.878 1.942-.514 2.634-1.551 3.196-2.374.68-1.003.892-1.605 2.102-2.042 2.407-.875 2.387-1.906 2.271-3.04-.152-1.452-.873-1.911-.134-4.37z" fill="#FFB573"/><path d="M30.265 31.15c-2.006.427-4.183 2.662-4.893 8.998-.72 6.431-1.31 12.087-1.31 12.087a9.457 9.457 0 006.133 1.5s1.133-3.103 2.309-6.504c1.175-3.4 2.128-6.88 1.342-10.263s-3.581-5.818-3.581-5.818z" fill="#455A64"/><path d="M64.67 38.427c-.4-1.312-1.173-3.07-3.111-6.934-2.169-4.33-3.196-6.15-5.128-8.486-1.426-1.723-4.53-2.22-4.53-2.22s-.824 1.817-.556 4.814c.261 2.9 2.207 6.271 2.207 6.271l4.127 6.691c-1.142.802-3.535 2.398-4.64 2.363a2.042 2.042 0 01-1.282-.429c-.849-.602-1.098-1.043-2.175-1.392a4.702 4.702 0 00-1.204-.217c.765.77 1.688 1.87.815 2.93-.528.643-1.507.97-2.293 1.07-.547.056-1.1.036-1.641-.06a2.454 2.454 0 01-1.322-.66c-.133.36-.187.692 0 1.023.224.34.522.625.87.835a.98.98 0 00.2.692c.26.321.596.571.978.726a.873.873 0 00.313.54c.319.232.707.35 1.101.335.28.02.749.014.749.014.495.46 1.566.52 2.162.474a20.701 20.701 0 001.91-.241c.612-.109 1.188-.371 1.778-.558 1.605-.51 3.675-1.214 3.675-1.214a56.896 56.896 0 005.657-2.279c2.36-1.155 1.972-2.032 1.34-4.088z" fill="#FFB573"/><path d="M57.68 38.563c1.09-.726 3.63-1.47 5.238-.355-1.553-1.535-3.959-1.073-5.562-.166l.323.521z" fill="#F28F8F"/><path d="M42.87 62.165l.041.072.005.003a5.942 5.942 0 01.594 4.249l-.205.67a5.956 5.956 0 01-11.463-3.089l.166-.683a5.957 5.957 0 0110.861-1.222z" fill="#fff" stroke="#000" stroke-width=".711"/><path d="M36.763 65.157l-2.043 2.016a.684.684 0 00.961.973l2.043-2.006 2.006 2.04a.684.684 0 10.975-.96l-2.008-2.049 2.042-2.006a.683.683 0 10-.967-.967l-2.042 2.006-2.007-2.04a.685.685 0 10-.967.969l2.007 2.024z" fill="#2196F3"/></svg>