<svg width="73" height="73" fill="none" xmlns="http://www.w3.org/2000/svg"><path d="M5.639 48.44l-3.08-1.777a1.234 1.234 0 01-.559-.97V27.601a1.234 1.234 0 01.56-.967L27.674 12.13a1.237 1.237 0 011.119 0l3.08 1.775a1.234 1.234 0 01.558.968v18.098a1.234 1.234 0 01-.559.967L6.757 48.44a1.237 1.237 0 01-1.118 0z" fill="#455A64"/><path d="M32.433 14.878v18.094a1.234 1.234 0 01-.56.967L6.758 48.44c-.31.18-.56.035-.56-.321V30.026a1.234 1.234 0 01.56-.97l25.115-14.5c.31-.178.56-.034.56.322z" fill="#263238"/><path d="M6.628 48.503a1.248 1.248 0 01-.99-.06L2.56 46.666a1.238 1.238 0 01-.559-.97V27.602a1.15 1.15 0 01.164-.55l4.198 2.422a1.15 1.15 0 00-.164.55v18.098c-.002.304.178.454.43.382z" fill="#37474F"/><path d="M49.5 65.27l-2.588-1.495a.614.614 0 00-.559 0l-2.59 1.494a.568.568 0 00-.198.21c-.009.015-.014.035-.023.051a.55.55 0 00-.06.223v4.202a.619.619 0 00.28.484l2.587 1.494.035.013a.518.518 0 00.097.038c.049.01.099.016.149.016a.565.565 0 00.279-.067l2.59-1.494a.615.615 0 00.279-.484v-4.202a.616.616 0 00-.277-.484z" fill="#455A64"/><path d="M46.91 71.933l2.59-1.494a.615.615 0 00.279-.484v-4.202c0-.18-.124-.25-.279-.162l-2.588 1.495a.618.618 0 00-.28.484v4.201c0 .18.125.252.278.162z" fill="#37474F"/><path d="M71.535 52.546l-2.588-1.494a.613.613 0 00-.56 0l-2.59 1.494a.569.569 0 00-.197.209c0 .016-.015.036-.024.052a.538.538 0 00-.057.223v4.202a.622.622 0 00.279.483l2.59 1.495c.01.005.02.01.032.013a.631.631 0 00.097.037c.05.011.1.017.15.017a.573.573 0 00.28-.067l2.588-1.495a.614.614 0 00.279-.483V53.03a.616.616 0 00-.279-.484z" fill="#455A64"/><path d="M68.947 59.21l2.589-1.495a.615.615 0 00.278-.484V53.03c0-.18-.125-.25-.28-.162l-2.588 1.495a.619.619 0 00-.281.485v4.204c.002.18.122.248.282.158z" fill="#37474F"/><path d="M31.314 28.198L7.317 42.048a2.466 2.466 0 00-1.12 1.942v1.061a2.473 2.473 0 001.118 1.94l38.197 22.034a2.466 2.466 0 002.238 0l23.997-13.85a2.467 2.467 0 001.118-1.936v-1.062a2.473 2.473 0 00-1.118-1.938L33.55 28.199a2.466 2.466 0 00-2.237 0z" fill="#455A64"/><path d="M72.865 52.172v1.061a2.478 2.478 0 01-1.119 1.939L47.744 69.027c-.344.182-.73.274-1.119.266v-3.646c.39.008.775-.084 1.119-.266l23.997-13.85c.576-.334.615-.86.113-1.219a2.502 2.502 0 011.011 1.86z" fill="#263238"/><path d="M7.317 43.344c-.588-.338-.615-.875-.085-1.233a2.488 2.488 0 00-1.036 1.88v1.06a2.473 2.473 0 001.119 1.94l38.197 22.034a2.27 2.27 0 001.119.268v-3.646a2.298 2.298 0 01-1.119-.266L7.317 43.344z" fill="#37474F"/><path d="M31.314 22.15L7.317 36a2.466 2.466 0 00-1.12 1.942v2.262a2.473 2.473 0 001.12 1.941L45.512 64.18a2.476 2.476 0 002.238 0l23.997-13.85a2.468 2.468 0 001.118-1.937v-2.27a2.473 2.473 0 00-1.118-1.938L33.55 22.15a2.466 2.466 0 00-2.237 0z" fill="#2196F3"/><path opacity=".8" d="M7.317 37.289l38.195 22.044a2.476 2.476 0 002.238 0l23.997-13.85c.618-.36.618-.935 0-1.293L33.55 22.15a2.466 2.466 0 00-2.237 0L7.317 36c-.619.36-.619.94 0 1.289z" fill="#fff"/><path opacity=".05" d="M11.445 34.832l5.216 3.03c.619.36 1.24.27 2.126 0 .885-.27 3.815-1.439 3.815-1.439s.478 1.892 2.48 4.463c.763.978 2.209 2.816 4.637 4.136l14.252-8.368-11.543-6.666 1.048-.594c.78-.473.619-.877 0-1.235l-6.354-3.657-15.68 9.117c-.618.358-.616.856.003 1.213z" fill="#000"/><path opacity=".5" d="M72.865 46.123v2.265a2.475 2.475 0 01-1.119 1.937L47.744 64.179c-.344.183-.73.275-1.119.267V59.59c.39.008.775-.083 1.119-.266l23.997-13.85c.576-.334.615-.86.113-1.219a2.502 2.502 0 011.011 1.867z" fill="#fff"/><path opacity=".6" d="M7.317 37.289c-.588-.339-.615-.876-.085-1.234a2.49 2.49 0 00-1.036 1.886v2.263a2.473 2.473 0 001.12 1.94L45.513 64.18c.344.182.73.274 1.119.266V59.59a2.296 2.296 0 01-1.119-.266L7.317 37.29z" fill="#fff"/><path d="M33.602 27.432c.088-.72-.691-1.978-1.74-2.8l-4.22-3.315c-.587-.46-1.134-.689-1.517-.677-.99-.046-5.216 1.99-7.324 3.204-2.108 1.214-6.73 4.162-7.554 5.464-.274.426 6.575 7.261 7.54 7.081 2.145-.408 6.163-2.315 8.26-3.597 3.429-2.092 5.443-3.87 6.17-4.637.345-.369.367-.57.385-.723z" fill="#FAFAFA"/><path d="M22.296 25.835c-1.518.87-1.619 1.955-.874 3.237.496.855 1.259 2.037 2.54 2.596.768.336 1.124.669 1.68 1.35.01.013.018.028.027.04a52.348 52.348 0 002.158-1.153l-5.53-6.07zm-9.446 6.597l4.222 3.315c1.05.824 1.979.9 2.061.18.083-.72-.69-1.978-1.739-2.8l-4.221-3.315c-1.049-.824-1.979-.9-2.061-.18-.083.72.687 1.971 1.739 2.8z" fill="#E0E0E0"/><path d="M38.093 32.763c-.496-.291-1.07-.556-3.237-1.619-1.714-.834-2.374-1.196-3.16-1.376-.952-.219-1.99.116-3.114.434l6.524 4.273 2.987-1.712z" fill="#FFB573"/><path d="M28.465 30.238c1.867-.617 2.775-.9 4.37-.144 2.076.979 4.374 2.203 4.374 2.203-.805.035-1.99 1.479-1.912 2.684l-6.832-4.743z" fill="#37474F"/><path d="M25.173 31.614a21.94 21.94 0 00-2.068 1.576c-.54.516.025.68.18 1.4.9 4.283 8.412 8.094 8.412 8.094l7.446-5.843a61.759 61.759 0 01-6.408-4.795c-1.799-1.522-2.594-2.396-4.898-1.628-1.896.628-2.664 1.196-2.664 1.196z" fill="#455A64"/><path d="M27.014 23.912a2.506 2.506 0 00-4.657.577 2.505 2.505 0 00.326 1.941c.022.038.049.074.072.112l-.466 1.451-1.142-1.608a.55.55 0 00-.557-.485.51.51 0 00-.49.554l.72-.025a.908.908 0 00-.291.47c-.116.465.584 1.296 1.473 1.992 0 0 1.31 1.439 1.618 1.633a.861.861 0 00.635.095l-.31-3.119a2.505 2.505 0 003.076-3.597l-.007.01z" fill="#263238"/><path d="M22.906 28.475c-.086.157-.424.011-.687-.065-.262-.075-.933 0-.872.72.061.72 1.009 1.19 1.505 1.08.858-.195.695-.72.695-.72l1.618 2.662c1.572.63 4.162-.977 2.42-1.576l-.466-.793c.302-.123.589-.28.856-.468.485-.394.575-1.009.4-1.68-.28-1.079-.618-1.881-1.898-3.574-1.394-1.865-3.733-.532-4.527.997-.796 1.529.956 3.417.956 3.417z" fill="#FFB573"/><path d="M25.405 26.941c.04.128-.038.583-.315.701a.417.417 0 00.315-.7zm.978-.531c.1.087.55.195.768-.012a.417.417 0 01-.768.013zm.277 1.97a.406.406 0 00-.403-.108.51.51 0 00-.323.2.047.047 0 00-.013.026c0 .076.162-.021.18-.032a.814.814 0 01.194-.063.63.63 0 01.263.002c.027.01.055.017.084.018.029 0 .024-.034.018-.043z" fill="#AF6152"/><path d="M25.29 27.142a.36.36 0 11-.706-.137.36.36 0 01.705.137zm1.705-1.199a.36.36 0 11-.68.236.36.36 0 01.68-.236z" fill="#AF6152"/><path d="M26.995 25.943a.36.36 0 11-.68.236.36.36 0 01.68-.236z" fill="#AF6152"/><path d="M26.674 26.15a.276.276 0 01-.349-.171c-.05-.142.067-.203.21-.254.145-.05.258-.068.308.076a.277.277 0 01-.169.349zm-1.683.994a.272.272 0 01-.386-.014c-.103-.112-.022-.214.09-.317.111-.102.208-.167.313-.055a.274.274 0 01-.017.386zm-1.955 1.553c-.064.04-.563-.234-.816-.288-.35-.074-1.153-2.132-1.153-2.132a1.03 1.03 0 01-.335-1.079c.13-.61.822-1.09 1.304-1.41.344-.23.687-.462 1.008-.72.32-.257.613-.551.899-.841a1.28 1.28 0 00.39-.56.09.09 0 01.025-.05.074.074 0 01.06-.01.54.54 0 01.327.206c.127.178.219.38.27.592.065-.085.122-.177.169-.273a1.45 1.45 0 00.074-.331c0-.015.006-.028.014-.04a.059.059 0 01.043-.02.18.18 0 01.126.074c.201.219.337.49.39.782.055.293.032.594-.064.875-.155.428-.54.73-.9.998-.787.599-2.181 1.245-2.376 1.325-.266.11-.18.38.069 1.108.23.632.7 1.659.476 1.794z" fill="#263238"/><path d="M27.125 29.774s-1.477.504-2.022.525a1.574 1.574 0 01-.9-.234c.206.207.45.37.72.48.53.213 2.394-.455 2.394-.455l-.192-.316z" fill="#AF6152"/><path d="M23.925 26.588l.337-.582a.36.36 0 01.124.473.328.328 0 01-.46.11zm1.955-1.668l.676.063a.325.325 0 01-.36.309.36.36 0 01-.316-.373z" fill="#263238"/><path d="M25.461 26.227l.847 1.464.632-.649-1.479-.815z" fill="#AF6152"/><path opacity=".1" d="M34 42.598a12.1 12.1 0 01-1.77-1.259c-.44-.4-.855-.935-.672-1.502l-2.48 1.44c.435.918 1.471 1.465 2.354 1.978.48.27.96.534 1.44.791l.56.291c2.738 1.4 5.592 2.57 8.441 3.738.346.142.72.288 1.08.201L34 42.598z" fill="#000"/><path d="M21.726 45.616v8.48L46.63 68.46v-8.869a2.282 2.282 0 01-1.119-.266L21.726 45.616z" fill="#2196F3"/><path opacity=".3" d="M21.726 45.616v8.48L46.63 68.46v-8.869a2.282 2.282 0 01-1.119-.266L21.726 45.616z" fill="#000"/><path d="M71.747 45.478c.576-.335.615-.86.113-1.22a2.503 2.503 0 011.006 1.865v7.195L46.63 68.46v-8.869c.39.008.775-.084 1.12-.266l23.996-13.847z" fill="#2196F3"/><path opacity=".45" d="M71.747 45.478c.576-.335.615-.86.113-1.22a2.503 2.503 0 011.006 1.865v7.195L46.63 68.46v-8.869c.39.008.775-.084 1.12-.266l23.996-13.847z" fill="#000"/><path d="M71.746 44.184L47.96 30.468l-9.712 5.59c-3.238-.473-7.538 2.502-8.934 5.175l-7.59 4.383L45.51 59.332a2.477 2.477 0 002.238 0l23.997-13.85c.62-.362.62-.94.001-1.298z" fill="#2196F3"/><path opacity=".2" d="M71.746 44.184L47.96 30.468l-9.712 5.59c-3.238-.473-7.538 2.502-8.934 5.175l-7.59 4.383L45.51 59.332a2.477 2.477 0 002.238 0l23.997-13.85c.62-.362.62-.94.001-1.298z" fill="#000"/><path opacity=".1" d="M71.746 44.184L47.96 30.468l-9.713 5.59a51.93 51.93 0 004.857 2.673c1.197.692 4.523 2.425 7.775 4.268 1.05.595 3.957 1.148 5.216 1.009a16.15 16.15 0 003.255-.737 1.6 1.6 0 01.617-.089c.91.094.817 1.002.666 1.646a6.907 6.907 0 01-.975 2.401 5.378 5.378 0 00-.468 1.08c-.115.681.221 1.201.873 1.489.65.288 3.212.568 4.455-.15l7.232-4.174c.612-.353.612-.934-.004-1.29z" fill="#000"/><path opacity=".1" d="M50.19 52.397a40.105 40.105 0 01-1.519-.97c-.196-.13-1.079-.705-1.298-.899.65.286 1.29.583 1.931.887.702.33 1.41.647 2.134.931.97.382 2.338 1.092 3.169.069.498-.608.615-1.49.78-2.26.069-.318.466-.978.73-1.719.39-1.088.528-2.25-.775-1.937-.201.049-.54.207-.746.268-.917.283-1.752.856-2.707.952-1.259.124-2.534-.56-3.45-1.346-1.052-.899-3.557-2.43-4.757-3.12-.1-.058-.093-.017-.18-.097.54.203 2.313 1.18 2.806 1.469.376.221.737.464 1.115.684.705.422 1.434.805 2.182 1.145.74.355 1.557.516 2.376.47.959-.085 1.834-.55 2.728-.9.342-.163.72-.237 1.097-.215.598.077 1.098.825 1.065 1.404v.054c-.113.977-.279 1.946-.37 2.928-.054.29-.022.59.092.864a1.211 1.211 0 00.829.53c.33.076.674.087.996.19a.227.227 0 01.112.067c.05.072 0 .17-.053.238a2.993 2.993 0 01-1.163.86c-.444.201-.912.345-1.36.54a5.708 5.708 0 01-1.08.407 3.93 3.93 0 01-.719.053c-.419 0-1.239 0-2.503-.69a101.6 101.6 0 01-1.463-.857z" fill="#000"/><path opacity=".2" d="M25.925 48.039v8.498l.525.286-.002-8.482-.523-.302z" fill="#000"/><path opacity=".1" d="M25.925 48.039l6.955-4.017c1.685-2.043 6.207-5.992 9.683-5.606l9.6-5.525.54.318-9.6 5.518c-3.482.18-6.685 2.362-9.666 5.585l-6.989 4.025-.523-.298z" fill="#000"/><path d="M30.858 44.614c-.646-.217-3.381-1.104-4.567-1.725-1.063-.559-1.183-.75-1.554-1.447a87.196 87.196 0 01-2.158-4.357c-.855-1.856-.083-2.86.44-3.467l2.116 1.332 2.665 5.168s2.637 1.618 3.534 2.124c.422.231.882.385 1.359.455a11.06 11.06 0 011.852.255c.416.1.84.151 1.268.155.36-.021.554-.092.471.167-.108.331-.417.504-1.018.578.418.293.914.593 1.319.915.404.322.868.657.924.844a.419.419 0 01-.086.36c.127.057.24.142.33.248a.32.32 0 01-.34.458.387.387 0 01-.321.234 1.885 1.885 0 01-.615-.162s.021.267-.34.198a6.169 6.169 0 01-1.1-.37 4.577 4.577 0 00-.751-.258 2.263 2.263 0 01-.82-.232 9.799 9.799 0 01-1.33-.782 6.725 6.725 0 00-1.278-.69z" fill="#FFB573"/><path d="M33.998 43.177c.222.094.443.18.659.286.108.052.214.109.316.171a2.1 2.1 0 01.294.209c-.215-.108-.428-.209-.643-.311-.108-.054-.215-.106-.32-.164a2.165 2.165 0 01-.306-.19zm3.425 2.779a6.225 6.225 0 01-.58-.343c-.19-.119-.39-.22-.59-.328a7.86 7.86 0 01-.578-.348 2.722 2.722 0 01-.53-.421c.085.073.176.138.272.196.096.06.191.118.288.18.194.113.389.224.587.332.197.108.395.213.582.344.187.131.36.268.549.388zm-.01.707c0-.029-.016-.052-.036-.072a.51.51 0 00-.068-.05 1.303 1.303 0 00-.15-.081c-.1-.054-.206-.098-.309-.153-.201-.112-.39-.245-.58-.373a4.536 4.536 0 00-.589-.343 5.292 5.292 0 01-.591-.36c.201.11.411.202.618.3.21.095.413.207.605.335.18.133.374.263.566.383.096.061.2.11.299.171.048.03.097.061.144.097a.389.389 0 01.063.06.089.089 0 01.028.086zm-.936.072a.528.528 0 00-.25-.19c-.095-.05-.194-.093-.293-.138-.196-.095-.39-.18-.587-.271-.196-.092-.388-.18-.58-.284a.98.98 0 00-.621-.076.973.973 0 01.322-.05c.11.005.22.03.322.072.198.088.394.18.59.27.196.09.394.18.579.29.095.05.192.098.286.154.1.047.18.125.232.223z" fill="#AF6152"/><path d="M23.102 33.19c-1.268.8-1.474 1.978-.849 3.466.506 1.201 2.058 4.228 2.058 4.228.372-.881 2.158-1.93 3.097-1.658l-1.701-3.597S24.66 33 23.102 33.189z" fill="#37474F"/><path d="M40.536 34.204c.578.36 1.174.692 1.785.993.52.253 1.079.304 1.68.598.402.197.782.55 1.29.9.6.412.776.509.638.701 0 0 .18.106.246.157.333.232.322.403.097.54 0 0 .403.258.304.431-.156.272-.498.153-.665.056 0 0 .214.167.077.313-.137.145-.42.18-.835-.045-.415-.225-1.22-.648-1.759-.973-.537-.326-.42-.101-.253.032.203.17.38.37.525.592a.596.596 0 01.047.62c-.1.157-.31-.06-.54-.278-.23-.218-.62-.39-.87-.57-.25-.18-.405-.216-.883-.965-.42-.656-.844-.73-1.778-1.106a216.7 216.7 0 00-3.162-1.203c-.314-.23-.647-.482-1-.75l2.466-1.57s1.806 1.056 2.59 1.527z" fill="#FFB573"/><path d="M45.911 38.58c-.392-.232-.77-.484-1.154-.72l-.574-.36c-.194-.114-.369-.278-.604-.287a.72.72 0 01.329.085l.29.18.584.36.566.375c.19.108.376.236.563.367zm.361-.487c-.37-.207-.73-.43-1.092-.652-.18-.113-.36-.224-.53-.349-.087-.062-.18-.124-.256-.19a.575.575 0 01-.113-.115.473.473 0 01-.052-.151c.011.05.032.1.06.144.035.04.074.074.118.104.084.063.18.12.26.18.18.118.36.23.54.34.356.226.716.45 1.065.689zm-.344-.7a11.639 11.639 0 01-.75-.412c-.12-.074-.242-.148-.36-.227-.057-.043-.116-.08-.18-.13a.606.606 0 01-.105-.18c.03.065.071.123.122.172.058.042.118.08.18.115l.36.22c.25.14.496.283.733.442z" fill="#AF6152"/><path d="M9.295 11.928c.512-.376.96-.595 1.259-.56a3.2 3.2 0 011.343.54c.299.229-.021.988-.286.77-.264-.218-.824-.662-1.021-.694-.392-.065-.93.322-1.08.378-.149.055-.383-.308-.215-.434zm-4.202 2.576c.383.748.063 1.64-.232 2.1-.256.398.341.866.72.443.562-.639.452-1.914 0-2.457l-.488-.086z" fill="#000"/><path d="M5.573 15.44c-.425.382-1.2.18-1.275-.278-.54.029-.918-.34-1.044-.9-.107-.49.042-1.032.53-1.258-.247-.428-.193-1.006.415-1.576.608-.57 1.279-.763 1.618-.599.34-.54 1.527-.824 1.979-.014a1.37 1.37 0 011.743.426 1.238 1.238 0 01-.018 1.439c.42.5.09 1.525-.928 1.619.18.474-.639.85-.959.649-.156.662-1.741 1.083-2.061.493z" fill="#F0F0F0"/><path d="M4.176 14.876c0 .84-.68 1.495-1.15 1.775-.404.241-.08.927.443.72.788-.32 1.259-1.507 1.095-2.2-.102-.356-.394-.457-.388-.295zm4.608-1.739c.613-.17 1.11-.214 1.37-.078.407.215.73.776.93 1.098.2.322-.392 1.003-.56.705-.17-.299-.447-1.067-.62-1.168-.343-.2-.917-.082-1.079-.088-.162-.005-.24-.419-.041-.47zM7.305 9.673c-.23.444.22 1.3.92 1.836.559.428 1.386.135 1.39-.743 0-.804-.28-1.744-.758-1.829-.439-.077-1.38.4-1.552.736z" fill="#000"/><path d="M7.275 9.746c-.153.157-.076.403-.225.686a1.016 1.016 0 01-.66.457c-.275.07-.221.667.156.622a1.115 1.115 0 00.923-.8c.05-.238.047-.484-.01-.72l-.184-.245zm1.64-.794c.218-.011.36.208.664.282a1.009 1.009 0 00.779-.198c.234-.16.647.273.36.529a1.112 1.112 0 01-1.21.167 1.599 1.599 0 01-.539-.482l-.054-.298z" fill="#000"/><path d="M6.947 9.71a.302.302 0 00.393.249.38.38 0 00.43.22.462.462 0 00.415-.4.5.5 0 00.54 0c.23-.14.22-.297.154-.396a.419.419 0 00.448-.13.336.336 0 00-.092-.433.516.516 0 00-.428-.056.491.491 0 00-.554-.253c-.228.041-.397.145-.433.34a.389.389 0 00-.446.064.306.306 0 00-.112.4.333.333 0 00-.315.395z" fill="#F0F0F0"/><path d="M21.584 4.592c.584-.249 1.07-.36 1.347-.26.453.182.859.465 1.187.826.239.29-.247.955-.455.682-.209-.274-.651-.831-.837-.9-.36-.152-.978.103-1.143.121-.166.018-.29-.387-.1-.47zM16.747 6.4c.608.58.6 1.528.475 2.06-.108.459.611.704.824.18.318-.788-.205-1.955-.819-2.316l-.48.077z" fill="#000"/><path d="M17.06 6.987c-.51.258-1.205-.136-1.159-.6-.54-.115-.798-.567-.771-1.144.021-.504.307-.986.838-1.08-.126-.478.076-1.021.811-1.413.736-.392 1.44-.405 1.725-.157.471-.438 1.69-.399 1.917.5a1.37 1.37 0 011.574.866 1.236 1.236 0 01-.394 1.393c.277.592-.31 1.495-1.314 1.313.044.506-.837.657-1.094.378-.336.603-1.977.596-2.133-.056z" fill="#F0F0F0"/><path d="M15.859 6.077c-.212.813-1.045 1.26-1.572 1.416-.453.127-.318.874.243.806.843-.103 1.61-1.128 1.63-1.839-.01-.367-.265-.541-.301-.383zm4.668-.795c.562.302.952.612 1.046.889.147.437 0 1.064-.081 1.438-.081.375-.977.457-.9.125.078-.333.414-1.08.36-1.272-.112-.381-.608-.692-.72-.811-.111-.119.112-.466.296-.369zm-.302-3.417c-.336.37-.124 1.315.412 2.013.428.559 1.304.49 1.534-.36.212-.775.18-1.757-.255-1.962-.396-.186-1.43.03-1.69.309z" fill="#000"/><path d="M20.183 1.93c-.18.111-.18.368-.396.604a1.012 1.012 0 01-.755.268c-.284 0-.387.588-.01.642a1.115 1.115 0 001.098-.54c.113-.216.175-.456.18-.7l-.117-.274zm1.791-.342c.212.047.288.293.568.446a1.01 1.01 0 00.802.01c.268-.095.554.432.216.605a1.119 1.119 0 01-1.212-.151 1.609 1.609 0 01-.394-.608l.02-.302z" fill="#000"/><path d="M19.878 1.809a.3.3 0 00.315.342.377.377 0 00.36.323.466.466 0 00.505-.277.496.496 0 00.52.135c.259-.077.293-.23.253-.341a.423.423 0 00.466 0 .332.332 0 00.023-.443.51.51 0 00-.397-.165.496.496 0 00-.473-.38c-.23-.018-.421.038-.505.218a.389.389 0 00-.448-.054.308.308 0 00-.213.36.331.331 0 00-.406.282z" fill="#F0F0F0"/><path d="M35.133 7.06c.635.033 1.12.147 1.324.36.329.36.57.791.707 1.26.088.36-.64.751-.707.415-.066-.336-.223-1.032-.36-1.182-.264-.296-.924-.336-1.079-.392-.154-.056-.092-.471.115-.46zm-4.881-.654c-.18.822-.987 1.311-1.507 1.484-.448.148-.28.887.277.795.838-.14 1.56-1.198 1.547-1.91l-.317-.369z" fill="#000"/><path d="M30.031 7.431c-.57.027-1.045-.617-.81-1.021-.445-.324-.499-.842-.242-1.358.227-.452.684-.775 1.21-.651.082-.488.485-.9 1.317-.96.833-.062 1.473.215 1.639.56.61-.208 1.707.326 1.547 1.24A1.37 1.37 0 0135.77 6.68a1.238 1.238 0 01-.923 1.111c.01.653-.9 1.24-1.736.662-.163.48-1.03.259-1.153-.1-.555.417-2.05-.258-1.928-.922z" fill="#F0F0F0"/><path d="M29.305 6.115c-.526.656-1.47.732-2.011.653-.468-.069-.648.669-.108.834.813.25 1.93-.372 2.237-1.014.142-.34-.025-.595-.118-.473zm4.672 1.559c.583.256.997.54 1.112.804.18.425.077 1.061.029 1.44-.049.377-.937.539-.88.192.058-.348.328-1.11.257-1.295-.14-.373-.66-.644-.786-.754-.126-.11.08-.471.268-.387zm1.038-3.622c-.459.202-.65 1.15-.445 2.007.164.684.991.979 1.547.3.51-.622.885-1.528.567-1.897-.292-.336-1.322-.561-1.67-.41z" fill="#000"/><path d="M34.945 4.092c-.216.025-.313.264-.606.39a1.016 1.016 0 01-.8-.063c-.26-.119-.592.38-.27.583a1.113 1.113 0 001.22-.04 1.59 1.59 0 00.447-.568l.009-.302zm1.775.418c.18.128.144.385.338.639a1.012 1.012 0 00.728.336c.284.024.331.62-.05.64a1.113 1.113 0 01-1.043-.632 1.59 1.59 0 01-.114-.72l.14-.262z" fill="#000"/><path d="M34.715 3.856a.301.301 0 00.147.44.379.379 0 00.196.438.462.462 0 00.574-.049.492.492 0 00.42.342c.269.036.36-.09.371-.209a.42.42 0 00.428.18.333.333 0 00.202-.394.509.509 0 00-.295-.313.495.495 0 00-.277-.54c-.203-.11-.401-.136-.55 0a.388.388 0 00-.389-.231.306.306 0 00-.338.239.331.331 0 00-.49.097z" fill="#F0F0F0"/></svg>