<svg width="73" height="73" fill="none" xmlns="http://www.w3.org/2000/svg"><g clip-path="url(#clip0_74_8666)"><path d="M26.05 15.448s-2.126-.51-2.439-2.63a7.493 7.493 0 10-1.636 1.68 4.089 4.089 0 004.075.95z" fill="#2196F3"/><path d="M41.778 71.371a.302.302 0 01-.3-.307V51.177a.297.297 0 01.596 0v19.887a.302.302 0 01-.296.307zm11.805-7.237a.284.284 0 01-.285-.196l-5.842-15.433a.313.313 0 01.168-.401.285.285 0 01.384.173l5.85 15.433a.313.313 0 01-.167.402.239.239 0 01-.108.022z" fill="#455A64"/><path d="M52.88 62.282a.285.285 0 01-.217-.1L41.778 50.167 30.91 62.12a.285.285 0 01-.419 0 .319.319 0 010-.439l11.082-12.194a.298.298 0 01.216-.097.284.284 0 01.214.1L53.1 61.727a.324.324 0 010 .438.283.283 0 01-.222.117z" fill="#455A64"/><path d="M29.973 64.134a.259.259 0 01-.11-.022.313.313 0 01-.166-.402l5.851-15.433a.284.284 0 01.384-.173.313.313 0 01.165.401L30.25 63.938a.302.302 0 01-.276.196z" fill="#455A64"/><path d="M53.178 61.803l.774 2.13a.17.17 0 010 .053.083.083 0 010 .037.239.239 0 01-.114.134.497.497 0 01-.472 0 .199.199 0 01-.091-.1v-.028l-.717-1.992.62-.233zm-22.798 0l-.77 2.13a.164.164 0 000 .053v.037a.24.24 0 00.116.134.491.491 0 00.47 0 .208.208 0 00.094-.1v-.028l.717-1.992-.626-.233zm11.74 7.715v1.76a.177.177 0 01-.1.144.52.52 0 01-.484 0 .17.17 0 01-.1-.145v-1.759a.694.694 0 01.684 0zm12.926-21.223c0-.553-.467-1.139-1.449-1.81-1.821-1.23-7.31-4.144-9.858-5.612a.026.026 0 00-.02-.023c-1.958-1.238-2.359-6.693-3.713-11.175-.462-1.529-1.028-2.394-1.708-2.8-.16-.095-.745-.433-.877-.516-1.328-.83-3.076.168-5.25 1.409-1.992 1.138-3.569 2.604-3.882 6.485-.193 2.365 0 6.882.45 10.302.666 5.717 1.485 5.729 2.672 6.685 2.046 1.648 6.65 3.961 8.592 4.758 3.52 1.443 6.397-.782 8.537-1.887a49.692 49.692 0 005.692-3.508c.535-.407.814-.817.808-1.25.003-.176.006-.88.006-1.058z" fill="#2196F3"/><path opacity=".2" d="M55.046 48.295c0-.553-.467-1.139-1.449-1.81-1.821-1.23-7.31-4.144-9.858-5.612a.026.026 0 00-.02-.023c-1.958-1.238-2.359-6.693-3.713-11.175-.462-1.529-1.028-2.394-1.708-2.8-.16-.095-.745-.433-.877-.516-1.328-.83-3.076.168-5.25 1.409-1.992 1.138-3.569 2.604-3.882 6.485-.193 2.365 0 6.882.45 10.302.666 5.717 1.485 5.729 2.672 6.685 2.046 1.648 6.65 3.961 8.592 4.758 3.52 1.443 6.397-.782 8.537-1.887a49.692 49.692 0 005.692-3.508c.535-.407.814-.817.808-1.25.003-.176.006-.88.006-1.058z" fill="#000"/><path d="M48.554 53.044a49.675 49.675 0 005.692-3.509c1.218-.922 1.107-1.866-.64-3.05-2.45-1.642-11.272-6.418-11.272-6.418S30.02 47.606 30.558 49.03c.538 1.423 7.012 4.906 9.453 5.908 3.52 1.437 6.398-.786 8.543-1.893z" fill="#2196F3"/><path opacity=".05" d="M48.553 53.044a49.692 49.692 0 005.692-3.509c1.218-.922 1.107-1.867-.64-3.05-2.45-1.642-11.273-6.418-11.273-6.418S30.02 47.606 30.556 49.03c.538 1.423 7.012 4.906 9.454 5.908 3.52 1.437 6.398-.786 8.543-1.893z" fill="#000"/><path d="M38.23 26.831c-1.319-.72-3.032.26-5.149 1.469-1.357.777-2.516 1.693-3.216 3.415l-.907-.544c.702-1.707 1.858-2.63 3.21-3.415 2.174-1.24 3.921-2.236 5.25-1.408l.811.483z" fill="#2196F3"/><path opacity=".6" d="M38.23 26.831c-1.319-.72-3.032.26-5.149 1.469-1.357.777-2.516 1.693-3.216 3.415l-.907-.544c.702-1.707 1.858-2.63 3.21-3.415 2.174-1.24 3.921-2.236 5.25-1.408l.811.483z" fill="#fff"/><path d="M33.079 28.297c3.255-1.855 5.555-3.173 6.926 1.38 1.355 4.483 1.756 9.938 3.714 11.176 0 0 .794-.114-4.078 3.722-1.551 1.22-3.415 2.22-4.667 2.988-2.42 1.503-3.887 2.106-4.12 1.904-1.279-1.104-1.973-10.797-1.657-14.679.316-3.881 1.878-5.347 3.882-6.49z" fill="#2196F3"/><path d="M41.584 42.962c-.359.752-.78 1.473-1.26 2.154l.367.304s.893-1.229.893-2.458z" fill="#263238"/><path d="M48.984 63.79s.265 3.07.726 4.075a15.21 15.21 0 001.873 3.202c.184.236.606.677.754.867a.353.353 0 01-.066.541c-.415.359-2.106.362-3.014-.395-.907-.757-1.633-1.964-2.165-2.562l-.703-.8a.763.763 0 01-.151-.736 7.56 7.56 0 00.077-.257c.267-.899-.177-3.508-.177-3.508.874-1.082 1.833-.675 2.846-.427z" fill="#FFB573"/><path d="M46.117 68.91a.916.916 0 00.023.46c.08.214.652.62.948.786.34.207.606.514.762.88.333.706.866 1.3 1.532 1.707.91.444 1.932.601 2.934.452 1.243-.16 1.38-.882 1.38-.882s.1-.68-.202-.802c-.302-.123-7.377-2.602-7.377-2.602z" fill="#263238"/><path d="M46.22 66.798c0 .11-.012.22-.037.327-.054.339-.096.55-.139.936a1.99 1.99 0 00.074.854c.339.52 1.19.731 1.65 1.443.462.711.997 1.801 2.596 2.205 1.6.404 2.846-.05 3.17-.495.325-.444.071-.89-.933-1.502-1.07-.65-2.297-2.3-2.297-2.3-.122-.165-.227-.35-.336-.526a2.239 2.239 0 01-.318-.632 2.78 2.78 0 01-.08-.734.107.107 0 000-.06.105.105 0 00-.057-.026 2.825 2.825 0 00-1.75.285.407.407 0 00-.148.108.522.522 0 00-.066.14l-.133.38c-.034.1-.083.214-.182.248-.1.035-.245-.048-.342-.133-.097-.086-.154-.285-.259-.37a.57.57 0 00-.413-.148z" fill="#2196F3"/><path opacity=".5" d="M46.22 66.798c0 .11-.012.22-.037.327-.054.339-.096.55-.139.936a1.99 1.99 0 00.074.854c.339.52 1.19.731 1.65 1.443.462.711.997 1.801 2.596 2.205 1.6.404 2.846-.05 3.17-.495.325-.444.071-.89-.933-1.502-1.07-.65-2.297-2.3-2.297-2.3-.122-.165-.227-.35-.336-.526a2.239 2.239 0 01-.318-.632 2.78 2.78 0 01-.08-.734.107.107 0 000-.06.105.105 0 00-.057-.026 2.825 2.825 0 00-1.75.285.407.407 0 00-.148.108.522.522 0 00-.066.14l-.133.38c-.034.1-.083.214-.182.248-.1.035-.245-.048-.342-.133-.097-.086-.154-.285-.259-.37a.57.57 0 00-.413-.148z" fill="#000"/><path d="M31.613 40.873c-.285 1.357-.882 5.265.52 7.015.917 1.138 1.534 1.793 4.337 3.196 2.613 1.306 7.48 3.414 7.48 3.414-.123 1.088-.393 2.294.438 5.265.52 1.867.998 2.963 1.644 5.234.55.372 2.67.242 3.13-.35 0-1.39-.335-11.953-.953-13.336-.617-1.383-7.968-5.637-7.968-5.637s-.634-2.254-.239-3.905l-8.39-.896z" fill="#455A64"/><path d="M56.195 60.697s.333 3.175.749 4.2c.44 1.16 1.02 2.262 1.727 3.281.174.245.57.703.717.902a.353.353 0 01-.09.535c-.434.342-2.121.268-2.995-.529-.873-.797-1.545-2.035-2.049-2.655a68.54 68.54 0 01-.666-.828.766.766 0 01-.12-.746c.026-.071.058-.154.092-.253.304-.885-.492-3.347-.492-3.347.933-1.036 2.125-.845 3.127-.56z" fill="#FFB573"/><path d="M53.31 65.785a.923.923 0 000 .46c.07.217.623.65.913.829.33.221.582.54.723.91.3.719.806 1.333 1.454 1.765a4.983 4.983 0 002.908.583c1.253-.102 1.423-.82 1.423-.82s.131-.674-.165-.81c-.296-.137-7.257-2.917-7.257-2.917z" fill="#263238"/><path d="M53.506 63.679c-.006.11-.023.22-.051.327-.072.333-.123.544-.18.928-.052.284-.04.575.034.854.316.535 1.156.782 1.583 1.514.426.731.916 1.847 2.495 2.32 1.58.472 2.846.079 3.19-.351.345-.43.111-.888-.867-1.545-1.04-.695-2.189-2.4-2.189-2.4-.117-.17-.213-.358-.313-.54a2.277 2.277 0 01-.285-.646 2.666 2.666 0 01-.045-.737.089.089 0 000-.06.075.075 0 00-.054-.025 2.8 2.8 0 00-1.762.202.404.404 0 00-.153.102.499.499 0 00-.072.134c-.048.125-.1.25-.15.376-.051.125-.088.207-.191.239-.102.03-.245-.06-.336-.151-.09-.091-.142-.285-.242-.379a.586.586 0 00-.412-.162z" fill="#2196F3"/><path opacity=".5" d="M53.506 63.679c-.006.11-.023.22-.051.327-.072.333-.123.544-.18.928-.052.284-.04.575.034.854.316.535 1.156.782 1.583 1.514.426.731.916 1.847 2.495 2.32 1.58.472 2.846.079 3.19-.351.345-.43.111-.888-.867-1.545-1.04-.695-2.189-2.4-2.189-2.4-.117-.17-.213-.358-.313-.54a2.277 2.277 0 01-.285-.646 2.666 2.666 0 01-.045-.737.089.089 0 000-.06.075.075 0 00-.054-.025 2.8 2.8 0 00-1.762.202.404.404 0 00-.153.102.499.499 0 00-.072.134c-.048.125-.1.25-.15.376-.051.125-.088.207-.191.239-.102.03-.245-.06-.336-.151-.09-.091-.142-.285-.242-.379a.586.586 0 00-.412-.162z" fill="#000"/><path d="M31.835 41.803c-.285 1.654 7.473 4.986 7.473 4.986 1.05.542 2.129 1.03 3.23 1.46 3.184 1.292 9.027 2.948 9.027 2.948a7.36 7.36 0 00-.097 2.82c.174 1.08.248 1.386.805 3.874.424 1.89.57 2.763.94 4.098.7.122 2.56.065 3.13-.39-.108-1.571.253-11.87-.376-13.262-1.087-2.404-12.732-7.84-12.732-7.84l-11.4 1.306z" fill="#455A64"/><path d="M46.318 49.57l-6.076-3.888s2.515-1.232 2.95-3.452a4.553 4.553 0 01-1.661 3.495l4.787 3.844z" fill="#37474F"/><path d="M57.091 24.57a2.143 2.143 0 00-1.579-1.492.441.441 0 00-.324.034.498.498 0 00-.16.285c-.165.6-.353 1.192-.569 1.775-.099.29-.213.576-.341.854-.037.069-.285.37-.302.401a3.87 3.87 0 00-.029-.936.538.538 0 00-.586-.472c-.122.023-.051.319-.19.8-.177.617-.382 1.018-.402 1.707-.008.26-.11.508-.284.7-.837.916-3.148 2.763-4.764 3.85-.928-.853-1.992-2.427-3.287-4.018-1.582-1.963-2.561-2.627-4.787-2.578l.57 3.819c1.46 1.798 2.76 3 5.611 5.93.66.68 1.159.951 1.605.99.6.055 1.167-.429 1.708-.896a65.517 65.517 0 003.62-3.26c1.58-1.546 3.634-3.456 4.325-5.283a3.451 3.451 0 00.165-2.21z" fill="#FFB573"/><path d="M39.115 25.494c.81-.09 1.63-.026 2.416.19.757.254 1.389.658 2.703 2.232a147.367 147.367 0 012.79 3.472s-.177 1.733-2.562 2.968l-5.085-4.858-.262-4.004z" fill="#2196F3"/><path opacity=".3" d="M39.115 25.494c.81-.09 1.63-.026 2.416.19.757.254 1.389.658 2.703 2.232a147.367 147.367 0 012.79 3.472s-.177 1.733-2.562 2.968l-5.085-4.858-.262-4.004z" fill="#000"/><path d="M35.55 25.642s-2.69.364-3.416.76l-1.28 6.405.885 4.955-.547 5.575c1.688 1.833 11.28 1.195 12.317-2.7 0 0-.495-8.922-.603-10.792-.12-2.01-1.546-4.155-3.57-4.365l-3.787.162z" fill="#F0F0F0"/><path d="M42.458 18.168a2.166 2.166 0 10-3.225-2.89 2.166 2.166 0 003.225 2.89zm-9.77-1.781c.178-.189.41-.318.666-.37l-.871-.46a.698.698 0 01.959-.325.76.76 0 01.33.96l.324 3.371.285-.031.13 1.964.046 1.886c-.788 0-1.383-1.038-1.846-3.674-.376-1.983-.479-2.837-.023-3.32z" fill="#263238"/><path d="M34.441 19.868c-.21.128-.512-.285-.774-.544-.261-.259-1.107-.634-1.525.257-.418.89.285 2.037.894 2.387.788.453 1.343.111 1.343.111v4.198s.791 1.357 2.951 1.482c2.052.12 1.708-1.172 1.027-1.992v-1.26c.353.086.713.14 1.076.162.888.031 1.645-.154 2.146-1.813.377-1.352.535-2.756.47-4.158a16.778 16.778 0 00-.206-2.663c-.392-2.385-4.223-2.146-6.203-.883-1.981 1.264-1.199 4.716-1.199 4.716z" fill="#FFB573"/><path d="M33.667 19.324c-.364-.327.085-3.318.085-3.318s-.373-1.138.339-1.887c.711-.748 2.103-.634 3.13-.677a9.173 9.173 0 003.626-.751c1.437-.635 1.545-.709 1.727-.077.113.368.151.755.114 1.138a7.394 7.394 0 01-.122 1.024 2.845 2.845 0 01-4.22 1.736 1.267 1.267 0 01-1.244.644 3.723 3.723 0 01-1.403-.453c0 1.181-.456 2.308-.911 3.398-.245.595-.94-.615-1.121-.777z" fill="#263238"/><path d="M38.349 24.507s-1.887-.367-2.547-.715a2.145 2.145 0 01-.917-.896c.1.386.279.747.524 1.061.484.612 2.942 1.05 2.942 1.05l-.002-.5z" fill="#F28F8F"/><path d="M38.102 19.717a.408.408 0 01-.395.418.413.413 0 01-.404-.415.4.4 0 01.56-.401.402.402 0 01.24.4v-.002zm-.484-1.568l-.853.475a.512.512 0 01.193-.68.475.475 0 01.66.205z" fill="#263238"/><path d="M37.749 22.204l1.013.373a.529.529 0 01-.683.339.57.57 0 01-.33-.712z" fill="#F28F8F"/><path d="M41.428 18.63l-.782-.595a.472.472 0 01.677-.108.515.515 0 01.105.703zm-.232.982a.403.403 0 01-.396.418.413.413 0 01-.404-.416.4.4 0 01.695-.305.401.401 0 01.105.305v-.002z" fill="#263238"/><path d="M39.16 19.156l.145 2.402 1.252-.435-1.397-1.967z" fill="#F28F8F"/><path d="M26.112 37.913c.418-2.308 1.992-6.4 2.64-8.253.946-2.66 2.118-3.207 3.746-3.386.666.64.888 3.295-.458 6.164-.64 1.573-2.01 6.414-2.01 6.414.1.399 2.45 5.202 3.285 6.509.158.234.397.403.671.475.757.216 1.375.734 1.992 1.087.487.284.84.284.82.415-.02.131-.236.473-.746.453a4.835 4.835 0 01-1.055-.236c.377.49.833.913 1.349 1.255 1.192.802 1.209 1.568-.646 2.02-1.162.285-2.277-.145-3.76-2.257a26.515 26.515 0 01-1.448-2.319c-1.07-1.938-2.146-3.258-2.846-4.553-1.358-2.42-1.708-2.9-1.534-3.788z" fill="#FFB573"/><path d="M32.618 26.194s-1.358-.111-2.317.524c-.959.634-1.349 1.844-2.012 3.608s-1.667 4.52-1.667 4.52 1.195 2.06 4.186 1.707c0 0 1.724-5.032 2.037-5.76.313-.729.635-3.108-.227-4.6z" fill="#2196F3"/><path opacity=".3" d="M32.618 26.194s-1.358-.111-2.317.524c-.959.634-1.349 1.844-2.012 3.608s-1.667 4.52-1.667 4.52 1.195 2.06 4.186 1.707c0 0 1.724-5.032 2.037-5.76.313-.729.635-3.108-.227-4.6z" fill="#000"/></g><defs><clipPath id="clip0_74_8666"><path fill="#fff" d="M0 0h73v73H0z"/></clipPath></defs></svg>